<?xml version="1.0" encoding="UTF-8" standalone="no"?><!DOCTYPE svg PUBLIC "-//W3C//DTD SVG 1.1//EN" "http://www.w3.org/Graphics/SVG/1.1/DTD/svg11.dtd"><svg xmlns="http://www.w3.org/2000/svg" xmlns:xlink="http://www.w3.org/1999/xlink" version="1.1" width="800" height="500" viewBox="0 0 800 500">
<desc>Created with SVGMaker Editor 2.2.3</desc>
<defs>
</defs>
<path transform="translate(0,0)" style="fill: rgb(0,0,0)" stroke-linecap="round" d="M604.8 164.2986C606.3 162.3986 608.2 160.8986 610.3 159.7986 612.4 158.6986 614.8 158.1986 617.3 158.1986L684.7 158.1986 684.7 142.5986 616.6 142.5986C612.3 142.5986 608.2 143.4986 604.5 145.1986 600.8 146.9986 597.6 149.4986 594.9 152.7986 592.2 156.0986 590.1 159.9986 588.5 164.5986 587 169.1986 586.2 174.3986 586.2 180.0986 586.2 185.5986 587 190.5986 588.5 195.1986 589.4 197.8986 590.6 200.3986 591.9 202.6986L565.3 202.6986C565.3 202.6986 566.3 204.1986 562.9 214.6986 559.6 224.8986 553.8 228.2986 553.8 228.2986L704.9 228.2986 704.9 202.6986 703.1 202.6986 703.1 201.5986 617.2 201.5986C614.7 201.5986 612.3 201.0986 610.2 200.0986 608.1 199.0986 606.3 197.5986 604.7 195.6986 603.2 193.7986 602 191.4986 601.1 188.8986 600.2 186.2986 599.8 183.3986 599.8 180.1986 599.8 176.8986 600.2 173.9986 601.1 171.2986 602 168.4986 603.2 166.1986 604.8 164.2986Z"/>
<path transform="translate(0,0)" style="fill: rgb(0,0,0)" stroke-linecap="round" d="M517.1 370.4986L445 370.4986C443 370.4986 441.1 370.0986 439.4 369.2986 437.7 368.4986 436.3 367.2986 435 365.7986 433.8 364.2986 432.8 362.4986 432.1 360.3986 431.4 358.2986 431.1 355.9986 431.1 353.3986 431.1 350.7986 431.4 348.3986 432.1 346.2986 432.8 344.1986 433.7 342.2986 435 340.7986 436.2 339.2986 437.7 338.0986 439.4 337.1986 441.1 336.3986 443 335.8986 445 335.8986L498.7 335.8986 498.7 323.4986 444.4 323.4986C440.9 323.4986 437.7 324.1986 434.8 325.5986 431.8 326.9986 429.3 328.9986 427.1 331.5986 424.9 334.1986 423.2 337.3986 422 340.9986 420.8 344.6986 420.2 348.7986 420.2 353.2986 420.2 357.6986 420.8 361.6986 422 365.2986 422.6 367.1986 423.4 368.8986 424.3 370.4986L412.6 370.4986C412.6 370.4986 413.5 371.7986 410.6 380.6986 407.8 389.3986 402.9 392.2986 402.9 392.2986L517.4 392.2986 517.4 370.4986 517.1 370.4986 517.1 370.4986Z"/>
<path transform="translate(0,0)" style="fill: rgb(0,0,0)" stroke-linecap="round" d="M274 353.3986C274 348.7986 273.4 344.6986 272.2 341.0986 271 337.3986 269.3 334.2986 267.1 331.6986 264.9 329.0986 262.4 327.0986 259.4 325.6986 256.4 324.2986 253.2 323.5986 249.8 323.5986L214 323.5986 214 335.9986 249.2 335.9986C251.2 335.9986 253.1 336.3986 254.8 337.2986 256.5 338.0986 258 339.2986 259.2 340.8986 260.4 342.3986 261.4 344.2986 262.1 346.3986 262.8 348.4986 263.1 350.8986 263.1 353.4986 263.1 355.9986 262.7 358.3986 262.1 360.4986 261.4 362.5986 260.4 364.3986 259.2 365.8986 258 367.3986 256.5 368.5986 254.8 369.3986 253.1 370.1986 251.3 370.5986 249.2 370.5986L195.5 370.5986 195.5 382.9986 249.8 382.9986C253.3 382.9986 256.5 382.2986 259.4 380.8986 262.4 379.4986 264.9 377.4986 267.1 374.8986 269.3 372.2986 271 369.1986 272.2 365.4986 273.4 361.7986 274 357.7986 274 353.3986Z"/>
<path transform="translate(0,0)" style="fill: rgb(0,0,0)" stroke-linecap="round" d="M395.8 394.9986C396.1 394.6986 396.5 394.3986 396.8 394.0986 401.2 389.2986 404.6 383.5986 407 376.8986 409.4 370.1986 410.6 362.8986 410.6 354.7986 410.6 346.9986 409.5 339.7986 407.2 333.0986 404.9 326.3986 401.6 320.6986 397.3 315.7986 393 310.8986 387.7 307.1986 381.5 304.3986 375.3 301.6986 368.3 300.2986 360.5 300.2986 352.2 300.2986 344.9 301.6986 338.6 304.5986 332.3 307.4986 327.1 311.2986 322.9 316.2986 318.7 321.1986 315.6 326.9986 313.5 333.5986 311.4 340.1986 310.4 347.2986 310.4 354.7986 310.4 363.0986 311.6 370.4986 314.1 377.1986 316.6 383.8986 320.1 389.5986 324.5 394.3986 328.9 399.1986 334.2 402.7986 340.3 405.3986 346.4 407.9986 353.2 409.1986 360.5 409.1986 368 409.1986 374.9 407.8986 381.1 405.1986 383.1 404.3986 384.9 403.3986 386.7 402.2986 386.7 402.2986 386.7 402.2986 386.8 402.3986 388 403.8986 389 405.7986 389.7 407.8986 390.4 409.9986 390.7 412.3986 390.7 414.9986 390.7 417.4986 390.4 419.8986 389.7 421.9986 389 424.0986 388 425.8986 386.8 427.3986 385.6 428.8986 384.1 430.0986 382.4 430.8986 380.7 431.6986 378.9 432.0986 376.8 432.0986L99.3 432.0986 99.3 444.4986 377.1 444.4986C380.6 444.4986 383.8 443.7986 386.7 442.3986 389.7 440.9986 392.2 438.9986 394.4 436.3986 396.6 433.7986 398.3 430.6986 399.5 427.0986 400.7 423.4986 401.3 419.4986 401.3 415.0986 401.3 410.4986 400.7 406.3986 399.5 402.7986 398.6 399.7986 397.3 397.2986 395.8 394.9986ZM374.3 390.7986C370.2 392.6986 365.5 393.6986 360.3 393.6986 355 393.6986 350.4 392.6986 346.3 390.7986 342.2 388.8986 338.7 386.1986 335.9 382.6986 333 379.2986 330.9 375.1986 329.4 370.3986 327.9 365.5986 327.1 360.3986 327.1 354.7986 327.1 349.0986 327.9 343.8986 329.4 339.0986 330.9 334.2986 333.1 330.1986 335.9 326.7986 338.8 323.3986 342.2 320.6986 346.3 318.7986 350.4 316.8986 355.1 315.8986 360.3 315.8986 365.5 315.8986 370.1 316.8986 374.3 318.7986 378.4 320.6986 381.9 323.3986 384.8 326.7986 387.7 330.1986 389.8 334.2986 391.3 339.0986 392.8 343.8986 393.6 349.0986 393.6 354.7986 393.6 360.3986 392.8 365.5986 391.3 370.3986 389.8 375.1986 387.6 379.2986 384.8 382.6986 381.9 386.1986 378.4 388.8986 374.3 390.7986Z"/>
<path transform="translate(0,0)" style="fill: rgb(0,0,0)" stroke-linecap="round" d="M546.9 228.8986C550.2 226.1986 552.7 222.9986 554.5 219.2986 556.3 215.5986 557.2 211.5986 557.2 207.1986L557.2 179.6986 541.6 179.6986 541.6 206.4986C541.6 208.9986 541.1 211.3986 540.1 213.4986 539.1 215.5986 537.6 217.3986 535.7 218.9986 533.8 220.4986 531.5 221.6986 528.9 222.5986 526.3 223.4986 523.4 223.8986 520.2 223.8986 516.9 223.8986 514 223.4986 511.3 222.5986 508.6 221.7986 506.3 220.5986 504.4 218.9986 502.5 217.4986 501 215.5986 499.9 213.4986 498.8 211.3986 498.3 201.5986 498.3 199.0986L498.3 188.9986 498.2 188.9986 482.7 188.9986 482.6 188.9986 482.6 199.0986C482.6 201.5986 482.1 211.3986 481.1 213.4986 480.1 215.5986 478.6 217.3986 476.7 218.9986 474.8 220.4986 472.5 221.6986 469.9 222.5986 467.3 223.4986 464.4 223.8986 461.2 223.8986 457.9 223.8986 455 223.4986 452.3 222.5986 449.6 221.7986 447.3 220.5986 445.4 218.9986 443.5 217.4986 442 215.5986 440.9 213.4986 439.8 211.3986 439.3 208.9986 439.3 206.4986L439.3 179.6986 423.7 179.6986 423.7 207.1986C423.7 211.4986 424.6 215.5986 426.3 219.2986 428 222.9986 430.6 226.1986 433.9 228.8986 437.2 231.5986 441.1 233.6986 445.7 235.2986 450.3 236.7986 455.5 237.5986 461.2 237.5986 466.7 237.5986 471.7 236.7986 476.3 235.2986 480.9 233.7986 484.8 231.5986 488 228.8986 488.9 228.1986 489.7 227.3986 490.5 226.5986 491.3 227.3986 492.1 228.1986 493 228.8986 496.3 231.5986 500.2 233.6986 504.8 235.2986 509.4 236.7986 514.6 237.5986 520.3 237.5986 525.8 237.5986 530.8 236.7986 535.4 235.2986 539.7 233.6986 543.7 231.5986 546.9 228.8986Z"/>
<path transform="translate(0,0)" style="fill: rgb(0,0,0)" stroke-linecap="round" d="M594.6 374.8986L594.6 320.5986 582.2 320.5986 582.2 374.2986C582.2 376.2986 581.8 378.1986 581 379.8986 580.2 381.5986 579 382.9986 577.5 384.2986 576 385.4986 574.2 386.4986 572.1 387.1986 570 387.8986 567.7 388.1986 565.1 388.1986 562.5 388.1986 560.1 387.8986 558 387.1986 555.9 386.4986 554 385.5986 552.5 384.2986 551 383.0986 549.8 381.5986 548.9 379.8986 548.1 378.1986 547.6 376.2986 547.6 374.2986L547.6 320.5986 535.2 320.5986 535.2 374.8986C535.2 378.3986 535.9 381.5986 537.3 384.4986 538.7 387.4986 540.7 389.9986 543.3 392.1986 545.9 394.3986 549.1 396.0986 552.7 397.2986 556.4 398.4986 560.5 399.0986 565 399.0986 569.4 399.0986 573.4 398.4986 577 397.2986 580.6 396.0986 583.8 394.3986 586.3 392.1986 588.9 389.9986 590.9 387.4986 592.3 384.4986 593.9 381.5986 594.6 378.2986 594.6 374.8986Z"/>
<path transform="translate(0,0)" style="fill: rgb(0,0,0)" stroke-linecap="round" d="M334.1999 268.4986L333.6999 275.2986C333.5999 276.1986 333.6999 277.0986 334.0999 277.9986 334.3999 278.7986 334.8999 279.5986 335.5999 280.1986 336.2999 280.7986 337.0999 281.3986 337.9999 281.7986 338.9999 282.1986 340.0999 282.4986 341.2999 282.5986 342.4999 282.6986 343.5999 282.5986 344.5999 282.3986 345.5999 282.0986 346.4999 281.7986 347.2999 281.1986 347.4999 280.9986 347.6999 280.8986 347.8999 280.6986 348.0999 280.8986 348.1999 281.0986 348.3999 281.2986 349.0999 281.8986 349.8999 282.4986 350.8999 282.8986 351.8999 283.2986 352.9999 283.5986 354.1999 283.6986 355.3999 283.7986 356.4999 283.6986 357.4999 283.4986 358.4999 283.1986 359.3999 282.8986 360.1999 282.2986 360.9999 281.7986 361.5999 281.0986 361.9999 280.2986 362.4999 279.4986 362.6999 278.6986 362.7999 277.6986L363.2999 270.8986 359.8999 270.5986 359.3999 277.1986C359.3999 277.6986 359.1999 278.1986 358.8999 278.6986 358.5999 279.0986 358.2999 279.4986 357.7999 279.7986 357.3999 280.0986 356.7999 280.2986 356.2999 280.4986 355.6999 280.5986 355.0999 280.6986 354.3999 280.5986 353.6999 280.4986 353.0999 280.3986 352.4999 280.1986 351.8999 279.9986 351.4999 279.6986 351.0999 279.2986 350.6999 278.8986 350.3999 278.4986 350.1999 277.9986 349.9999 277.4986 349.8999 276.9986 349.9999 276.3986L350.4999 269.7986 350.4999 269.7986 350.4999 269.7986 347.0999 269.4986 346.5999 276.0986C346.5999 276.5986 346.3999 277.0986 346.0999 277.5986 345.7999 277.9986 345.4999 278.3986 345.0999 278.6986 344.6999 278.9986 344.0999 279.1986 343.5999 279.3986 342.9999 279.4986 342.3999 279.5986 341.6999 279.4986 340.9999 279.3986 340.3999 279.2986 339.7999 279.0986 339.1999 278.8986 338.7999 278.5986 338.3999 278.1986 337.9999 277.7986 337.6999 277.3986 337.4999 276.8986 337.2999 276.3986 337.1999 275.8986 337.2999 275.2986L337.7999 268.6986 334.1999 268.4986Z"/>
<path transform="translate(0,0)" style="fill: rgb(0,0,0)" stroke-linecap="round" d="M372.6 228.2986L424.1 228.2986C424.1 228.2986 418.3 224.8986 415 214.6986 411.6 204.1986 412.6 202.6986 412.6 202.6986L377.2 202.6986 377.2 56.0986C377.2 53.1986 374.9 50.8986 372 50.8986L361.8 50.8986C358.9 50.8986 356.6 53.1986 356.6 56.0986L356.6 223.1986C356.6 226.0986 358.9 228.3986 361.8 228.3986L372 228.3986C372.2 228.3986 372.4 228.2986 372.6 228.2986Z"/>
<path transform="translate(0,0)" style="fill: rgb(0,0,0)" stroke-linecap="round" d="M291 259.1986C288.7 259.1986 286.8 261.0986 286.8 263.3986L286.8 394.9986C286.8 397.2986 288.7 399.1986 291 399.1986L299.1 399.1986C301.4 399.1986 303.3 397.2986 303.3 394.9986L303.3 263.3986C303.3 261.0986 301.4 259.1986 299.1 259.1986L291 259.1986Z"/>
<path transform="translate(0,0)" style="fill: rgb(0,0,0)" stroke-linecap="round" d="M169.7 241.9986C179.4 246.0986 190.2 248.0986 201.8 248.0986 213.8 248.0986 224.7 245.9986 234.5 241.7986 244.3 237.5986 252.7 231.6986 259.7 223.9986 266.7 216.3986 272.1 207.2986 275.9 196.6986 279.7 186.0986 281.6 174.3986 281.6 161.5986 281.6 149.1986 279.8 137.6986 276.1 127.0986 272.5 116.4986 267.2 107.3986 260.3 99.6986 253.4 91.9986 245.1 85.9986 235.2 81.5986 225.3 77.2986 214.2 75.0986 201.8 75.0986 188.6 75.0986 177 77.3986 167 81.8986 157 86.3986 148.7 92.5986 142.1 100.3986 135.4 108.1986 130.4 117.3986 127.1 127.7986 123.8 138.2986 122.1 149.4986 122.1 161.4986 122.1 174.5986 124.1 186.4986 128 197.1986 128.8 199.1986 129.6 201.1986 130.5 203.0986L103 203.0986C103 203.0986 104 204.5986 100.6 215.0986 97.3 225.2986 91.5 228.6986 91.5 228.6986L148.9 228.6986C154.9 234.2986 161.9 238.6986 169.7 241.9986ZM152.6 136.6986C155 129.0986 158.5 122.5986 163 117.1986 167.5 111.6986 173.1 107.4986 179.6 104.4986 186.1 101.4986 193.5 99.9986 201.9 99.9986 210.1 99.9986 217.5 101.4986 224.1 104.4986 230.7 107.4986 236.2 111.7986 240.7 117.1986 245.2 122.6986 248.7 129.1986 251.1 136.6986 253.5 144.2986 254.7 152.5986 254.7 161.5986 254.7 170.5986 253.5 178.7986 251.1 186.3986 248.7 193.9986 245.2 200.4986 240.7 205.8986 236.2 211.3986 230.6 215.5986 224.1 218.6986 217.5 221.7986 210.1 223.2986 201.9 223.2986 193.6 223.2986 186.1 221.7986 179.6 218.6986 173.1 215.5986 167.6 211.3986 163 205.8986 158.5 200.3986 155 193.8986 152.6 186.3986 150.2 178.7986 149 170.5986 149 161.5986 149 152.5986 150.2 144.1986 152.6 136.6986Z"/>
<path transform="translate(0,0)" style="fill: rgb(0,0,0)" stroke-linecap="round" d="M711 322.9986C708.7 316.2986 705.4 310.5986 701.1 305.6986 696.8 300.7986 691.5 297.0986 685.3 294.2986 679.1 291.5986 672.1 290.1986 664.3 290.1986 656 290.1986 648.7 291.5986 642.4 294.4986 636.1 297.3986 630.9 301.1986 626.7 306.1986 622.5 311.0986 619.4 316.8986 617.3 323.4986 615.2 330.0986 614.1 337.1986 614.1 344.6986 614.1 352.9986 615.3 360.4986 617.8 367.0986 618.2 368.2986 618.8 369.3986 619.3 370.4986L600.8 370.4986C600.8 370.4986 601.7 371.7986 598.8 380.6986 596 389.3986 591.1 392.2986 591.1 392.2986L638.3 392.2986C640.1 393.3986 642 394.3986 644.1 395.1986 650.2 397.7986 657 398.9986 664.3 398.9986 671.8 398.9986 678.7 397.6986 684.9 394.9986 691.1 392.2986 696.3 388.5986 700.7 383.7986 705.1 378.9986 708.5 373.2986 710.9 366.5986 713.3 359.8986 714.5 352.5986 714.5 344.4986 714.5 336.8986 713.3 329.6986 711 322.9986ZM695.3 360.2986C693.8 365.0986 691.6 369.1986 688.8 372.5986 685.9 375.9986 682.5 378.6986 678.3 380.6986 674.2 382.5986 669.5 383.5986 664.3 383.5986 659 383.5986 654.4 382.5986 650.3 380.6986 646.2 378.7986 642.7 376.0986 639.9 372.5986 637 369.1986 634.9 365.0986 633.4 360.2986 631.9 355.4986 631.1 350.2986 631.1 344.6986 631.1 338.9986 631.8 333.7986 633.4 328.9986 634.9 324.1986 637.1 320.0986 639.9 316.6986 642.8 313.2986 646.2 310.5986 650.3 308.6986 654.4 306.7986 659.1 305.7986 664.3 305.7986 669.5 305.7986 674.1 306.7986 678.3 308.6986 682.4 310.5986 685.9 313.2986 688.8 316.6986 691.7 320.0986 693.8 324.1986 695.3 328.9986 696.8 333.7986 697.6 338.9986 697.6 344.6986 697.5 350.3986 696.8 355.5986 695.3 360.2986Z"/>
<path transform="translate(0,0)" style="fill: rgb(0,0,0)" stroke-linecap="round" d="M172.5 305.6986C168.2 300.7986 162.9 297.0986 156.7 294.2986 150.5 291.5986 143.5 290.1986 135.7 290.1986 127.4 290.1986 120.1 291.5986 113.8 294.4986 107.5 297.3986 102.3 301.1986 98.1 306.1986 93.9 311.0986 90.7 316.8986 88.7 323.4986 86.6 330.0986 85.5 337.1986 85.5 344.6986 85.5 352.9986 86.7 360.4986 89.2 367.0986 91.7 373.7986 95.2 379.4986 99.6 384.2986 104 389.0986 109.3 392.6986 115.4 395.2986 121.5 397.8986 128.3 399.0986 135.6 399.0986 143.1 399.0986 150 397.7986 156.2 395.0986 162.4 392.3986 167.6 388.6986 172 383.8986 176.4 379.0986 179.8 373.3986 182.2 366.6986 184.6 359.9986 185.8 352.6986 185.8 344.5986 185.8 336.7986 184.6 329.5986 182.4 322.8986 180.2 316.3986 176.9 310.5986 172.5 305.6986ZM166.7 360.2986C165.2 365.0986 163 369.1986 160.2 372.5986 157.3 375.9986 153.8 378.6986 149.7 380.6986 145.6 382.5986 140.9 383.5986 135.7 383.5986 130.4 383.5986 125.8 382.5986 121.7 380.6986 117.6 378.7986 114.1 376.0986 111.3 372.5986 108.4 369.1986 106.3 365.0986 104.8 360.2986 103.3 355.4986 102.5 350.2986 102.5 344.6986 102.5 338.9986 103.3 333.7986 104.8 328.9986 106.3 324.1986 108.5 320.0986 111.3 316.6986 114.2 313.2986 117.6 310.5986 121.7 308.6986 125.8 306.7986 130.5 305.7986 135.7 305.7986 140.9 305.7986 145.5 306.7986 149.7 308.6986 153.8 310.5986 157.3 313.2986 160.2 316.6986 163.1 320.0986 165.2 324.1986 166.7 328.9986 168.2 333.7986 169 338.9986 169 344.6986 169 350.3986 168.2 355.5986 166.7 360.2986Z"/>
<circle transform="translate(0,0)" style="fill: rgb(0,0,0)" cx="563.4" cy="297.2986" r="15.7"/>
<path transform="translate(0,0)" style="fill: rgb(0,0,0)" stroke-linecap="round" d="M694.2 75.6986L386.2 75.6986 386.2 96.2986 694.2 96.2986C697.1 96.2986 699.4 93.9986 699.4 91.0986L699.4 80.8986C699.4 77.9986 697.1 75.6986 694.2 75.6986Z"/>
<path transform="translate(0,0)" style="fill: rgb(0,0,0)" stroke-linecap="round" d="M316.5 75.6986C313.6 75.6986 311.3 77.9986 311.3 80.8986L311.3 91.0986C311.3 91.4986 311.3 91.7986 311.4 92.1986L311.4 203.1986 278.8 203.1986C278.8 203.1986 279.8 204.6986 276.4 215.1986 273.1 225.3986 267.3 228.7986 267.3 228.7986L327.9 228.7986 327.9 228.6986C330.3 228.1986 332 226.0986 332 223.5986L332 96.2986 347.4 96.2986 347.4 75.6986 316.5 75.6986Z"/>
</svg>