<?xml version="1.0" encoding="UTF-8" standalone="no"?><!DOCTYPE svg PUBLIC "-//W3C//DTD SVG 1.1//EN" "http://www.w3.org/Graphics/SVG/1.1/DTD/svg11.dtd"><svg xmlns="http://www.w3.org/2000/svg" xmlns:xlink="http://www.w3.org/1999/xlink" version="1.1" width="800" height="500" viewBox="0 0 800 500">
<desc>Created with SVGMaker Editor 2.2.3</desc>
<defs>
</defs>
<path transform="translate(0,0)" style="fill: rgb(0,0,0)" stroke-linecap="round" d="M 207.7 187.7 C 207.9 187.9 208.2 188 208.5 188 L 225.7 188 L 225.7 166.3 L 227.9 166.3 L 227.9 188 L 231.7 188 L 231.7 190.2 L 208.4 190.2 C 207.4 190.2 206.6 189.9 206 189.2 C 205.4 188.6 205 187.8 205 186.8 L 205 177.4 L 207.2 177.4 L 207.2 186.8 C 207.3 187.2 207.5 187.5 207.7 187.7 Z M 218.8 166.7 L 220 167.8 L 216 171.7 C 216.5 171.8 217 171.9 217.5 172.1 C 218 172.2 218.4 172.5 218.7 172.8 C 219.1 173.1 219.3 173.5 219.6 173.9 C 219.8 174.3 219.9 174.9 219.9 175.6 L 219.9 178.9 L 212.1 178.9 L 212.1 177.3 L 218.4 177.3 L 218.4 175.6 C 218.4 175 218.3 174.6 218 174.3 C 217.7 174 217.4 173.7 217 173.6 C 216.6 173.5 216.1 173.3 215.6 173.3 C 215.1 173.3 214.6 173.2 214.2 173.2 L 213.8 171.8 L 218.8 166.7 Z"/>
<path transform="translate(0,0)" style="fill: rgb(0,0,0)" stroke-linecap="round" d="M 238.2 166.3 L 238.2 190.3 L 231.5 190.3 C 231.2 190.3 230.9 190.2 230.7 190 C 230.5 189.8 230.4 189.5 230.4 189.2 C 230.4 188.9 230.5 188.6 230.7 188.4 C 230.9 188.2 231.2 188.1 231.5 188.1 L 236 188.1 L 236 166.4 L 238.2 166.4 Z"/>
<path transform="translate(0,0)" style="fill: rgb(0,0,0)" stroke-linecap="round" d="M 249.3 187.8 L 247 187.8 L 244.7 168.5 L 247 168.5 L 249.3 187.8 Z M 258.3 166.3 L 258.3 188 L 262.6 188 L 262.6 190.2 L 258 190.2 C 257.6 191.7 256.9 192.7 255.7 193.3 C 254.6 193.9 253.2 194.2 251.7 194.2 C 250.1 194.2 248.4 193.9 246.6 193.3 L 247.3 191.2 C 248 191.4 248.7 191.6 249.4 191.7 C 250.1 191.8 250.8 191.9 251.5 191.9 C 252.1 191.9 252.7 191.8 253.2 191.7 C 253.8 191.6 254.2 191.4 254.7 191.1 C 255.1 190.8 255.4 190.4 255.7 189.9 C 255.9 189.4 256.1 188.8 256.1 188.1 L 256.1 166.2 L 258.3 166.2 Z"/>
<path transform="translate(0,0)" style="fill: rgb(0,0,0)" stroke-linecap="round" d="M 276.6 178 C 277.3 178.7 277.6 179.4 277.6 180.4 L 277.6 188 L 283.4 188 L 283.4 180.4 C 283.4 178.4 282.9 176.9 282 176.1 C 281 175.2 279.8 174.8 278.4 174.8 C 277.3 174.8 276.1 175 274.8 175.3 C 274.7 175 274.6 174.7 274.6 174.4 C 274.5 174.1 274.5 173.8 274.4 173.5 C 275.3 173.2 276.1 173 276.9 172.9 C 277.7 172.8 278.4 172.7 279.1 172.7 C 281.1 172.7 282.7 173.3 283.9 174.6 C 285.1 175.9 285.7 177.8 285.7 180.6 L 285.7 190.4 L 262.4 190.4 C 262.1 190.4 261.8 190.3 261.6 190.1 C 261.4 189.9 261.3 189.6 261.3 189.3 C 261.3 189 261.4 188.7 261.6 188.5 C 261.8 188.3 262.1 188.2 262.4 188.2 L 267.5 188.2 C 266.5 187 266 185.6 266 184 C 266 183.1 266.2 182.3 266.5 181.5 C 266.8 180.7 267.3 180 267.9 179.3 C 268.5 178.7 269.2 178.2 270 177.8 C 270.8 177.4 271.7 177.2 272.6 177.2 L 274.3 177.2 C 275.1 177 275.9 177.3 276.6 178 Z M 270.8 179.6 C 270.3 179.9 269.8 180.2 269.4 180.6 C 269 181 268.7 181.5 268.5 182.1 C 268.3 182.7 268.2 183.2 268.2 183.8 C 268.2 184.9 268.6 185.9 269.4 186.7 C 270.2 187.5 271.2 187.9 272.6 187.9 L 275.4 187.9 L 275.4 180.3 C 275.4 180 275.3 179.7 275.1 179.5 C 274.9 179.3 274.6 179.2 274.3 179.2 L 272.6 179.2 C 271.9 179.2 271.3 179.4 270.8 179.6 Z"/>
<path transform="translate(0,0)" style="fill: rgb(0,0,0)" stroke-linecap="round" d="M 306.9 161.2 L 306.9 162.3 L 298.9 163.4 L 298.9 162.3 L 306.9 161.2 Z M 302.9 165.5 C 303.1 165.5 303.2 165.5 303.4 165.4 C 303.4 165.5 303.4 165.7 303.4 165.8 L 303.4 166.1 C 303.4 166.8 303.5 167.3 303.8 167.6 C 304 167.9 304.3 168.1 304.5 168.1 C 304.7 168.1 304.9 167.9 305.1 167.6 C 305.3 167.3 305.4 166.8 305.4 166.1 C 305.4 166 305.4 165.8 305.4 165.6 C 305.4 165.4 305.4 165.2 305.3 165 C 305.7 164.9 306.1 164.9 306.4 164.8 C 306.4 164.9 306.4 165.1 306.4 165.3 L 306.4 165.9 C 306.4 166.8 306.2 167.6 305.9 168.2 C 305.6 168.8 305.1 169.1 304.4 169.1 C 304.1 169.1 303.9 169 303.6 168.9 C 303.3 168.7 303.1 168.5 303 168.3 C 302.9 168.7 302.6 169 302.3 169.3 C 302 169.5 301.7 169.7 301.4 169.7 C 300.8 169.7 300.3 169.5 299.9 169 C 299.5 168.5 299.3 167.9 299.3 167.1 C 299.3 166.8 299.3 166.4 299.4 166.1 L 300.5 165.9 L 300.4 166.5 C 300.4 166.7 300.4 166.9 300.4 167.1 C 300.4 167.6 300.5 167.9 300.7 168.2 C 300.9 168.5 301.1 168.6 301.3 168.6 C 301.5 168.6 301.8 168.4 302 168.1 C 302.2 167.8 302.3 167.2 302.3 166.6 L 302.3 166.1 C 302.3 165.9 302.3 165.8 302.3 165.6 C 302.6 165.6 302.7 165.5 302.9 165.5 Z"/>
<path transform="translate(0,0)" style="fill: rgb(0,0,0)" stroke-linecap="round" d="M 319.4 188 L 319.4 190.2 L 315.6 190.2 L 315.6 193.6 C 315.6 194.6 315.3 195.4 314.6 196 C 313.9 196.6 313.2 197 312.2 197 L 307.3 197 C 306.2 197 305.2 196.8 304.3 196.4 C 303.3 196 302.5 195.4 301.8 194.7 C 301.1 194 300.5 193.1 300.1 192.2 C 299.7 191.2 299.5 190.2 299.5 189.2 L 299.5 182.9 L 301.7 182.9 L 301.7 189.2 C 301.7 190 301.8 190.7 302.1 191.4 C 302.4 192.1 302.8 192.7 303.3 193.2 C 303.8 193.7 304.4 194.1 305.1 194.4 C 305.8 194.7 306.5 194.8 307.3 194.8 L 312.2 194.8 C 312.5 194.8 312.8 194.7 313 194.5 C 313.2 194.3 313.3 194 313.3 193.7 L 313.3 166.4 L 315.5 166.4 L 315.5 188 L 319.4 188 Z"/>
<path transform="translate(0,0)" style="fill: rgb(0,0,0)" stroke-linecap="round" d="M 333.5 178 C 334.2 178.7 334.5 179.4 334.5 180.4 L 334.5 188 L 340.3 188 L 340.3 180.4 C 340.3 178.4 339.8 176.9 338.9 176.1 C 337.9 175.2 336.7 174.8 335.3 174.8 C 334.2 174.8 333 175 331.7 175.3 C 331.6 175 331.5 174.7 331.5 174.4 C 331.4 174.1 331.4 173.8 331.3 173.5 C 332.2 173.2 333 173 333.8 172.9 C 334.6 172.8 335.3 172.7 336 172.7 C 338 172.7 339.6 173.3 340.8 174.6 C 342 175.9 342.6 177.8 342.6 180.6 L 342.6 190.4 L 319.3 190.4 C 319 190.4 318.7 190.3 318.5 190.1 C 318.3 189.9 318.2 189.6 318.2 189.3 C 318.2 189 318.3 188.7 318.5 188.5 C 318.7 188.3 319 188.2 319.3 188.2 L 324.4 188.2 C 323.4 187 322.9 185.6 322.9 184 C 322.9 183.1 323.1 182.3 323.4 181.5 C 323.7 180.7 324.2 180 324.8 179.3 C 325.4 178.7 326.1 178.2 326.9 177.8 C 327.7 177.4 328.6 177.2 329.5 177.2 L 331.2 177.2 C 332 177 332.8 177.3 333.5 178 Z M 327.6 179.6 C 327.1 179.9 326.6 180.2 326.2 180.6 C 325.8 181 325.5 181.5 325.3 182.1 C 325.1 182.7 325 183.2 325 183.8 C 325 184.9 325.4 185.9 326.2 186.7 C 327 187.5 328 187.9 329.4 187.9 L 332.2 187.9 L 332.2 180.3 C 332.2 180 332.1 179.7 331.9 179.5 C 331.7 179.3 331.4 179.2 331.1 179.2 L 329.4 179.2 C 328.8 179.2 328.2 179.4 327.6 179.6 Z"/>
<path transform="translate(0,0)" style="fill: rgb(0,0,0)" stroke-linecap="round" d="M 216.6 239.4 C 215.9 240 215.2 240.4 214.2 240.4 L 208.8 240.4 C 207.7 240.4 206.7 240.2 205.8 239.8 C 204.8 239.4 204 238.8 203.3 238.1 C 202.6 237.4 202 236.5 201.6 235.6 C 201.2 234.6 201 233.6 201 232.6 L 201 226.3 L 203.2 226.3 L 203.2 232.6 C 203.2 233.4 203.3 234.1 203.6 234.8 C 203.9 235.5 204.3 236.1 204.8 236.6 C 205.3 237.1 205.9 237.5 206.6 237.8 C 207.3 238.1 208 238.2 208.8 238.2 L 214.2 238.2 C 214.5 238.2 214.8 238.1 215 237.9 C 215.2 237.7 215.3 237.4 215.3 237.1 L 215.3 221.9 L 217.5 221.9 L 217.5 237 C 217.6 237.9 217.2 238.7 216.6 239.4 Z M 211 216.2 L 209.4 217.8 L 207.2 215.6 L 208.8 214 L 211 216.2 Z"/>
<path transform="translate(0,0)" style="fill: rgb(0,0,0)" stroke-linecap="round" d="M 226.5 233.6 L 230.8 233.6 L 230.8 235.8 L 224.3 235.8 L 224.3 211.8 L 226.5 211.8 L 226.5 233.6 Z"/>
<path transform="translate(0,0)" style="fill: rgb(0,0,0)" stroke-linecap="round" d="M 229.7 233.9 C 229.9 233.7 230.2 233.6 230.5 233.6 L 239.7 233.6 L 239.7 235.8 L 230.5 235.8 C 230.2 235.8 229.9 235.7 229.7 235.5 C 229.5 235.3 229.4 235 229.4 234.7 C 229.4 234.4 229.5 234.1 229.7 233.9 Z"/>
<path transform="translate(0,0)" style="fill: rgb(0,0,0)" stroke-linecap="round" d="M 238.7 233.9 C 238.9 233.7 239.2 233.6 239.5 233.6 L 248.7 233.6 L 248.7 235.8 L 239.5 235.8 C 239.2 235.8 238.9 235.7 238.7 235.5 C 238.5 235.3 238.4 235 238.4 234.7 C 238.4 234.4 238.5 234.1 238.7 233.9 Z"/>
<path transform="translate(0,0)" style="fill: rgb(0,0,0)" stroke-linecap="round" d="M 247.7 233.9 C 247.9 233.7 248.2 233.6 248.5 233.6 L 257.7 233.6 L 257.7 235.8 L 248.5 235.8 C 248.2 235.8 247.9 235.7 247.7 235.5 C 247.5 235.3 247.4 235 247.4 234.7 C 247.3 234.4 247.4 234.1 247.7 233.9 Z"/>
<path transform="translate(0,0)" style="fill: rgb(0,0,0)" stroke-linecap="round" d="M 261 222.2 L 263.2 222.2 L 263.2 229.5 C 265.2 227.8 266.9 226.4 268.2 225.4 C 269.5 224.4 270.7 223.6 271.6 223.1 C 272.5 222.6 273.3 222.3 274 222.1 C 274.7 222 275.3 221.9 275.9 221.9 C 276.7 221.9 277.5 222.1 278.3 222.4 C 279 222.7 279.7 223.1 280.2 223.7 C 280.8 224.3 281.2 224.9 281.5 225.6 C 281.8 226.3 282 227.1 282 228 L 282 233.6 L 285.4 233.6 L 285.4 235.8 L 257.4 235.8 C 257.1 235.8 256.8 235.7 256.6 235.5 C 256.4 235.3 256.3 235 256.3 234.7 C 256.3 234.4 256.4 234.1 256.6 233.9 C 256.8 233.7 257.1 233.6 257.4 233.6 L 261 233.6 L 261 222.2 Z M 263.2 233.6 L 279.8 233.6 L 279.8 228 C 279.8 227.5 279.7 227 279.5 226.5 C 279.3 226 279 225.6 278.7 225.3 C 278.4 225 278 224.7 277.5 224.5 C 277 224.3 276.5 224.2 276 224.2 C 275.6 224.2 275.2 224.2 274.8 224.3 C 274.4 224.4 273.9 224.5 273.4 224.8 C 272.8 225.1 272.2 225.5 271.3 226 C 270.5 226.5 269.5 227.3 268.3 228.2 L 263.2 232.2 L 263.2 233.6 Z M 275 216.2 L 273.4 217.8 L 271.2 215.6 L 272.8 214 L 275 216.2 Z"/>
<path transform="translate(0,0)" style="fill: rgb(0,0,0)" stroke-linecap="round" d="M 284.4 233.9 C 284.6 233.7 284.9 233.6 285.2 233.6 L 294.4 233.6 L 294.4 235.8 L 285.2 235.8 C 284.9 235.8 284.6 235.7 284.4 235.5 C 284.2 235.3 284.1 235 284.1 234.7 C 284.1 234.4 284.2 234.1 284.4 233.9 Z"/>
<path transform="translate(0,0)" style="fill: rgb(0,0,0)" stroke-linecap="round" d="M 293.3 235.5 C 293.1 235.3 293 235 293 234.7 C 293 234.4 293.1 234.1 293.3 233.9 C 293.5 233.7 293.8 233.6 294.1 233.6 L 297.7 233.6 L 297.7 228.7 C 297.7 227.8 297.9 227 298.3 226.3 C 298.7 225.6 299.2 225 299.8 224.5 C 300.4 224 301.2 223.7 302 223.4 C 302.8 223.2 303.7 223 304.6 223 C 305.7 223 306.7 223.2 307.8 223.5 C 308.9 223.9 309.8 224.4 310.7 225.1 L 310.7 231.8 C 310.7 232.8 310.5 233.6 310.2 234.4 C 309.9 235.1 309.4 235.7 308.8 236.2 C 308.2 236.7 307.6 237 306.8 237.2 C 306.1 237.4 305.3 237.5 304.5 237.5 C 303.5 237.5 302.6 237.4 301.6 237.1 C 300.6 236.8 299.8 236.4 299 235.8 L 294.1 235.8 C 293.8 235.9 293.5 235.7 293.3 235.5 Z M 302.3 235.1 C 303.1 235.3 303.8 235.4 304.5 235.4 C 305 235.4 305.5 235.3 306 235.2 C 306.5 235.1 306.9 234.9 307.3 234.6 C 307.7 234.3 307.9 234 308.2 233.5 C 308.4 233.1 308.5 232.6 308.5 232 L 308.5 226.4 C 307.2 225.7 305.9 225.4 304.6 225.4 C 304 225.4 303.4 225.5 302.9 225.6 C 302.3 225.7 301.8 226 301.4 226.2 C 301 226.5 300.6 226.8 300.4 227.3 C 300.1 227.7 300 228.2 300 228.7 L 300 234 C 300.7 234.5 301.5 234.9 302.3 235.1 Z"/>
<path transform="translate(0,0)" style="fill: rgb(0,0,0)" stroke-linecap="round" d="M 321 221.7 L 321 236.5 C 321 238.7 320.5 240.3 319.5 241.4 C 318.5 242.5 317.1 243 315.3 243 C 313.9 243 312.2 242.7 310.3 242 C 310.3 241.9 310.4 241.8 310.5 241.6 C 310.6 241.4 310.7 241.2 310.7 241 C 310.8 240.8 310.9 240.6 310.9 240.4 C 311 240.2 311 240.1 311.1 240 C 312.5 240.5 313.8 240.8 315 240.8 C 316.1 240.8 317 240.5 317.7 239.9 C 318.4 239.3 318.8 238.2 318.8 236.6 L 318.8 221.8 L 321 221.8 Z"/>
<path transform="translate(0,0)" style="fill: rgb(0,0,0)" stroke-linecap="round" d="M 330.4 233.6 L 334.7 233.6 L 334.7 235.8 L 328.2 235.8 L 328.2 211.8 L 330.4 211.8 L 330.4 233.6 Z"/>
<path transform="translate(0,0)" style="fill: rgb(0,0,0)" stroke-linecap="round" d="M 343 221.7 L 343 235.8 L 334.5 235.8 C 334.2 235.8 333.9 235.7 333.7 235.5 C 333.5 235.3 333.4 235 333.4 234.7 C 333.4 234.4 333.5 234.1 333.7 233.9 C 333.9 233.7 334.2 233.6 334.5 233.6 L 340.8 233.6 L 340.8 221.7 L 343 221.7 Z M 338.4 240.9 L 336.8 242.5 L 334.6 240.3 L 336.2 238.7 L 338.4 240.9 Z M 343.8 240.9 L 342.2 242.5 L 340 240.3 L 341.6 238.7 L 343.8 240.9 Z"/>
<path transform="translate(0,0)" style="fill: rgb(0,0,0)" stroke-linecap="round" d="M 392 199.9 L 369.4 177.3 C 369.1 177 369.1 176.6 369.4 176.3 L 392 153.7 C 392.3 153.4 392.7 153.4 393 153.7 L 415.6 176.3 C 415.9 176.6 415.9 177 415.6 177.3 L 393 199.9 C 392.7 200.2 392.2 200.2 392 199.9 Z"/>
<path transform="translate(0,0)" style="fill: rgb(0,0,0)" stroke-linecap="round" d="M 466.9 151.6 C 474.7 158.8 481.8 157.9 491.1 158.1 C 507.2 158.5 523 160.4 537.9 166.9 C 548.5 171.5 558 177.6 563.6 188.1 C 568.7 197.5 571.9 203 571.5 214 C 571.5 215.1 572.2 216.4 573 217.2 C 581.6 225.8 590 241.3 593.4 253 C 595.4 259.9 597.2 267.2 596.9 277.3 C 596.9 277.5 596.6 277.5 596.6 277.3 C 593.3 261.5 586.1 247.7 574 235.6 C 574 237.5 573.9 238.6 574 239.7 C 574.9 251.3 572.1 262.2 568.2 272.9 C 564.9 282 558 287.6 549.5 291.3 C 546 292.8 545 294.8 545.2 298.5 C 547.4 337.1 534.2 370.6 509.2 399.2 C 477.5 435.6 436.5 452.8 388.6 452.9 C 335.6 453 285.6 434.7 245.6 399.6 C 228.4 384.4 215.6 366.2 206.3 345.2 C 204.7 341.7 202.6 339.9 204.6 337.7 C 207.6 342.9 212.3 349.1 215.4 354.2 C 235.8 387.3 265.1 409.2 301.7 421.2 C 358.4 439.8 416.4 435.6 467.8 404.8 C 503.8 383.2 527.1 351.5 536.9 310.2 C 539.5 299.3 539.1 288.2 538.8 277.1 C 538.8 275.8 538.9 274.6 538.8 273.3 C 538.6 269.9 540.2 267.8 543.4 266.6 C 556.5 261.6 563.3 251.4 566 238.1 C 566.2 237 565.7 232.1 565 231.5 C 559.7 227 551 225 544.4 223.3 C 533.4 220.4 522.1 220.7 510.9 219 C 500.5 217.4 492.4 214.6 483.9 208.4 C 478.6 204.6 475.4 199.5 472.1 193.9 C 459.9 173.5 466.6 151.3 466.9 151.6 Z M 478.5 179.4 C 478.5 179.4 478.4 179.4 478.5 179.4 C 478 179.3 477 179.1 477 179.2 C 480.1 183.4 483.2 186.6 487.6 189.3 C 498.2 195.6 510 197.4 521.9 198.8 C 533.4 200.1 544.9 201 555.7 205.6 C 557 206.1 558.3 206.7 559.6 207.2 C 558 204.3 556.2 201.8 554 199.8 C 544.6 190.9 532.9 186 520.6 183.8 C 506 181 493.3 181 478.5 179.4 Z"/>
<path transform="translate(0,0)" style="fill: rgb(0,0,0)" stroke-linecap="round" d="M 422.7 85.4 C 435.2 91.7 447.9 91.3 460.4 91.8 C 477 92.4 493.1 94.9 508 102.6 C 520.4 109.1 531.8 119.1 535.8 132.8 C 536.1 133.7 536.7 134.7 537.5 135.3 C 568.6 159 576.3 220.2 576.2 225.6 C 575.9 225.8 571 222.3 570.7 222.5 C 570.2 221.6 571.7 210.9 571.2 210 C 568.2 204.5 556.6 173.2 553.6 167.7 C 546.3 154.5 534.8 148.1 520.1 146.7 C 506.5 145.4 492.9 144.4 479.3 143 C 457.6 140.8 444.3 128.1 437.1 108.2 C 436.2 105.6 435 103.8 432.4 102.4 C 426.2 99 424.1 92.8 422.7 85.4 Z M 442.9 105.8 C 442.6 106.1 442.2 106.4 441.9 106.6 C 443.5 109.1 444.8 111.9 446.9 114 C 452 118.9 458.3 121.9 465.2 122.9 C 475.2 124.4 485.4 125.2 495.5 126.3 C 506.4 127.5 517.5 126.9 528.2 131.4 C 527.9 130.5 527.8 130.2 527.7 130 C 527.3 129.4 526.8 128.8 526.3 128.3 C 519.8 120.2 510.6 116.4 501.1 113.1 C 482.1 106.5 462.2 108.7 442.9 105.8 Z"/>
<path transform="translate(0,0)" style="fill: rgb(0,0,0)" stroke-linecap="round" d="M 490.5 229.5 C 490.3 283.2 463.5 334.7 417.7 363.5 C 394.4 378.1 367.3 386.8 339.9 389.2 C 313 391.5 285.7 386.9 260.2 378.1 C 248.7 374.1 237.6 368.9 227.8 361.8 C 222.2 357.7 217 352.9 212.6 347.5 C 210.3 344.7 207.8 341.7 206 338.6 C 205.5 337.7 202 331.5 201.2 332.9 C 200.7 333.7 202.9 338.1 203.1 338.5 C 204.4 341.5 205.9 344.4 207.6 347.2 C 219.8 368.1 235.7 384.7 257.9 394.8 C 269.2 399.9 281.2 403.5 293.3 406.4 C 307.1 409.7 320.9 412 335.1 412.1 C 391.2 412.7 446.9 386.1 477.4 338.3 C 494.1 312.2 502.7 281.5 502.8 250.5 C 502.8 248.8 501.6 246.3 500.9 244.9 C 499.6 241.9 498.1 239 496.4 236.2 C 495.2 234.1 493.9 231.6 492.2 229.9 C 491.9 229.7 490.5 228 490.5 229.5 Z"/>
<path transform="translate(0,0)" style="fill: rgb(0,0,0)" stroke-linecap="round" d="M 426.6 64.8 C 447.8 70 463.3 76.9 481.6 88.4 C 487.7 89.7 496.7 92.4 501.8 95 C 501.9 95.1 502 94.9 501.9 94.8 C 483 74.8 445 57.6 424.2 52.2 C 402.9 46.8 380.8 46.1 359.2 50.2 C 358.3 50.4 363.3 59.7 364.9 59.4 C 386.1 55.4 405.7 59.6 426.6 64.8 Z"/>
<path transform="translate(0,0)" style="fill: rgb(0,0,0)" stroke-linecap="round" d="M 392 272.4 L 356.5 237 C 356.2 236.7 356.2 236.3 356.5 236 L 391.9 200.6 C 392.2 200.3 392.6 200.3 392.9 200.6 L 428.3 236 C 428.6 236.3 428.6 236.7 428.3 237 L 393 272.4 C 392.7 272.7 392.2 272.7 392 272.4 Z"/>
<path transform="translate(0,0)" style="fill: rgb(0,0,0)" stroke-linecap="round" d="M 417.6 81.8 C 417.1 79.8 416.3 75.6 414.8 74 C 402.9 62.2 387.5 57.7 368.6 54.7 C 368.5 54.7 363.9 53.1 363.8 53 L 360.7 50.1 C 360.7 50 360.6 49.9 360.4 49.9 C 357.9 50.1 340.8 52.9 332.7 56.1 C 332.4 56.2 332.5 56.6 332.8 56.6 C 343.2 55.8 383.5 61.1 417.8 86.5 C 418.8 87.3 417.7 82.1 417.6 81.8 Z"/>
<path transform="translate(0,0)" style="fill: rgb(0,0,0); opacity: 0.33" stroke-linecap="round" d="M 567.6 315.7 C 568.9 310.2 570.3 312.9 567 313 C 566.4 313 565.8 312.9 565.3 312.6 C 563.4 311.8 562.3 310 561.9 308.1 C 560.7 303.4 563.6 298.1 565.2 293.8 C 565.8 292.3 564 294.5 563.9 294.7 C 562.9 296.1 562 297.8 561.4 299.4 C 559.5 304.5 554 315.3 561 319.1 C 566.3 322 570.4 314.2 571.4 310.2 C 571.8 308.7 570.3 310.8 570.1 311.1 C 569.1 312.3 568 314.1 567.6 315.7 L 567.6 315.7 Z"/>
<path transform="translate(0,0)" style="fill: rgb(0,0,0); opacity: 0.33" stroke-linecap="round" d="M 426.6 412 C 423.8 415.1 419.3 413.7 418.1 409.8 C 417 406 419.1 401.1 420.8 397.8 C 422.8 393.9 420.2 397 419.3 398.9 C 417.1 403.2 414.2 408.8 414.6 413.7 C 415.1 419.1 420.7 420.8 424.2 416.9 C 425.1 415.9 425.9 414.5 426.5 413.2 C 426.6 413 427.4 411.1 426.6 412 L 426.6 412 Z"/>
<path transform="translate(0,0)" style="fill: rgb(0,0,0); opacity: 0.33" stroke-linecap="round" d="M 527.9 253.1 C 522.7 254.8 519.6 249.6 519.1 245.2 C 518.5 239.9 520.6 234.8 522.8 230.2 C 523.2 229.4 524.3 227.6 522.9 228.3 C 521.5 229 520.1 232.5 519.4 233.9 C 516.8 239.5 513.9 245.6 514.1 251.9 C 514.3 257.1 517.4 263.4 523.5 261.4 C 524.9 261 526.2 257.7 526.8 256.5 C 527.1 256 528.5 252.9 527.9 253.1 L 527.9 253.1 Z"/>
<path transform="translate(0,0)" style="fill: rgb(0,0,0); opacity: 0.33" stroke-linecap="round" d="M 512.1 337.4 C 508.3 341.5 503.4 336.3 502.4 332.6 C 501.2 328 501.9 321.9 503.9 317.5 C 504.3 316.7 505.5 314.7 504 315.5 C 502.5 316.3 501 320 500.3 321.4 C 497.7 327.2 495.7 334.1 497 340.5 C 498.1 345.9 503.8 350.2 508.3 345.3 C 509.8 343.6 511 341.4 512 339.4 C 512.2 338.9 513.4 335.9 512.1 337.4 L 512.1 337.4 Z"/>
<path transform="translate(0,0)" style="fill: rgb(0,0,0); opacity: 0.33" stroke-linecap="round" d="M 550.6 240 L 546 244.6 C 545.8 244.8 545.5 244.8 545.2 244.6 L 540.6 240 C 540.4 239.8 540.4 239.5 540.6 239.2 L 545.2 234.6 C 545.4 234.4 545.7 234.4 546 234.6 L 550.6 239.2 C 550.8 239.4 550.8 239.8 550.6 240 Z"/>
<path transform="translate(0,0)" style="fill: rgb(0,0,0); opacity: 0.33" stroke-linecap="round" d="M 525.1 292.7 L 522.1 295.7 C 521.9 295.9 521.6 295.9 521.3 295.7 L 518.3 292.7 C 518.1 292.5 518.1 292.2 518.3 291.9 L 521.3 288.9 C 521.5 288.7 521.8 288.7 522.1 288.9 L 525.1 291.9 C 525.3 292.1 525.3 292.5 525.1 292.7 Z"/>
<path transform="translate(0,0)" style="fill: rgb(0,0,0); opacity: 0.33" stroke-linecap="round" d="M 511.8 294.6 L 508.8 297.6 C 508.6 297.8 508.3 297.8 508 297.6 L 505 294.6 C 504.8 294.4 504.8 294.1 505 293.8 L 508 290.8 C 508.2 290.6 508.5 290.6 508.8 290.8 L 511.8 293.8 C 512 294 512 294.3 511.8 294.6 Z"/>
<path transform="translate(0,0)" style="fill: rgb(0,0,0); opacity: 0.33" stroke-linecap="round" d="M 514.2 283.5 L 510 287.7 C 509.8 287.9 509.5 287.9 509.2 287.7 L 505 283.5 C 504.8 283.3 504.8 283 505 282.7 L 509.2 278.5 C 509.4 278.3 509.7 278.3 510 278.5 L 514.2 282.7 C 514.5 282.9 514.5 283.3 514.2 283.5 Z"/>
<path transform="translate(0,0)" style="fill: rgb(0,0,0); opacity: 0.33" stroke-linecap="round" d="M 580.7 266.3 L 577.7 269.3 C 577.5 269.5 577.2 269.5 576.9 269.3 L 573.9 266.3 C 573.7 266.1 573.7 265.8 573.9 265.5 L 576.9 262.5 C 577.1 262.3 577.4 262.3 577.7 262.5 L 580.7 265.5 C 580.9 265.8 580.9 266.1 580.7 266.3 Z"/>
<path transform="translate(0,0)" style="fill: rgb(0,0,0); opacity: 0.33" stroke-linecap="round" d="M 581.3 252.2 L 579.4 254.1 C 579.2 254.3 578.9 254.3 578.6 254.1 L 576.7 252.2 C 576.5 252 576.5 251.7 576.7 251.4 L 578.6 249.5 C 578.8 249.3 579.1 249.3 579.4 249.5 L 581.3 251.4 C 581.6 251.7 581.6 252 581.3 252.2 Z"/>
<path transform="translate(0,0)" style="fill: rgb(0,0,0); opacity: 0.33" stroke-linecap="round" d="M 509.1 306.8 L 506.1 309.8 C 505.9 310 505.6 310 505.3 309.8 L 502.3 306.8 C 502.1 306.6 502.1 306.3 502.3 306 L 505.3 303 C 505.5 302.8 505.8 302.8 506.1 303 L 509.1 306 C 509.3 306.3 509.3 306.6 509.1 306.8 Z"/>
<path transform="translate(0,0)" style="fill: rgb(0,0,0); opacity: 0.33" stroke-linecap="round" d="M 519.7 314.9 L 516.7 317.9 C 516.5 318.1 516.2 318.1 515.9 317.9 L 512.9 314.9 C 512.7 314.7 512.7 314.4 512.9 314.1 L 515.9 311.1 C 516.1 310.9 516.4 310.9 516.7 311.1 L 519.7 314.1 C 519.9 314.4 519.9 314.7 519.7 314.9 Z"/>
<path transform="translate(0,0)" style="fill: rgb(0,0,0); opacity: 0.33" stroke-linecap="round" d="M 554.8 320.1 L 551.8 323.1 C 551.6 323.3 551.3 323.3 551 323.1 L 548 320.1 C 547.8 319.9 547.8 319.6 548 319.3 L 551 316.3 C 551.2 316.1 551.5 316.1 551.8 316.3 L 554.8 319.3 C 555 319.6 555 319.9 554.8 320.1 Z"/>
<path transform="translate(0,0)" style="fill: rgb(0,0,0); opacity: 0.33" stroke-linecap="round" d="M 578.9 283.5 L 575.9 286.5 C 575.7 286.7 575.4 286.7 575.1 286.5 L 572.1 283.5 C 571.9 283.3 571.9 283 572.1 282.7 L 575.1 279.7 C 575.3 279.5 575.6 279.5 575.9 279.7 L 578.9 282.7 C 579.1 282.9 579.1 283.3 578.9 283.5 Z"/>
<path transform="translate(0,0)" style="fill: rgb(0,0,0); opacity: 0.33" stroke-linecap="round" d="M 574.7 296.9 L 571.7 299.9 C 571.5 300.1 571.2 300.1 570.9 299.9 L 567.9 296.9 C 567.7 296.7 567.7 296.4 567.9 296.1 L 570.9 293.1 C 571.1 292.9 571.4 292.9 571.7 293.1 L 574.7 296.1 C 574.9 296.4 574.9 296.7 574.7 296.9 Z"/>
<path transform="translate(0,0)" style="fill: rgb(0,0,0); opacity: 0.33" stroke-linecap="round" d="M 563.3 333.1 L 560.3 336.1 C 560.1 336.3 559.8 336.3 559.5 336.1 L 556.5 333.1 C 556.3 332.9 556.3 332.6 556.5 332.3 L 559.5 329.3 C 559.7 329.1 560 329.1 560.3 329.3 L 563.3 332.3 C 563.6 332.6 563.6 332.9 563.3 333.1 Z"/>
<path transform="translate(0,0)" style="fill: rgb(0,0,0); opacity: 0.33" stroke-linecap="round" d="M 553.3 338.1 L 550.3 341.1 C 550.1 341.3 549.8 341.3 549.5 341.1 L 546.5 338.1 C 546.3 337.9 546.3 337.6 546.5 337.3 L 549.5 334.3 C 549.7 334.1 550 334.1 550.3 334.3 L 553.3 337.3 C 553.6 337.5 553.6 337.9 553.3 338.1 Z"/>
<path transform="translate(0,0)" style="fill: rgb(0,0,0); opacity: 0.33" stroke-linecap="round" d="M 528.7 321.9 L 525.7 324.9 C 525.5 325.1 525.2 325.1 524.9 324.9 L 521.9 321.9 C 521.7 321.7 521.7 321.4 521.9 321.1 L 524.9 318.1 C 525.1 317.9 525.4 317.9 525.7 318.1 L 528.7 321.1 C 528.9 321.4 528.9 321.7 528.7 321.9 Z"/>
<path transform="translate(0,0)" style="fill: rgb(0,0,0); opacity: 0.33" stroke-linecap="round" d="M 523.3 333.1 L 520.3 336.1 C 520.1 336.3 519.8 336.3 519.5 336.1 L 516.5 333.1 C 516.3 332.9 516.3 332.6 516.5 332.3 L 519.5 329.3 C 519.7 329.1 520 329.1 520.3 329.3 L 523.3 332.3 C 523.5 332.6 523.5 332.9 523.3 333.1 Z"/>
<path transform="translate(0,0)" style="fill: rgb(0,0,0); opacity: 0.33" stroke-linecap="round" d="M 520.1 347.1 L 517.1 350.1 C 516.9 350.3 516.6 350.3 516.3 350.1 L 513.3 347.1 C 513.1 346.9 513.1 346.6 513.3 346.3 L 516.3 343.3 C 516.5 343.1 516.8 343.1 517.1 343.3 L 520.1 346.3 C 520.3 346.5 520.3 346.9 520.1 347.1 Z"/>
<path transform="translate(0,0)" style="fill: rgb(0,0,0); opacity: 0.33" stroke-linecap="round" d="M 516.2 326 L 513.2 329 C 513 329.2 512.7 329.2 512.4 329 L 509.4 326 C 509.2 325.8 509.2 325.5 509.4 325.2 L 512.4 322.2 C 512.6 322 512.9 322 513.2 322.2 L 516.2 325.2 C 516.4 325.5 516.4 325.8 516.2 326 Z"/>
<path transform="translate(0,0)" style="fill: rgb(0,0,0); opacity: 0.33" stroke-linecap="round" d="M 495.5 326 L 492.5 329 C 492.3 329.2 492 329.2 491.7 329 L 488.7 326 C 488.5 325.8 488.5 325.5 488.7 325.2 L 491.7 322.2 C 491.9 322 492.2 322 492.5 322.2 L 495.5 325.2 C 495.7 325.5 495.7 325.8 495.5 326 Z"/>
<path transform="translate(0,0)" style="fill: rgb(0,0,0); opacity: 0.33" stroke-linecap="round" d="M 499 223.5 L 496 226.5 C 495.8 226.7 495.5 226.7 495.2 226.5 L 492.2 223.5 C 492 223.3 492 223 492.2 222.7 L 495.2 219.7 C 495.4 219.5 495.7 219.5 496 219.7 L 499 222.7 C 499.2 223 499.2 223.3 499 223.5 Z"/>
<path transform="translate(0,0)" style="fill: rgb(0,0,0); opacity: 0.33" stroke-linecap="round" d="M 508.1 232.6 L 505.1 235.6 C 504.9 235.8 504.6 235.8 504.3 235.6 L 501.3 232.6 C 501.1 232.4 501.1 232.1 501.3 231.8 L 504.3 228.8 C 504.5 228.6 504.8 228.6 505.1 228.8 L 508.1 231.8 C 508.3 232 508.3 232.3 508.1 232.6 Z"/>
<path transform="translate(0,0)" style="fill: rgb(0,0,0); opacity: 0.33" stroke-linecap="round" d="M 511.8 240 L 508.8 243 C 508.6 243.2 508.3 243.2 508 243 L 505 240 C 504.8 239.8 504.8 239.5 505 239.2 L 508 236.2 C 508.2 236 508.5 236 508.8 236.2 L 511.8 239.2 C 512 239.4 512 239.8 511.8 240 Z"/>
<path transform="translate(0,0)" style="fill: rgb(0,0,0); opacity: 0.33" stroke-linecap="round" d="M 511.8 151.2 L 508.8 154.2 C 508.6 154.4 508.3 154.4 508 154.2 L 505 151.2 C 504.8 151 504.8 150.7 505 150.4 L 508 147.4 C 508.2 147.2 508.5 147.2 508.8 147.4 L 511.8 150.4 C 512 150.6 512 151 511.8 151.2 Z"/>
<path transform="translate(0,0)" style="fill: rgb(0,0,0); opacity: 0.33" stroke-linecap="round" d="M 452.6 77.6 L 449.6 80.6 C 449.4 80.8 449.1 80.8 448.8 80.6 L 445.8 77.6 C 445.6 77.4 445.6 77.1 445.8 76.8 L 448.8 73.8 C 449 73.6 449.3 73.6 449.6 73.8 L 452.6 76.8 C 452.8 77 452.8 77.4 452.6 77.6 Z"/>
<path transform="translate(0,0)" style="fill: rgb(0,0,0); opacity: 0.33" stroke-linecap="round" d="M 463.4 82.9 L 460.4 85.9 C 460.2 86.1 459.9 86.1 459.6 85.9 L 456.6 82.9 C 456.4 82.7 456.4 82.4 456.6 82.1 L 459.6 79.1 C 459.8 78.9 460.1 78.9 460.4 79.1 L 463.4 82.1 C 463.6 82.4 463.6 82.7 463.4 82.9 Z"/>
<path transform="translate(0,0)" style="fill: rgb(0,0,0); opacity: 0.33" stroke-linecap="round" d="M 554.8 250 L 551.8 253 C 551.6 253.2 551.3 253.2 551 253 L 548 250 C 547.8 249.8 547.8 249.5 548 249.2 L 551 246.2 C 551.2 246 551.5 246 551.8 246.2 L 554.8 249.2 C 555 249.5 555 249.8 554.8 250 Z"/>
<path transform="translate(0,0)" style="fill: rgb(0,0,0); opacity: 0.33" stroke-linecap="round" d="M 539.7 252.5 L 536.7 255.5 C 536.5 255.7 536.2 255.7 535.9 255.5 L 532.9 252.5 C 532.7 252.3 532.7 252 532.9 251.7 L 535.9 248.7 C 536.1 248.5 536.4 248.5 536.7 248.7 L 539.7 251.7 C 539.9 252 539.9 252.3 539.7 252.5 Z"/>
<path transform="translate(0,0)" style="fill: rgb(0,0,0); opacity: 0.33" stroke-linecap="round" d="M 535.6 261.7 L 533.4 263.9 C 533.2 264.1 532.9 264.1 532.6 263.9 L 530.4 261.7 C 530.2 261.5 530.2 261.2 530.4 260.9 L 532.6 258.7 C 532.8 258.5 533.1 258.5 533.4 258.7 L 535.6 260.9 C 535.8 261.2 535.8 261.5 535.6 261.7 Z"/>
<path transform="translate(0,0)" style="fill: rgb(0,0,0); opacity: 0.33" stroke-linecap="round" d="M 540.4 157.1 L 538.2 159.3 C 538 159.5 537.7 159.5 537.4 159.3 L 535.2 157.1 C 535 156.9 535 156.6 535.2 156.3 L 537.4 154.1 C 537.6 153.9 537.9 153.9 538.2 154.1 L 540.4 156.3 C 540.6 156.5 540.6 156.9 540.4 157.1 Z"/>
<path transform="translate(0,0)" style="fill: rgb(0,0,0); opacity: 0.33" stroke-linecap="round" d="M 424.3 69.4 L 422.1 71.6 C 421.9 71.8 421.6 71.8 421.3 71.6 L 419.1 69.4 C 418.9 69.2 418.9 68.9 419.1 68.6 L 421.3 66.4 C 421.5 66.2 421.8 66.2 422.1 66.4 L 424.3 68.6 C 424.5 68.8 424.5 69.1 424.3 69.4 Z"/>
<path transform="translate(0,0)" style="fill: rgb(0,0,0); opacity: 0.33" stroke-linecap="round" d="M 446.6 85 L 444.4 87.2 C 444.2 87.4 443.9 87.4 443.6 87.2 L 441.4 85 C 441.2 84.8 441.2 84.5 441.4 84.2 L 443.6 82 C 443.8 81.8 444.1 81.8 444.4 82 L 446.6 84.2 C 446.8 84.5 446.8 84.8 446.6 85 Z"/>
<path transform="translate(0,0)" style="fill: rgb(0,0,0); opacity: 0.33" stroke-linecap="round" d="M 475.3 88 L 473.1 90.2 C 472.9 90.4 472.6 90.4 472.3 90.2 L 470.1 88 C 469.9 87.8 469.9 87.5 470.1 87.2 L 472.3 85 C 472.5 84.8 472.8 84.8 473.1 85 L 475.3 87.2 C 475.5 87.4 475.5 87.8 475.3 88 Z"/>
<path transform="translate(0,0)" style="fill: rgb(0,0,0); opacity: 0.33" stroke-linecap="round" d="M 484.7 153.1 L 482.5 155.3 C 482.3 155.5 482 155.5 481.7 155.3 L 479.5 153.1 C 479.3 152.9 479.3 152.6 479.5 152.3 L 481.7 150.1 C 481.9 149.9 482.2 149.9 482.5 150.1 L 484.7 152.3 C 484.9 152.5 484.9 152.8 484.7 153.1 Z"/>
<path transform="translate(0,0)" style="fill: rgb(0,0,0); opacity: 0.33" stroke-linecap="round" d="M 503.1 149.2 L 500.9 151.4 C 500.7 151.6 500.4 151.6 500.1 151.4 L 497.9 149.2 C 497.7 149 497.7 148.7 497.9 148.4 L 500.1 146.2 C 500.3 146 500.6 146 500.9 146.2 L 503.1 148.4 C 503.3 148.7 503.3 149 503.1 149.2 Z"/>
<path transform="translate(0,0)" style="fill: rgb(0,0,0); opacity: 0.33" stroke-linecap="round" d="M 519.3 155.8 L 517.1 158 C 516.9 158.2 516.6 158.2 516.3 158 L 514.1 155.8 C 513.9 155.6 513.9 155.3 514.1 155 L 516.3 152.8 C 516.5 152.6 516.8 152.6 517.1 152.8 L 519.3 155 C 519.5 155.3 519.5 155.6 519.3 155.8 Z"/>
<path transform="translate(0,0)" style="fill: rgb(0,0,0); opacity: 0.33" stroke-linecap="round" d="M 553.4 168.3 L 551.5 170.2 C 551.3 170.4 551 170.4 550.7 170.2 L 548.8 168.3 C 548.6 168.1 548.6 167.8 548.8 167.5 L 550.7 165.6 C 550.9 165.4 551.2 165.4 551.5 165.6 L 553.4 167.5 C 553.6 167.8 553.6 168.1 553.4 168.3 Z"/>
<path transform="translate(0,0)" style="fill: rgb(0,0,0); opacity: 0.33" stroke-linecap="round" d="M 495.5 153.9 L 493.3 156.1 C 493.1 156.3 492.8 156.3 492.5 156.1 L 490.3 153.9 C 490.1 153.7 490.1 153.4 490.3 153.1 L 492.5 150.9 C 492.7 150.7 493 150.7 493.3 150.9 L 495.5 153.1 C 495.7 153.4 495.7 153.7 495.5 153.9 Z"/>
<path transform="translate(0,0)" style="fill: rgb(0,0,0); opacity: 0.33" stroke-linecap="round" d="M 531.3 157.1 L 529.1 159.3 C 528.9 159.5 528.6 159.5 528.3 159.3 L 526.1 157.1 C 525.9 156.9 525.9 156.6 526.1 156.3 L 528.3 154.1 C 528.5 153.9 528.8 153.9 529.1 154.1 L 531.3 156.3 C 531.5 156.5 531.5 156.9 531.3 157.1 Z"/>
<path transform="translate(0,0)" style="fill: rgb(0,0,0); opacity: 0.33" stroke-linecap="round" d="M 478.1 146.4 L 475.9 148.6 C 475.7 148.8 475.4 148.8 475.1 148.6 L 472.9 146.4 C 472.7 146.2 472.7 145.9 472.9 145.6 L 475.1 143.4 C 475.3 143.2 475.6 143.2 475.9 143.4 L 478.1 145.6 C 478.3 145.9 478.3 146.2 478.1 146.4 Z"/>
<path transform="translate(0,0)" style="fill: rgb(0,0,0); opacity: 0.33" stroke-linecap="round" d="M 491.4 147.5 L 489.2 149.7 C 489 149.9 488.7 149.9 488.4 149.7 L 486.2 147.5 C 486 147.3 486 147 486.2 146.7 L 488.4 144.5 C 488.6 144.3 488.9 144.3 489.2 144.5 L 491.4 146.7 C 491.6 147 491.6 147.3 491.4 147.5 Z"/>
<path transform="translate(0,0)" style="fill: rgb(0,0,0); opacity: 0.33" stroke-linecap="round" d="M 524 267.4 L 521.8 269.6 C 521.6 269.8 521.3 269.8 521 269.6 L 518.8 267.4 C 518.6 267.2 518.6 266.9 518.8 266.6 L 521 264.4 C 521.2 264.2 521.5 264.2 521.8 264.4 L 524 266.6 C 524.2 266.9 524.2 267.2 524 267.4 Z"/>
<path transform="translate(0,0)" style="fill: rgb(0,0,0); opacity: 0.33" stroke-linecap="round" d="M 512.2 251.4 L 510 253.6 C 509.8 253.8 509.5 253.8 509.2 253.6 L 507 251.4 C 506.8 251.2 506.8 250.9 507 250.6 L 509.2 248.4 C 509.4 248.2 509.7 248.2 510 248.4 L 512.2 250.6 C 512.4 250.9 512.4 251.2 512.2 251.4 Z"/>
<path transform="translate(0,0)" style="fill: rgb(0,0,0); opacity: 0.33" stroke-linecap="round" d="M 526.7 151.2 L 524.5 153.4 C 524.3 153.6 524 153.6 523.7 153.4 L 521.5 151.2 C 521.3 151 521.3 150.7 521.5 150.4 L 523.7 148.2 C 523.9 148 524.2 148 524.5 148.2 L 526.7 150.4 C 526.9 150.6 526.9 151 526.7 151.2 Z"/>
<path transform="translate(0,0)" style="fill: rgb(0,0,0); opacity: 0.33" stroke-linecap="round" d="M 547.5 258.8 L 544.5 261.8 C 544.3 262 544 262 543.7 261.8 L 540.7 258.8 C 540.5 258.6 540.5 258.3 540.7 258 L 543.7 255 C 543.9 254.8 544.2 254.8 544.5 255 L 547.5 258 C 547.7 258.3 547.7 258.6 547.5 258.8 Z"/>
<path transform="translate(0,0)" style="fill: rgb(0,0,0); opacity: 0.33" stroke-linecap="round" d="M 544.3 229.9 L 541.3 232.9 C 541.1 233.1 540.8 233.1 540.5 232.9 L 537.5 229.9 C 537.3 229.7 537.3 229.4 537.5 229.1 L 540.5 226.1 C 540.7 225.9 541 225.9 541.3 226.1 L 544.3 229.1 C 544.5 229.3 544.5 229.7 544.3 229.9 Z"/>
<path transform="translate(0,0)" style="fill: rgb(0,0,0); opacity: 0.33" stroke-linecap="round" d="M 561.2 236.1 L 558.2 239.1 C 558 239.3 557.7 239.3 557.4 239.1 L 554.4 236.1 C 554.2 235.9 554.2 235.6 554.4 235.3 L 557.4 232.3 C 557.6 232.1 557.9 232.1 558.2 232.3 L 561.2 235.3 C 561.4 235.6 561.4 235.9 561.2 236.1 Z"/>
<path transform="translate(0,0)" style="fill: rgb(0,0,0); opacity: 0.33" stroke-linecap="round" d="M 532.6 241.6 L 529.6 244.6 C 529.4 244.8 529.1 244.8 528.8 244.6 L 525.8 241.6 C 525.6 241.4 525.6 241.1 525.8 240.8 L 528.8 237.8 C 529 237.6 529.3 237.6 529.6 237.8 L 532.6 240.8 C 532.8 241 532.8 241.4 532.6 241.6 Z"/>
<path transform="translate(0,0)" style="fill: rgb(0,0,0); opacity: 0.33" stroke-linecap="round" d="M 547.5 162.8 L 544.5 165.8 C 544.3 166 544 166 543.7 165.8 L 540.7 162.8 C 540.5 162.6 540.5 162.3 540.7 162 L 543.7 159 C 543.9 158.8 544.2 158.8 544.5 159 L 547.5 162 C 547.7 162.2 547.7 162.6 547.5 162.8 Z"/>
<path transform="translate(0,0)" style="fill: rgb(0,0,0); opacity: 0.33" stroke-linecap="round" d="M 516.2 225.2 L 513.2 228.2 C 513 228.4 512.7 228.4 512.4 228.2 L 509.4 225.2 C 509.2 225 509.2 224.7 509.4 224.4 L 512.4 221.4 C 512.6 221.2 512.9 221.2 513.2 221.4 L 516.2 224.4 C 516.4 224.6 516.4 225 516.2 225.2 Z"/>
<path transform="translate(0,0)" style="fill: rgb(0,0,0); opacity: 0.33" stroke-linecap="round" d="M 532.6 228.5 L 529.6 231.5 C 529.4 231.7 529.1 231.7 528.8 231.5 L 525.8 228.5 C 525.6 228.3 525.6 228 525.8 227.7 L 528.8 224.7 C 529 224.5 529.3 224.5 529.6 224.7 L 532.6 227.7 C 532.8 227.9 532.8 228.3 532.6 228.5 Z"/>
<path transform="translate(0,0)" style="fill: rgb(0,0,0); opacity: 0.33" stroke-linecap="round" d="M 534.9 272.1 L 531.2 275.8 C 531 276 530.7 276 530.4 275.8 L 526.7 272.1 C 526.5 271.9 526.5 271.6 526.7 271.3 L 530.4 267.6 C 530.6 267.4 530.9 267.4 531.2 267.6 L 534.9 271.3 C 535.2 271.6 535.2 271.9 534.9 272.1 Z"/>
<path transform="translate(0,0)" style="fill: rgb(0,0,0); opacity: 0.33" stroke-linecap="round" d="M 491.9 339.9 L 488.9 342.9 C 488.7 343.1 488.4 343.1 488.1 342.9 L 485.1 339.9 C 484.9 339.7 484.9 339.4 485.1 339.1 L 488.1 336.1 C 488.3 335.9 488.6 335.9 488.9 336.1 L 491.9 339.1 C 492.1 339.4 492.1 339.7 491.9 339.9 Z"/>
<path transform="translate(0,0)" style="fill: rgb(0,0,0); opacity: 0.33" stroke-linecap="round" d="M 495.5 350.7 L 492.5 353.7 C 492.3 353.9 492 353.9 491.7 353.7 L 488.7 350.7 C 488.5 350.5 488.5 350.2 488.7 349.9 L 491.7 346.9 C 491.9 346.7 492.2 346.7 492.5 346.9 L 495.5 349.9 C 495.7 350.1 495.7 350.4 495.5 350.7 Z"/>
<path transform="translate(0,0)" style="fill: rgb(0,0,0); opacity: 0.33" stroke-linecap="round" d="M 482.6 352 L 479.6 355 C 479.4 355.2 479.1 355.2 478.8 355 L 475.8 352 C 475.6 351.8 475.6 351.5 475.8 351.2 L 478.8 348.2 C 479 348 479.3 348 479.6 348.2 L 482.6 351.2 C 482.8 351.5 482.8 351.8 482.6 352 Z"/>
<path transform="translate(0,0)" style="fill: rgb(0,0,0); opacity: 0.33" stroke-linecap="round" d="M 477.4 364.8 L 474.4 367.8 C 474.2 368 473.9 368 473.6 367.8 L 470.6 364.8 C 470.4 364.6 470.4 364.3 470.6 364 L 473.6 361 C 473.8 360.8 474.1 360.8 474.4 361 L 477.4 364 C 477.6 364.2 477.6 364.6 477.4 364.8 Z"/>
<path transform="translate(0,0)" style="fill: rgb(0,0,0); opacity: 0.33" stroke-linecap="round" d="M 465.6 369 L 462.6 372 C 462.4 372.2 462.1 372.2 461.8 372 L 458.8 369 C 458.6 368.8 458.6 368.5 458.8 368.2 L 461.8 365.2 C 462 365 462.3 365 462.6 365.2 L 465.6 368.2 C 465.8 368.4 465.8 368.8 465.6 369 Z"/>
<path transform="translate(0,0)" style="fill: rgb(0,0,0); opacity: 0.33" stroke-linecap="round" d="M 473.1 377.5 L 470.1 380.5 C 469.9 380.7 469.6 380.7 469.3 380.5 L 466.3 377.5 C 466.1 377.3 466.1 377 466.3 376.7 L 469.3 373.7 C 469.5 373.5 469.8 373.5 470.1 373.7 L 473.1 376.7 C 473.3 376.9 473.3 377.3 473.1 377.5 Z"/>
<path transform="translate(0,0)" style="fill: rgb(0,0,0); opacity: 0.33" stroke-linecap="round" d="M 458.6 381 L 455.6 384 C 455.4 384.2 455.1 384.2 454.8 384 L 451.8 381 C 451.6 380.8 451.6 380.5 451.8 380.2 L 454.8 377.2 C 455 377 455.3 377 455.6 377.2 L 458.6 380.2 C 458.8 380.4 458.8 380.8 458.6 381 Z"/>
<path transform="translate(0,0)" style="fill: rgb(0,0,0); opacity: 0.33" stroke-linecap="round" d="M 447.6 385.6 L 444.6 388.6 C 444.4 388.8 444.1 388.8 443.8 388.6 L 440.8 385.6 C 440.6 385.4 440.6 385.1 440.8 384.8 L 443.8 381.8 C 444 381.6 444.3 381.6 444.6 381.8 L 447.6 384.8 C 447.8 385 447.8 385.4 447.6 385.6 Z"/>
<path transform="translate(0,0)" style="fill: rgb(0,0,0); opacity: 0.33" stroke-linecap="round" d="M 452.3 393.8 L 449.3 396.8 C 449.1 397 448.8 397 448.5 396.8 L 445.5 393.8 C 445.3 393.6 445.3 393.3 445.5 393 L 448.5 390 C 448.7 389.8 449 389.8 449.3 390 L 452.3 393 C 452.5 393.3 452.5 393.6 452.3 393.8 Z"/>
<path transform="translate(0,0)" style="fill: rgb(0,0,0); opacity: 0.33" stroke-linecap="round" d="M 447.6 403 L 444.6 406 C 444.4 406.2 444.1 406.2 443.8 406 L 440.8 403 C 440.6 402.8 440.6 402.5 440.8 402.2 L 443.8 399.2 C 444 399 444.3 399 444.6 399.2 L 447.6 402.2 C 447.8 402.4 447.8 402.8 447.6 403 Z"/>
<path transform="translate(0,0)" style="fill: rgb(0,0,0); opacity: 0.33" stroke-linecap="round" d="M 438.8 408.2 L 435.8 411.2 C 435.6 411.4 435.3 411.4 435 411.2 L 432 408.2 C 431.8 408 431.8 407.7 432 407.4 L 435 404.4 C 435.2 404.2 435.5 404.2 435.8 404.4 L 438.8 407.4 C 439 407.7 439 408 438.8 408.2 Z"/>
<path transform="translate(0,0)" style="fill: rgb(0,0,0); opacity: 0.33" stroke-linecap="round" d="M 412 407.8 L 409 410.8 C 408.8 411 408.5 411 408.2 410.8 L 405.2 407.8 C 405 407.6 405 407.3 405.2 407 L 408.2 404 C 408.4 403.8 408.7 403.8 409 404 L 412 407 C 412.2 407.3 412.2 407.6 412 407.8 Z"/>
<path transform="translate(0,0)" style="fill: rgb(0,0,0); opacity: 0.33" stroke-linecap="round" d="M 400.2 422.9 L 397.2 425.9 C 397 426.1 396.7 426.1 396.4 425.9 L 393.4 422.9 C 393.2 422.7 393.2 422.4 393.4 422.1 L 396.4 419.1 C 396.6 418.9 396.9 418.9 397.2 419.1 L 400.2 422.1 C 400.4 422.4 400.4 422.7 400.2 422.9 Z"/>
<path transform="translate(0,0)" style="fill: rgb(0,0,0); opacity: 0.33" stroke-linecap="round" d="M 433 395.2 L 430 398.2 C 429.8 398.4 429.5 398.4 429.2 398.2 L 426.2 395.2 C 426 395 426 394.7 426.2 394.4 L 429.2 391.4 C 429.4 391.2 429.7 391.2 430 391.4 L 433 394.4 C 433.2 394.6 433.2 394.9 433 395.2 Z"/>
<path transform="translate(0,0)" style="fill: rgb(0,0,0); opacity: 0.33" stroke-linecap="round" d="M 393.7 413.3 L 390.7 416.3 C 390.5 416.5 390.2 416.5 389.9 416.3 L 386.9 413.3 C 386.7 413.1 386.7 412.8 386.9 412.5 L 389.9 409.5 C 390.1 409.3 390.4 409.3 390.7 409.5 L 393.7 412.5 C 393.9 412.7 393.9 413.1 393.7 413.3 Z"/>
<path transform="translate(0,0)" style="fill: rgb(0,0,0); opacity: 0.33" stroke-linecap="round" d="M 379.8 415.4 L 376.8 418.4 C 376.6 418.6 376.3 418.6 376 418.4 L 373 415.4 C 372.8 415.2 372.8 414.9 373 414.6 L 376 411.6 C 376.2 411.4 376.5 411.4 376.8 411.6 L 379.8 414.6 C 380 414.9 380 415.2 379.8 415.4 Z"/>
<path transform="translate(0,0)" style="fill: rgb(0,0,0); opacity: 0.33" stroke-linecap="round" d="M 367.7 418.7 L 364.7 421.7 C 364.5 421.9 364.2 421.9 363.9 421.7 L 360.9 418.7 C 360.7 418.5 360.7 418.2 360.9 417.9 L 363.9 414.9 C 364.1 414.7 364.4 414.7 364.7 414.9 L 367.7 417.9 C 367.9 418.1 367.9 418.5 367.7 418.7 Z"/>
<path transform="translate(0,0)" style="fill: rgb(0,0,0); opacity: 0.33" stroke-linecap="round" d="M 361.5 426.5 L 358.5 429.5 C 358.3 429.7 358 429.7 357.7 429.5 L 354.7 426.5 C 354.5 426.3 354.5 426 354.7 425.7 L 357.7 422.7 C 357.9 422.5 358.2 422.5 358.5 422.7 L 361.5 425.7 C 361.7 426 361.7 426.3 361.5 426.5 Z"/>
<path transform="translate(0,0)" style="fill: rgb(0,0,0); opacity: 0.33" stroke-linecap="round" d="M 356.4 418.7 L 353.4 421.7 C 353.2 421.9 352.9 421.9 352.6 421.7 L 349.6 418.7 C 349.4 418.5 349.4 418.2 349.6 417.9 L 352.6 414.9 C 352.8 414.7 353.1 414.7 353.4 414.9 L 356.4 417.9 C 356.6 418.1 356.6 418.5 356.4 418.7 Z"/>
<path transform="translate(0,0)" style="fill: rgb(0,0,0); opacity: 0.33" stroke-linecap="round" d="M 330.2 420.3 L 327.2 423.3 C 327 423.5 326.7 423.5 326.4 423.3 L 323.4 420.3 C 323.2 420.1 323.2 419.8 323.4 419.5 L 326.4 416.5 C 326.6 416.3 326.9 416.3 327.2 416.5 L 330.2 419.5 C 330.4 419.7 330.4 420.1 330.2 420.3 Z"/>
<path transform="translate(0,0)" style="fill: rgb(0,0,0); opacity: 0.33" stroke-linecap="round" d="M 317.7 416.9 L 314.7 419.9 C 314.5 420.1 314.2 420.1 313.9 419.9 L 310.9 416.9 C 310.7 416.7 310.7 416.4 310.9 416.1 L 313.9 413.1 C 314.1 412.9 314.4 412.9 314.7 413.1 L 317.7 416.1 C 318 416.3 318 416.7 317.7 416.9 Z"/>
<path transform="translate(0,0)" style="fill: rgb(0,0,0); opacity: 0.33" stroke-linecap="round" d="M 303.9 413.3 L 300.9 416.3 C 300.7 416.5 300.4 416.5 300.1 416.3 L 297.1 413.3 C 296.9 413.1 296.9 412.8 297.1 412.5 L 300.1 409.5 C 300.3 409.3 300.6 409.3 300.9 409.5 L 303.9 412.5 C 304.1 412.7 304.1 413.1 303.9 413.3 Z"/>
<path transform="translate(0,0)" style="fill: rgb(0,0,0); opacity: 0.33" stroke-linecap="round" d="M 290.3 410.5 L 288.3 412.5 C 288.1 412.7 287.8 412.7 287.5 412.5 L 285.5 410.5 C 285.3 410.3 285.3 410 285.5 409.7 L 287.5 407.7 C 287.7 407.5 288 407.5 288.3 407.7 L 290.3 409.7 C 290.5 410 290.5 410.3 290.3 410.5 Z"/>
<path transform="translate(0,0)" style="fill: rgb(0,0,0); opacity: 0.33" stroke-linecap="round" d="M 349.3 426.5 L 347.3 428.5 C 347.1 428.7 346.8 428.7 346.5 428.5 L 344.5 426.5 C 344.3 426.3 344.3 426 344.5 425.7 L 346.5 423.7 C 346.7 423.5 347 423.5 347.3 423.7 L 349.3 425.7 C 349.5 426 349.5 426.3 349.3 426.5 Z"/>
<path transform="translate(0,0)" style="fill: rgb(0,0,0); opacity: 0.33" stroke-linecap="round" d="M 403.5 413.3 L 401.5 415.3 C 401.3 415.5 401 415.5 400.7 415.3 L 398.7 413.3 C 398.5 413.1 398.5 412.8 398.7 412.5 L 400.7 410.5 C 400.9 410.3 401.2 410.3 401.5 410.5 L 403.5 412.5 C 403.7 412.7 403.7 413.1 403.5 413.3 Z"/>
<path transform="translate(0,0)" style="fill: rgb(0,0,0); opacity: 0.33" stroke-linecap="round" d="M 527.7 388.1 L 525.7 390.1 C 525.5 390.3 525.2 390.3 524.9 390.1 L 522.9 388.1 C 522.7 387.9 522.7 387.6 522.9 387.3 L 524.9 385.3 C 525.1 385.1 525.4 385.1 525.7 385.3 L 527.7 387.3 C 527.9 387.6 527.9 387.9 527.7 388.1 Z"/>
<path transform="translate(0,0)" style="fill: rgb(0,0,0); opacity: 0.33" stroke-linecap="round" d="M 440.7 395.2 L 438.7 397.2 C 438.5 397.4 438.2 397.4 437.9 397.2 L 435.9 395.2 C 435.7 395 435.7 394.7 435.9 394.4 L 437.9 392.4 C 438.1 392.2 438.4 392.2 438.7 392.4 L 440.7 394.4 C 440.9 394.6 440.9 394.9 440.7 395.2 Z"/>
<path transform="translate(0,0)" style="fill: rgb(0,0,0); opacity: 0.33" stroke-linecap="round" d="M 344.1 420.3 L 341.1 423.3 C 340.9 423.5 340.6 423.5 340.3 423.3 L 337.3 420.3 C 337.1 420.1 337.1 419.8 337.3 419.5 L 340.3 416.5 C 340.5 416.3 340.8 416.3 341.1 416.5 L 344.1 419.5 C 344.3 419.7 344.3 420.1 344.1 420.3 Z"/>
<path transform="translate(0,0)" style="fill: rgb(0,0,0); opacity: 0.33" stroke-linecap="round" d="M 375.2 424.8 L 372.2 427.8 C 372 428 371.7 428 371.4 427.8 L 368.4 424.8 C 368.2 424.6 368.2 424.3 368.4 424 L 371.4 421 C 371.6 420.8 371.9 420.8 372.2 421 L 375.2 424 C 375.4 424.2 375.4 424.6 375.2 424.8 Z"/>
<path transform="translate(0,0)" style="fill: rgb(0,0,0); opacity: 0.33" stroke-linecap="round" d="M 388.4 422.3 L 385.4 425.3 C 385.2 425.5 384.9 425.5 384.6 425.3 L 381.6 422.3 C 381.4 422.1 381.4 421.8 381.6 421.5 L 384.6 418.5 C 384.8 418.3 385.1 418.3 385.4 418.5 L 388.4 421.5 C 388.6 421.7 388.6 422.1 388.4 422.3 Z"/>
<path transform="translate(0,0)" style="fill: rgb(0,0,0); opacity: 0.33" stroke-linecap="round" d="M 429.4 405.2 L 426.4 408.2 C 426.2 408.4 425.9 408.4 425.6 408.2 L 422.6 405.2 C 422.4 405 422.4 404.7 422.6 404.4 L 425.6 401.4 C 425.8 401.2 426.1 401.2 426.4 401.4 L 429.4 404.4 C 429.6 404.7 429.6 405 429.4 405.2 Z"/>
<path transform="translate(0,0)" style="fill: rgb(0,0,0); opacity: 0.33" stroke-linecap="round" d="M 412 420.3 L 409 423.3 C 408.8 423.5 408.5 423.5 408.2 423.3 L 405.2 420.3 C 405 420.1 405 419.8 405.2 419.5 L 408.2 416.5 C 408.4 416.3 408.7 416.3 409 416.5 L 412 419.5 C 412.2 419.7 412.2 420.1 412 420.3 Z"/>
<path transform="translate(0,0)" style="fill: rgb(0,0,0); opacity: 0.33" stroke-linecap="round" d="M 461.5 403 L 458.5 406 C 458.3 406.2 458 406.2 457.7 406 L 454.7 403 C 454.5 402.8 454.5 402.5 454.7 402.2 L 457.7 399.2 C 457.9 399 458.2 399 458.5 399.2 L 461.5 402.2 C 461.7 402.4 461.7 402.8 461.5 403 Z"/>
<path transform="translate(0,0)" style="fill: rgb(0,0,0); opacity: 0.33" stroke-linecap="round" d="M 484.5 371.9 L 481.5 374.9 C 481.3 375.1 481 375.1 480.7 374.9 L 477.7 371.9 C 477.5 371.7 477.5 371.4 477.7 371.1 L 480.7 368.1 C 480.9 367.9 481.2 367.9 481.5 368.1 L 484.5 371.1 C 484.7 371.3 484.7 371.7 484.5 371.9 Z"/>
<path transform="translate(0,0)" style="fill: rgb(0,0,0); opacity: 0.33" stroke-linecap="round" d="M 489.8 383.5 L 486.8 386.5 C 486.6 386.7 486.3 386.7 486 386.5 L 483 383.5 C 482.8 383.3 482.8 383 483 382.7 L 486 379.7 C 486.2 379.5 486.5 379.5 486.8 379.7 L 489.8 382.7 C 490 382.9 490 383.3 489.8 383.5 Z"/>
<path transform="translate(0,0)" style="fill: rgb(0,0,0); opacity: 0.33" stroke-linecap="round" d="M 539.7 375.4 L 536.7 378.4 C 536.5 378.6 536.2 378.6 535.9 378.4 L 532.9 375.4 C 532.7 375.2 532.7 374.9 532.9 374.6 L 535.9 371.6 C 536.1 371.4 536.4 371.4 536.7 371.6 L 539.7 374.6 C 539.9 374.9 539.9 375.2 539.7 375.4 Z"/>
<path transform="translate(0,0)" style="fill: rgb(0,0,0); opacity: 0.33" stroke-linecap="round" d="M 545.3 362.5 L 542.3 365.5 C 542.1 365.7 541.8 365.7 541.5 365.5 L 538.5 362.5 C 538.3 362.3 538.3 362 538.5 361.7 L 541.5 358.7 C 541.7 358.5 542 358.5 542.3 358.7 L 545.3 361.7 C 545.6 361.9 545.6 362.2 545.3 362.5 Z"/>
<path transform="translate(0,0)" style="fill: rgb(0,0,0); opacity: 0.33" stroke-linecap="round" d="M 499 374.3 L 496 377.3 C 495.8 377.5 495.5 377.5 495.2 377.3 L 492.2 374.3 C 492 374.1 492 373.8 492.2 373.5 L 495.2 370.5 C 495.4 370.3 495.7 370.3 496 370.5 L 499 373.5 C 499.2 373.7 499.2 374 499 374.3 Z"/>
<path transform="translate(0,0)" style="fill: rgb(0,0,0); opacity: 0.33" stroke-linecap="round" d="M 493 362.5 L 490 365.5 C 489.8 365.7 489.5 365.7 489.2 365.5 L 486.2 362.5 C 486 362.3 486 362 486.2 361.7 L 489.2 358.7 C 489.4 358.5 489.7 358.5 490 358.7 L 493 361.7 C 493.2 361.9 493.2 362.2 493 362.5 Z"/>
<path transform="translate(0,0)" style="fill: rgb(0,0,0); opacity: 0.33" stroke-linecap="round" d="M 516.1 273.8 L 513.1 276.8 C 512.9 277 512.6 277 512.3 276.8 L 509.3 273.8 C 509.1 273.6 509.1 273.3 509.3 273 L 512.3 270 C 512.5 269.8 512.8 269.8 513.1 270 L 516.1 273 C 516.3 273.2 516.3 273.6 516.1 273.8 Z"/>
<path transform="translate(0,0)" style="fill: rgb(0,0,0); opacity: 0.33" stroke-linecap="round" d="M 513.6 262.9 L 510.6 265.9 C 510.4 266.1 510.1 266.1 509.8 265.9 L 506.8 262.9 C 506.6 262.7 506.6 262.4 506.8 262.1 L 509.8 259.1 C 510 258.9 510.3 258.9 510.6 259.1 L 513.6 262.1 C 513.8 262.3 513.8 262.7 513.6 262.9 Z"/>
<path transform="translate(0,0)" style="fill: rgb(0,0,0); opacity: 0.33" stroke-linecap="round" d="M 557.6 297.8 L 554.6 300.8 C 554.4 301 554.1 301 553.8 300.8 L 550.8 297.8 C 550.6 297.6 550.6 297.3 550.8 297 L 553.8 294 C 554 293.8 554.3 293.8 554.6 294 L 557.6 297 C 557.8 297.3 557.8 297.6 557.6 297.8 Z"/>
<path transform="translate(0,0)" style="fill: rgb(0,0,0); opacity: 0.33" stroke-linecap="round" d="M 525.1 282.7 L 522.1 285.7 C 521.9 285.9 521.6 285.9 521.3 285.7 L 518.3 282.7 C 518.1 282.5 518.1 282.2 518.3 281.9 L 521.3 278.9 C 521.5 278.7 521.8 278.7 522.1 278.9 L 525.1 281.9 C 525.3 282.2 525.3 282.5 525.1 282.7 Z"/>
<path transform="translate(0,0)" style="fill: rgb(0,0,0); opacity: 0.33" stroke-linecap="round" d="M 535.1 286.4 L 532.1 289.4 C 531.9 289.6 531.6 289.6 531.3 289.4 L 528.3 286.4 C 528.1 286.2 528.1 285.9 528.3 285.6 L 531.3 282.6 C 531.5 282.4 531.8 282.4 532.1 282.6 L 535.1 285.6 C 535.3 285.9 535.3 286.2 535.1 286.4 Z"/>
<path transform="translate(0,0)" style="fill: rgb(0,0,0); opacity: 0.33" stroke-linecap="round" d="M 521.5 304.3 L 518.5 307.3 C 518.3 307.5 518 307.5 517.7 307.3 L 514.7 304.3 C 514.5 304.1 514.5 303.8 514.7 303.5 L 517.7 300.5 C 517.9 300.3 518.2 300.3 518.5 300.5 L 521.5 303.5 C 521.7 303.7 521.7 304.1 521.5 304.3 Z"/>
<path transform="translate(0,0)" style="fill: rgb(0,0,0); opacity: 0.33" stroke-linecap="round" d="M 534.2 304.3 L 529.6 308.9 C 529.4 309.1 529.1 309.1 528.8 308.9 L 524.2 304.3 C 524 304.1 524 303.8 524.2 303.5 L 528.8 298.9 C 529 298.7 529.3 298.7 529.6 298.9 L 534.2 303.5 C 534.4 303.7 534.4 304.1 534.2 304.3 Z"/>
<path transform="translate(0,0)" style="fill: rgb(0,0,0); opacity: 0.33" stroke-linecap="round" d="M 556 352 L 551.4 356.6 C 551.2 356.8 550.9 356.8 550.6 356.6 L 546 352 C 545.8 351.8 545.8 351.5 546 351.2 L 550.6 346.6 C 550.8 346.4 551.1 346.4 551.4 346.6 L 556 351.2 C 556.2 351.5 556.2 351.8 556 352 Z"/>
<path transform="translate(0,0)" style="fill: rgb(0,0,0); opacity: 0.33" stroke-linecap="round" d="M 509.7 359.1 L 505.1 363.7 C 504.9 363.9 504.6 363.9 504.3 363.7 L 499.7 359.1 C 499.5 358.9 499.5 358.6 499.7 358.3 L 504.3 353.7 C 504.5 353.5 504.8 353.5 505.1 353.7 L 509.7 358.3 C 509.9 358.6 509.9 358.9 509.7 359.1 Z"/>
<path transform="translate(0,0)" style="fill: rgb(0,0,0); opacity: 0.33" stroke-linecap="round" d="M 471.5 390.2 L 465.9 395.8 C 465.7 396 465.4 396 465.1 395.8 L 459.5 390.2 C 459.3 390 459.3 389.7 459.5 389.4 L 465.1 383.8 C 465.3 383.6 465.6 383.6 465.9 383.8 L 471.5 389.4 C 471.7 389.7 471.7 390 471.5 390.2 Z"/>
<path transform="translate(0,0)" style="fill: rgb(0,0,0); opacity: 0.33" stroke-linecap="round" d="M 437.6 76.5 L 433 81.1 C 432.8 81.3 432.5 81.3 432.2 81.1 L 427.6 76.5 C 427.4 76.3 427.4 76 427.6 75.7 L 432.2 71.1 C 432.4 70.9 432.7 70.9 433 71.1 L 437.6 75.7 C 437.8 75.9 437.8 76.3 437.6 76.5 Z"/>
</svg>