<?xml version="1.0" encoding="UTF-8" standalone="no"?><!DOCTYPE svg PUBLIC "-//W3C//DTD SVG 1.1//EN" "http://www.w3.org/Graphics/SVG/1.1/DTD/svg11.dtd"><svg xmlns="http://www.w3.org/2000/svg" xmlns:xlink="http://www.w3.org/1999/xlink" version="1.1" width="800" height="500" viewBox="0 0 800 500">
<desc>Created with SVGMaker Editor 2.2.3</desc>
<defs>
</defs>
<path transform="translate(0,0)" style="fill: rgb(35,31,32)" stroke-linecap="round" d="M 526.1 119.2 C 526.1 115.9 526.1 112.7 526.1 109.4 C 526.1 106.1 526.1 102.9 526.1 99.6 C 526.1 99.4 526 98.6 526 97.8 L 526 95.5 C 510 103.3 494 111.2 478.1 119 C 477.9 119.1 478 123.5 478 123.1 C 478 126.4 478 129.6 478 132.9 C 478 136.2 478 139.4 478 142.7 C 478 143 478.1 144.6 478.2 145.7 C 477.2 146.8 476.1 147.9 475.1 149 C 460.7 164.2 445.1 179.2 435.3 198 C 430.1 208 427.4 218.5 427.2 229.8 C 427.1 236.1 427.1 242.4 427.1 248.8 C 427.1 250.9 427 253.1 427.2 255.2 C 427.3 256.8 427.3 253.4 427.3 253.8 C 427.7 234.3 439.5 216.7 451.6 202.3 C 466 185.2 482.2 169.4 497.6 153.2 L 526.1 123.3 C 526.3 122.9 526.1 119 526.1 119.2"/>
<path transform="translate(0,0)" style="fill: rgb(35,31,32)" stroke-linecap="round" d="M 554 133.5 C 514.7 163.9 473.8 195.9 451.7 241.6 C 445.9 253.6 441.6 266.4 439.3 279.5 C 438.5 283.9 439.2 288.9 439.2 293.4 C 439.2 296.7 439.2 299.9 439.2 303.2 C 439.2 304.5 439.5 306 439.3 307.3 C 447.9 258.1 482.8 219.5 519.8 188.4 C 530.9 179.1 542.4 170.2 553.9 161.3 C 554.2 161.1 554 156.9 554 157.2 C 554 153.9 554 150.7 554 147.4 C 554 144.1 554 140.9 554 137.6 C 554.1 137.1 553.7 133.8 554 133.5"/>
<path transform="translate(0,0)" style="fill: rgb(35,31,32)" stroke-linecap="round" d="M 288.5 89.6 C 304 121.2 317.2 153.9 327.7 187.5 C 341.1 230.3 350.1 274.5 354.5 319.2 C 357.2 346.3 358.1 373.5 357.4 400.7 C 357.4 400.4 357.4 400.2 357.4 399.9 C 357.1 412.6 356.3 425.7 355.3 437.6 C 355.4 436.8 354.6 442.4 355.2 439.8 C 356 436.7 356 432.8 356.4 429.6 C 357.5 419.5 358.5 409.4 359.4 399.3 C 364 346.6 362.7 293.6 354.8 241.2 C 347.7 194.2 335.4 147.9 318.4 103.5 C 310.8 83.7 302.3 64.3 293 45.3 C 293.3 46 292.2 51.9 292.2 51.8 C 291.6 57 291.1 62.2 290.6 67.5 C 290.1 72.7 289.6 78 289.1 83.2 C 288.9 84.6 287.9 88.3 288.5 89.6"/>
<path transform="translate(0,0)" style="fill: rgb(35,31,32)" stroke-linecap="round" d="M 464.1 104.2 C 464.2 99.1 464.1 94 463.8 89 C 463.1 76.7 453.9 68.5 441.7 68.2 C 428.8 67.9 418.2 76.5 410.1 85.6 C 401.5 95.4 394.3 106.6 388.7 118.4 C 382.4 131.8 378.1 146.2 376 160.9 C 375.5 164.7 375.1 168.6 374.9 172.4 C 372.3 171 370 169.1 368.3 166.7 C 368.1 166.5 368 166.2 367.9 166 C 367.9 164.5 367.9 163.1 367.9 161.6 C 367.9 158.3 367.9 155.1 367.9 151.8 C 367.9 151 367.4 148.3 367.8 147.7 C 367.2 148.6 366.7 149.4 366.3 150.3 C 366.3 150.2 366.3 150.2 366.3 150.1 C 366.3 150.2 366.3 150.2 366.3 150.3 C 365.6 151.8 365.3 153.4 365.1 155.1 C 365 155.9 365 156.8 364.9 157.7 C 360.2 173.5 345.6 184.4 334.3 195.7 C 327.5 202.5 322.1 209.7 319.5 219 C 318.4 223 317.8 227 317.6 231.1 C 317.2 239.5 317.2 248 317.4 256.5 C 317.4 260.3 317.4 261.8 317.5 260.9 C 317.5 261 317.5 261.1 317.5 261.2 C 317.5 260.4 317.5 264.3 317.6 262.6 C 317.7 260.9 317.7 259.1 317.7 257.4 C 317.7 257.1 317.7 256.8 317.8 256.5 C 317.9 255.5 318 254.5 318.1 253.6 C 318.4 251.6 318.8 249.7 319.3 247.8 C 320.3 244.1 321.6 240.5 323.5 237.1 C 327.5 229.8 333.9 223.9 340 218.2 C 350.2 208.6 361.6 198.3 365.3 184.6 C 365.7 188.9 366.8 193 370.2 196.5 C 371.6 197.9 373.1 199.1 374.6 200 C 374.6 206.9 374.8 213.8 375.3 220.7 C 374.9 216.2 375.4 211.4 375.4 206.8 C 375.4 204.7 375.4 202.6 375.5 200.5 C 384.9 205.4 397.1 202.5 406.2 197.7 C 428.7 185.9 446.9 165.2 457.3 142.2 C 459.9 136.4 462.3 130.4 463.3 124.1 C 463.7 121.6 463.8 119.2 463.9 116.7 C 464.5 120 464.5 115.8 464.1 104.2 M 418.2 162.5 C 408.2 169.7 396.1 177 383.2 175.1 C 381.8 174.9 380.4 174.6 379 174.1 C 381.3 164.5 384.7 155.1 388.9 146.2 C 393.8 135.9 399.8 126.2 407 117.3 C 413.9 108.7 422.3 100.2 433.1 97.1 C 442.1 94.5 453.3 96.2 459.4 103.9 C 459.9 104.6 460.4 105.3 460.9 106 C 460.2 108 459.4 109.9 458.6 111.8 C 450 131.9 435.9 149.7 418.2 162.5"/>
<path transform="translate(0,0)" style="fill: rgb(35,31,32)" stroke-linecap="round" d="M 427.2 276.9 C 427.2 274.1 427.2 271.4 427.1 268.6 C 427.1 268.3 427 265.9 427 267.2 C 426.4 282.1 422.4 297.2 416.3 310.7 C 405.2 335.2 385.4 353.8 360.6 363.8 C 332.5 375.2 299.9 375.1 275.6 355.1 C 267.2 348.2 259.4 339.3 255.2 329 C 255.8 327.9 256.4 326.8 257.1 325.8 C 260.9 320.3 265.7 315.6 269.7 310.3 C 277.6 299.9 283.1 288 286.3 275.4 C 288.3 267.6 289.4 259.7 289.9 251.7 C 290.7 238.1 290.7 224.3 290.1 210.6 C 290.1 209.9 290.1 209.2 290.1 209.1 C 290.1 206.1 290.1 203.1 290.1 200 C 290 192.5 289.4 185 283.3 179.7 C 277.7 174.9 269.9 173.7 263 176.1 C 255.7 178.7 250.2 184.7 247.8 192 C 245.2 199.7 245.9 208.8 246.3 216.8 C 246.3 217.7 246.4 215.7 246.4 216.1 C 246.5 214.8 246.4 213.5 246.4 212.1 C 246.4 211.9 246.4 211.8 246.4 211.6 C 246.5 211.4 246.5 211 246.6 210.5 C 246.7 209.8 246.8 209.2 246.9 208.5 C 247.2 207 247.6 205.6 248.1 204.2 C 249.1 201.4 250.6 198.8 252.5 196.5 C 256.4 191.8 262.2 188.6 268.3 188 C 273.9 187.5 279.5 189.3 283.7 193.1 C 288 197 289.4 201.9 289.9 207.3 C 289.9 207.9 289.9 208.5 289.9 208.1 C 289.8 210.9 289.8 213.6 289.8 216.4 C 289.8 219.7 289.7 222.9 289.7 226.2 C 289.4 230.2 288.9 234.1 288.3 238 C 287.2 244.3 285.7 250.6 283.6 256.6 C 279.5 268.1 273.3 278.4 265.4 287.7 C 261.5 292.3 257.1 296.8 254.5 302.3 C 253.3 304.9 252.5 307.8 252.2 310.7 C 251.3 318.8 251.9 327.1 251.9 335.2 C 252 343.4 252.5 350.7 255.9 358.2 C 259.1 365 263.7 371.2 268.9 376.5 C 279.5 387.3 292.9 395 307.8 397.7 C 322.6 400.4 338 398.6 352.3 394 C 378.3 385.7 400.2 368.3 413.1 344.1 C 421.3 328.6 426.2 310.9 426.9 293.4 C 427.3 288.2 427.2 282.5 427.2 276.9"/>
<rect transform="translate(0,0)" style="fill: rgb(35,31,32)" x="317.5" y="263.2" width="0.3" height="32.1"/>
<polygon transform="translate(0,0)" style="fill: rgb(35,31,32)" points="439.7,386.1 439.4,386.1 439.2,303.3 439.5,303.3"/>
<g transform="matrix(0.7071 -0.7071 0.7071 0.7071 317.6212 313.4455)" id="Layer_1">
<rect transform="translate(0,0)" style="fill: rgb(35,31,32)" x="-13.45" y="-13.45" width="26.9" height="26.9"/>
</g>
<g transform="matrix(0.7071 -0.7071 0.7071 0.7071 365.1553 87.247)" id="Layer_1">
<rect transform="translate(0,0)" style="fill: rgb(35,31,32)" x="-13.45" y="-13.45" width="26.9" height="26.9"/>
</g>
<g transform="matrix(0.7074 -0.7069 0.7069 0.7074 439.5755 390.6174)" id="Layer_1">
<rect transform="translate(0,0)" style="fill: rgb(35,31,32)" x="-4.65" y="-4.65" width="9.3" height="9.3"/>
</g>
<path transform="translate(0,0)" style="fill: rgb(35,31,32)" stroke-linecap="round" d="M 382.2 343.7 C 395.1 332 408.5 319.8 415 303.2 C 416.7 298.8 417.8 294.3 418.3 289.6 C 418.5 288 418.1 286.3 418 284.8 C 417.9 283.7 417.8 282.5 417.7 281.4 C 417.7 281 417.5 280.4 417.6 280 C 415.9 297.4 404.8 311.8 392.7 323.7 C 389.1 327.3 385.3 330.7 381.5 334.1 C 381.4 334.2 381.6 335.6 381.6 335.5 C 381.7 336.6 381.8 337.8 381.9 338.9 C 382 340 382.1 341.2 382.2 342.3 C 382.1 342.5 382.3 343.6 382.2 343.7"/>
<path transform="translate(0,0)" style="fill: rgb(35,31,32)" stroke-linecap="round" d="M 381.5 324.9 C 390.5 317.7 399.9 310.2 404.9 299.5 C 406.2 296.7 407.2 293.7 407.7 290.7 C 407.9 289.7 407.7 288.5 407.7 287.5 C 407.7 286.7 407.7 286 407.7 285.2 C 407.7 284.9 407.6 284.5 407.7 284.3 C 405.9 295.7 397.9 304.8 389.4 312.1 C 386.8 314.3 384.2 316.4 381.6 318.5 C 381.5 318.5 381.6 319.5 381.6 319.4 C 381.6 320.2 381.6 320.9 381.6 321.7 C 381.6 322.5 381.6 323.2 381.6 324 C 381.5 324.1 381.6 324.8 381.5 324.9"/>
<path transform="translate(0,0)" style="fill: rgb(35,31,32)" stroke-linecap="round" d="M 381.5 312 C 386.8 307.8 392.4 303.3 395.3 297 C 396.1 295.3 396.6 293.6 396.9 291.8 C 397 291.2 396.9 290.5 396.9 289.9 C 396.9 289.5 396.9 289 396.9 288.6 C 396.9 288.4 396.9 288.2 396.9 288 C 395.8 294.8 391.1 300.1 386.1 304.4 C 384.6 305.7 383 306.9 381.5 308.2 C 381.5 308.2 381.5 308.8 381.5 308.8 C 381.5 309.2 381.5 309.7 381.5 310.1 C 381.5 310.5 381.5 311 381.5 311.4 C 381.5 311.5 381.5 312 381.5 312"/>
<path transform="translate(0,0)" style="fill: rgb(35,31,32)" stroke-linecap="round" d="M 381.5 301.9 C 384.6 299.4 387.9 296.8 389.6 293.1 C 390.1 292.1 390.4 291.1 390.6 290 C 390.7 289.6 390.6 289.2 390.6 288.9 L 390.6 288.1 C 390.6 288 390.6 287.9 390.6 287.8 C 390 291.8 387.2 294.9 384.2 297.5 C 383.3 298.3 382.4 299 381.5 299.7 C 381.5 299.7 381.5 300.1 381.5 300 L 381.5 300.8 L 381.5 301.6 C 381.5 301.6 381.5 301.9 381.5 301.9"/>
<path transform="translate(0,0)" style="fill: rgb(35,31,32)" stroke-linecap="round" d="M 382.2 213.9 C 395.1 225.6 408.5 237.8 415 254.4 C 416.7 258.8 417.8 263.3 418.3 268 C 418.5 269.5 418.1 271.3 418 272.8 C 417.9 273.9 417.8 275.1 417.7 276.2 C 417.7 276.6 417.5 277.2 417.6 277.6 C 415.9 260.2 404.8 245.8 392.7 233.9 C 389.1 230.3 385.3 226.9 381.5 223.5 C 381.4 223.4 381.6 222 381.6 222.1 C 381.7 221 381.8 219.8 381.9 218.7 C 382 217.6 382.1 216.4 382.2 215.3 C 382.1 215.2 382.3 214 382.2 213.9"/>
<path transform="translate(0,0)" style="fill: rgb(35,31,32)" stroke-linecap="round" d="M 381.5 232.7 C 390.5 239.9 399.9 247.4 404.9 258.1 C 406.2 260.9 407.2 263.9 407.7 266.9 C 407.9 267.9 407.7 269.1 407.7 270.1 C 407.7 270.9 407.7 271.6 407.7 272.4 C 407.7 272.7 407.6 273.1 407.7 273.3 C 405.9 261.9 397.9 252.8 389.4 245.5 C 386.8 243.3 384.2 241.2 381.6 239.1 C 381.5 239.1 381.6 238.1 381.6 238.2 C 381.6 237.4 381.6 236.7 381.6 235.9 C 381.6 235.1 381.6 234.4 381.6 233.6 C 381.5 233.6 381.6 232.8 381.5 232.7"/>
<path transform="translate(0,0)" style="fill: rgb(35,31,32)" stroke-linecap="round" d="M 381.5 245.6 C 386.8 249.8 392.4 254.3 395.3 260.6 C 396.1 262.3 396.6 264 396.9 265.8 C 397 266.4 396.9 267.1 396.9 267.7 C 396.9 268.1 396.9 268.6 396.9 269 C 396.9 269.2 396.9 269.4 396.9 269.6 C 395.8 262.8 391.1 257.5 386.1 253.2 C 384.6 251.9 383 250.7 381.5 249.4 C 381.5 249.4 381.5 248.8 381.5 248.8 C 381.5 248.4 381.5 247.9 381.5 247.5 C 381.5 247.1 381.5 246.6 381.5 246.2 C 381.5 246.1 381.5 245.7 381.5 245.6"/>
<path transform="translate(0,0)" style="fill: rgb(35,31,32)" stroke-linecap="round" d="M 381.5 255.8 C 384.6 258.3 387.9 260.9 389.6 264.6 C 390.1 265.6 390.4 266.6 390.6 267.7 C 390.7 268.1 390.6 268.5 390.6 268.8 L 390.6 269.6 C 390.6 269.7 390.6 269.8 390.6 269.9 C 390 265.9 387.2 262.8 384.2 260.2 C 383.3 259.4 382.4 258.7 381.5 258 C 381.5 258 381.5 257.6 381.5 257.7 L 381.5 256.9 C 381.5 256.6 381.5 256.4 381.5 256.1 C 381.5 256 381.5 255.8 381.5 255.8"/>
</svg>