<?xml version="1.0" encoding="UTF-8" standalone="no"?><!DOCTYPE svg PUBLIC "-//W3C//DTD SVG 1.1//EN" "http://www.w3.org/Graphics/SVG/1.1/DTD/svg11.dtd"><svg xmlns="http://www.w3.org/2000/svg" xmlns:xlink="http://www.w3.org/1999/xlink" version="1.1" width="800" height="500" viewBox="0 0 800 500">
<desc>Created with SVGMaker Editor 2.2.3</desc>
<defs>
</defs>
<path transform="translate(0,0)" style="fill: rgb(0,0,0)" stroke-linecap="round" d="M 494.68 345.24 C 492.75 347.55 490.83 349.86 488.9 352.17 L 448.33 352.17 C 448.28 352.08 448.21 352.02 448.1 352 C 437.1 350.38 426.33 349.66 416.45 344.05 C 407.18 338.79 400.02 329 401.06 318.04 C 402.07 307.4 416.51 306.29 425.27 306.1 C 430.82 305.99 436.41 306.78 441.63 308.68 C 443.96 309.52 445.81 310.95 447.56 312.68 C 448.12 313.23 448.7 313.94 449.17 314.7 C 447.44 316.05 445.91 318.18 444.86 319.62 C 444.7 319.83 441.26 325.22 443.19 324.75 C 449.51 323.21 455.3 316.56 458.16 311.01 C 461.89 303.77 454.72 298.81 448.31 296.78 C 434.45 292.39 416.84 294.59 405.93 304.55 C 394.39 315.08 386.61 329.84 395.77 344.4 C 397.75 347.55 400.12 350.08 402.76 352.17 L 382.83 352.17 L 382.83 224.34 C 382.82 223.89 382.6 223.71 382.17 223.79 L 371.63 223.79 C 369.31 223.79 366.25 228.3 365.11 229.86 C 364.78 230.31 361.41 234.99 363.43 234.99 L 370.08 234.99 L 373.56 234.99 C 373.18 234.99 373.31 242.65 373.31 243.85 L 373.31 283.77 L 373.31 358.84 C 372.37 360.21 370.4 363.37 372.06 363.37 L 373.33 363.37 C 373.38 364.05 374.03 363.87 374.84 363.37 L 432.86 363.37 L 465.46 363.37 L 480.35 363.37 C 484.05 363.37 486.05 360.64 488.29 357.95 C 491.25 354.4 494.2 350.85 497.16 347.3 C 497.72 346.63 501.83 341.84 500.51 340.74 C 499.2 339.66 495.24 344.57 494.68 345.24"/>
<path transform="translate(0,0)" style="fill: rgb(0,0,0)" stroke-linecap="round" d="M 377.1 174.85 C 378.73 173.12 381.88 169.95 381.88 167.33 L 381.88 45.66 C 381.88 43.66 377.37 48.01 377.15 48.25 C 375.52 49.98 372.37 53.15 372.37 55.77 L 372.37 177.44 C 372.36 179.44 376.88 175.08 377.1 174.85"/>
<path transform="translate(0,0)" style="fill: rgb(0,0,0)" stroke-linecap="round" d="M 290.93 166.22 L 290.93 172.3 C 290.91 172.33 290.89 172.36 290.87 172.38 C 290.54 172.83 287.17 177.51 289.19 177.51 L 346.2 177.51 C 348.52 177.51 351.58 173 352.72 171.43 C 352.97 171.09 355.01 168.25 355.02 166.95 C 355.33 166.27 355.53 165.58 355.53 164.94 L 355.53 84.46 C 355.53 82.46 351.01 86.82 350.79 87.05 C 349.16 88.78 346.01 91.95 346.01 94.57 L 346.01 166.3 L 328.2 166.3 C 328.21 166.16 328.23 166.03 328.23 165.9 L 328.23 81.58 C 328.23 79.58 323.71 83.94 323.49 84.17 C 321.87 85.9 318.71 89.07 318.71 91.69 L 318.71 166.3 L 300.19 166.3 C 300.35 165.84 300.44 165.38 300.44 164.94 L 300.44 90.69 C 300.44 90.36 300.31 90.22 300.12 90.19 C 304.5 83.2 307.67 75.59 308.14 67.35 C 308.94 53.4 297.38 42.73 284.79 39.43 C 281.1 38.47 275.09 50.35 275.6 50.49 C 291.17 54.56 301.85 68.11 297.52 84.44 C 295.21 93.15 288.98 99.96 283.01 106.39 C 276.83 113.04 270.46 119.51 264.86 126.68 C 256.08 137.9 244.36 155.21 255.45 168.59 C 265.14 180.27 280.65 173.91 290.93 166.22 M 268.38 127.43 C 273.53 120.84 279.6 115 285.25 108.85 C 287.13 106.8 289.05 104.67 290.92 102.47 L 290.92 160.25 C 285.88 163.05 280.11 164.47 274.39 163.22 C 268.02 161.83 263.03 157.14 260.96 151.03 C 258.17 142.79 263.44 133.74 268.38 127.43"/>
<path transform="translate(0,0)" style="fill: rgb(0,0,0)" stroke-linecap="round" d="M 243.86 209.01 C 258.08 210.84 275.94 212.22 290.27 212.8 C 315 213.8 340.44 211.74 365.04 209.3 C 388.09 207.02 408.94 203.64 431.09 196.7 C 439.8 193.97 450.86 190.51 458.58 185.6 C 459.08 185.28 459.56 184.92 460.03 184.54 L 460.03 209.07 C 460.03 211.07 464.55 206.72 464.77 206.48 C 464.84 206.41 464.91 206.34 464.98 206.26 L 581.08 206.26 L 581.08 207.31 C 581.08 208.53 582.75 207.39 584.11 206.26 L 643.7 206.26 C 646.02 206.26 649.07 201.74 650.21 200.19 C 650.34 200.01 650.92 199.21 651.47 198.28 C 653.14 196.49 655.31 193.93 655.28 191.79 C 655.22 184.83 652.42 178.7 649.29 172.63 C 645.36 165.02 641.45 157.42 637.7 149.73 C 634.01 142.17 630.38 134.55 627.04 126.83 C 623.82 119.4 621.07 110.02 624.51 102.16 C 625.48 99.93 624.88 99.06 622.75 100.7 C 620.23 102.64 617.54 105.57 616.26 108.52 C 609.54 123.9 617.98 138.56 624.53 152.46 C 628.46 160.81 632.57 169.09 636.79 177.3 C 639.76 183.09 643.2 188.82 644.83 195.07 L 590.61 195.07 L 590.61 123.23 C 591.46 122.01 592.12 120.7 592.2 119.45 C 592.73 110.32 569.18 123.08 565.68 124.79 C 554.27 130.35 543.76 136.51 537.37 147.88 C 530.82 159.5 542.71 170.34 550.19 177.63 C 556.52 183.8 563.22 189.6 570.16 195.07 L 513.34 195.07 C 514.95 193.3 516.85 190.94 516.85 188.91 L 516.85 114.28 C 516.99 113.91 517.07 113.55 517.01 113.27 C 515.94 108.28 510.86 107.65 506.54 107.48 C 505.63 107.45 504.24 108.9 503.69 109.4 C 502.34 110.65 501.11 112.07 500.03 113.55 C 499.67 114.05 496.34 118.6 498.36 118.68 C 501.54 118.8 506.18 119.29 507.36 122.85 C 507.35 122.9 507.34 122.95 507.34 123.01 L 507.34 195.07 L 471.17 195.07 C 470.67 195.07 470.13 195.28 469.59 195.63 L 469.59 58.6 C 469.59 58.2 469.41 58.06 469.11 58.08 C 468.54 56.82 467.56 55.89 466.24 55.15 C 464.42 54.13 461.76 53.14 459.67 53.57 C 458.61 53.78 457.56 54.8 456.81 55.49 C 455.46 56.75 454.24 58.16 453.15 59.65 C 452.97 59.9 449.52 65.18 451.47 64.79 C 453.19 64.44 454.96 65.29 456.52 65.96 C 458.12 66.64 459.73 67.88 460.03 69.68 C 460.04 69.71 460.05 69.73 460.06 69.76 L 460.06 175.55 C 447.54 184.07 425.59 190.28 408.16 193.38 C 384.08 197.66 362.08 200.41 337.66 201.43 C 310.49 202.58 279.68 201.11 252.72 197.64 C 226.17 194.23 193.36 183.63 169.05 172.07 C 160.61 168.05 148.69 162.12 148.52 157.23 C 148.44 154.58 142.06 174.61 143.79 175.86 C 162.57 189.41 182.36 196.09 204.73 201.75 C 218.17 205.15 230.1 207.24 243.86 209.01 M 548.19 154.32 C 546.74 152.23 545.86 149.89 545.31 147.42 C 545.12 146.37 545.05 145.29 545.1 144.23 C 545.29 143.57 545.41 143.07 545.48 142.68 C 549.16 140.11 553.51 138.14 557.44 136.14 C 561.78 133.92 566.23 131.92 570.75 130.08 C 572.32 129.44 578.36 126.41 581.19 127.19 C 581.11 127.51 581.07 127.81 581.07 128.11 L 581.07 185.34 C 576.71 181.96 572.43 178.46 568.28 174.83 C 561.21 168.63 553.58 162.07 548.19 154.32"/>
<path transform="translate(0,0)" style="fill: rgb(0,0,0)" stroke-linecap="round" d="M 656.51 359.84 C 653.84 343.64 645.95 328.38 633.23 317.81 C 621.3 307.9 604.76 305.15 589.73 306.85 C 581.91 307.73 574.38 310.09 567.23 313.36 C 567.25 313.34 567.28 313.31 567.29 313.3 C 568.92 311.57 572.07 308.4 572.07 305.78 L 572.07 224.82 C 572.07 222.81 567.56 227.17 567.34 227.41 C 565.71 229.14 562.56 232.31 562.56 234.93 L 562.56 315.65 C 556.76 318.67 551.24 322.22 546.04 326.02 C 536.26 333.14 526.22 341.77 519.44 352.18 L 519.04 352.18 C 518.54 352.18 518.01 352.4 517.46 352.74 L 517.46 229.13 C 517.46 228.74 517.28 228.6 516.98 228.62 C 516.41 227.35 515.43 226.42 514.11 225.68 C 512.29 224.67 509.63 223.68 507.54 224.1 C 506.48 224.31 505.44 225.33 504.69 226.02 C 503.34 227.28 502.12 228.68 501.03 230.18 C 500.85 230.43 497.4 235.7 499.35 235.31 C 501.07 234.96 502.84 235.81 504.4 236.48 C 506 237.16 507.61 238.41 507.91 240.21 C 507.91 240.24 507.93 240.26 507.94 240.29 L 507.94 368.1 C 507.94 370.1 512.46 365.74 512.68 365.51 C 513.13 365.03 513.7 364.43 514.29 363.76 C 514.57 363.77 514.98 363.61 515.41 363.38 L 643.69 363.38 C 644.24 363.38 644.82 363.12 645.41 362.72 C 646.06 365.1 646.59 367.5 647 369.95 C 647.32 371.94 651.38 367.74 651.74 367.36 C 653.09 365.92 656.89 362.16 656.51 359.84 M 524.1 352.17 C 526.53 347.28 530.7 343.81 534.92 340.28 C 540.41 335.67 546.28 331.58 552.49 328.03 C 564.61 321.1 578.2 317.25 592.19 317.58 C 614.95 318.13 632.66 332.7 641.56 352.17 L 524.1 352.17 Z"/>
<path transform="translate(0,0)" style="fill: rgb(0,0,0)" stroke-linecap="round" d="M 349.55 306.31 C 347.04 299.54 344.11 292.7 342.55 285.64 C 341.94 282.87 341.67 280.02 341.45 277.2 C 341.35 275.86 341.36 274.56 341.44 273.23 C 341.54 271.5 342.65 269.81 342.05 270.37 C 343.53 268.69 345.08 266.65 345.09 264.76 C 345.11 262.77 340.58 267.1 340.35 267.35 C 335.83 272.45 332.24 277.72 331.83 284.7 C 331.43 291.58 333.63 298.48 335.86 304.87 C 341.39 320.72 347.61 336.32 353.11 352.18 L 326.24 352.18 C 328.11 349.74 329.55 347.03 329.95 343.94 C 330.51 339.65 328.98 334.33 328.06 330.18 C 327.12 325.99 325.73 321.92 324.15 317.94 C 317.5 301.15 304.65 287.45 288.23 279.99 C 280.68 276.57 272.41 274.87 264.16 274.56 C 262.14 274.48 259.87 275.05 260.59 272.65 C 261.73 271.7 262.95 270.84 264.14 269.96 C 268.35 266.84 272.56 263.74 276.79 260.66 C 292.53 249.18 308.56 238.11 324.92 227.51 C 327.66 225.73 329.92 223.07 331.65 220.32 C 332.01 219.75 334.23 215.22 331.59 216.92 C 315.97 227.04 300.64 237.56 285.56 248.46 C 278.05 253.88 269.99 259.04 263.11 265.24 C 257.45 270.35 251.15 277.26 250.77 285.28 C 250.77 285.72 250.99 285.9 251.43 285.82 C 272.12 285.04 291.36 294.67 304.3 310.62 C 310.95 318.82 315.49 328.62 318.18 338.78 C 319.33 343.14 320.07 347.67 320.35 352.18 L 241.2 352.18 C 249 344.34 254.5 333.47 256.32 323.93 C 260.34 302.84 250.27 279.86 228.8 273.23 C 225.84 272.31 222.73 271.9 219.63 271.75 C 219.54 271.72 219.43 271.69 219.3 271.69 C 219.07 271.69 218.84 271.71 218.61 271.71 C 218.36 271.7 218.11 271.69 217.86 271.69 C 217.7 271.68 217.53 271.71 217.37 271.75 C 192.67 272.94 171.23 294.37 167.99 318.72 C 167.93 319.17 168.16 319.27 168.52 319.17 C 168.09 319.99 167.81 320.82 167.81 321.6 L 167.81 400.2 C 167.81 402.2 172.32 397.85 172.55 397.61 C 174.17 395.88 177.33 392.71 177.33 390.09 L 177.33 311.49 C 177.33 311.02 177.08 310.91 176.7 311 C 177.1 310.21 177.4 309.42 177.51 308.61 C 178.14 303.9 179.44 299.48 181.61 295.26 C 183.6 291.39 188.21 289.56 191.69 287.26 C 196.94 283.79 203.79 283.02 209.98 282.92 C 228.1 283.39 242.32 296.56 246.62 313.82 C 248.86 322.81 247.91 332.49 244.6 341.07 C 241.69 348.65 234.38 351.77 226.24 351.76 C 212.25 351.73 200.94 340.32 197.06 327.62 C 195.21 321.59 194.96 314.89 196.47 308.76 C 198.07 302.29 201.03 299.73 207.05 296.97 C 209.81 295.7 212.23 292.25 213.78 289.78 C 214.33 288.91 216.43 285.14 213.72 286.39 C 197.66 293.76 185.16 311.38 186.06 329.33 C 186.85 345.32 198.13 360.08 214.27 362.61 C 216.22 362.92 218.14 363 220.03 362.87 C 220.06 363.19 220.24 363.39 220.66 363.39 L 312.9 363.39 C 313.12 363.51 313.4 363.5 313.71 363.39 L 346.64 363.39 C 348.95 363.39 352.02 358.88 353.16 357.31 C 353.33 357.08 354.29 355.75 354.91 354.5 C 357.57 353.31 364.26 346.89 363.4 344.38 C 359.07 331.59 354.24 318.98 349.55 306.31"/>
<path transform="translate(0,0)" style="fill: rgb(0,0,0)" stroke-linecap="round" d="M 516.66 65.62 L 480.53 65.62 C 479.71 65.62 478.62 67.22 478.22 67.77 C 478.11 67.93 476.92 69.59 477.63 69.59 L 513.76 69.59 C 514.58 69.59 515.66 67.99 516.07 67.43 C 516.18 67.29 517.37 65.62 516.66 65.62"/>
<path transform="translate(0,0)" style="fill: rgb(0,0,0)" stroke-linecap="round" d="M 639.08 275.73 L 589.08 275.73 C 587.95 275.73 586.45 277.94 585.89 278.71 C 585.73 278.93 584.08 281.22 585.07 281.22 L 635.07 281.22 C 636.21 281.22 637.71 279.01 638.27 278.24 C 638.42 278.03 640.07 275.73 639.08 275.73"/>
<path transform="translate(0,0)" style="fill: rgb(0,0,0)" stroke-linecap="round" d="M 473.94 265 L 407.84 265 C 406.71 265 405.21 267.21 404.65 267.97 C 404.49 268.19 402.84 270.49 403.83 270.49 L 469.93 270.49 C 471.07 270.49 472.57 268.28 473.13 267.52 C 473.28 267.29 474.93 265 473.94 265"/>
<path transform="translate(0,0)" style="fill: rgb(0,0,0)" stroke-linecap="round" d="M 352.7 376.14 L 286.6 376.14 C 285.47 376.14 283.97 378.35 283.41 379.12 C 283.25 379.34 281.6 381.64 282.59 381.64 L 348.69 381.64 C 349.83 381.64 351.33 379.43 351.89 378.66 C 352.04 378.43 353.69 376.14 352.7 376.14"/>
<path transform="translate(0,0)" style="fill: rgb(0,0,0)" stroke-linecap="round" d="M 502.83 78.14 C 502.27 78.74 501.18 79.83 501.18 80.74 L 501.18 92.1 L 495.19 92.1 L 495.19 77.9 C 495.19 77.21 493.63 78.71 493.56 78.79 C 492.99 79.38 491.91 80.48 491.91 81.38 L 491.91 92.67 L 485.01 92.67 L 485.01 78.73 C 485.01 78.04 483.46 79.54 483.38 79.63 C 482.81 80.23 481.73 81.32 481.73 82.22 L 481.73 96.53 C 481.73 96.8 481.96 96.73 482.25 96.56 L 492.46 96.56 C 492.78 96.56 493.14 96.31 493.48 95.98 L 501.32 95.98 C 502.12 95.98 503.17 94.42 503.57 93.89 C 503.67 93.75 504.59 92.47 504.32 92.18 C 504.4 91.97 504.46 91.76 504.46 91.56 L 504.46 77.26 C 504.46 76.55 502.9 78.06 502.83 78.14"/>
<path transform="translate(0,0)" style="fill: rgb(0,0,0)" stroke-linecap="round" d="M 339.9 56.03 C 339.34 56.63 338.25 57.72 338.25 58.63 L 338.25 70 L 332.26 70 L 332.26 55.8 C 332.26 55.11 330.71 56.61 330.63 56.7 C 330.07 57.29 328.98 58.39 328.98 59.29 L 328.98 70.58 L 322.09 70.58 L 322.09 56.63 C 322.09 55.94 320.53 57.44 320.46 57.52 C 319.9 58.12 318.81 59.21 318.81 60.12 L 318.81 74.42 C 318.81 74.68 319.04 74.62 319.33 74.44 L 329.54 74.44 C 329.86 74.44 330.22 74.19 330.56 73.87 L 338.4 73.87 C 339.2 73.87 340.25 72.31 340.65 71.77 C 340.75 71.63 341.67 70.36 341.4 70.06 C 341.49 69.85 341.54 69.64 341.54 69.45 L 341.54 55.15 C 341.53 54.45 339.98 55.96 339.9 56.03"/>
<path transform="translate(0,0)" style="fill: rgb(0,0,0)" stroke-linecap="round" d="M 624.9 244.36 C 623.77 245.79 623.19 247.91 622.9 249.67 C 623.22 247.72 622.83 249.22 621.89 249.92 C 621 250.57 619.88 250.68 618.81 250.67 C 616.75 250.64 615.55 249.11 614.87 247.36 C 613.08 242.77 614.8 238.12 616.42 233.82 C 616.91 232.53 617.89 230.17 617.32 228.76 C 616.88 227.69 615.43 231.01 615.36 231.18 C 612.54 238.63 608.71 248.55 612.68 256.28 C 614.24 259.33 618.26 258.97 620.62 257.23 C 623.8 254.9 625.08 249.8 625.69 246.16 C 625.75 245.69 626 242.96 624.9 244.36"/>
<path transform="translate(0,0)" style="fill: rgb(0,0,0)" stroke-linecap="round" d="M 435.3 133.21 C 433.86 135.04 433.11 137.75 432.74 140.01 C 433.15 137.51 432.65 139.44 431.44 140.33 C 430.3 141.17 428.87 141.32 427.5 141.3 C 424.86 141.26 423.33 139.3 422.45 137.05 C 420.16 131.17 422.35 125.22 424.44 119.7 C 425.07 118.05 426.32 115.02 425.58 113.23 C 425.03 111.86 423.16 116.11 423.07 116.33 C 419.46 125.87 414.55 138.58 419.63 148.48 C 421.63 152.39 426.78 151.92 429.8 149.71 C 433.88 146.72 435.52 140.19 436.29 135.52 C 436.4 134.92 436.71 131.42 435.3 133.21"/>
<path transform="translate(0,0)" style="fill: rgb(0,0,0)" stroke-linecap="round" d="M 496.88 148.37 C 495.43 150.2 494.69 152.91 494.31 155.17 C 494.72 152.67 494.22 154.6 493.01 155.49 C 491.87 156.33 490.43 156.48 489.07 156.45 C 486.43 156.41 484.9 154.45 484.02 152.2 C 481.73 146.32 483.92 140.38 486.01 134.85 C 486.64 133.2 487.89 130.17 487.16 128.37 C 486.61 127 484.74 131.25 484.65 131.47 C 481.04 141.02 476.12 153.72 481.21 163.62 C 483.21 167.53 488.36 167.06 491.38 164.85 C 495.46 161.86 497.1 155.33 497.87 150.67 C 497.97 150.08 498.29 146.58 496.88 148.37"/>
<path transform="translate(0,0)" style="fill: rgb(0,0,0)" stroke-linecap="round" d="M 549.92 270.56 C 548.47 272.39 547.73 275.1 547.35 277.36 C 547.76 274.86 547.26 276.79 546.05 277.68 C 544.9 278.52 543.47 278.67 542.1 278.65 C 539.46 278.61 537.93 276.65 537.05 274.4 C 534.75 268.52 536.95 262.58 539.04 257.05 C 539.66 255.4 540.91 252.37 540.18 250.57 C 539.63 249.2 537.76 253.45 537.67 253.67 C 534.06 263.21 529.15 275.92 534.23 285.82 C 536.23 289.73 541.38 289.26 544.4 287.05 C 548.48 284.06 550.12 277.53 550.89 272.86 C 551.01 272.27 551.33 268.78 549.92 270.56"/>
<path transform="translate(0,0)" style="fill: rgb(0,0,0)" stroke-linecap="round" d="M 220.66 82.71 C 219.31 84.42 218.61 86.97 218.26 89.08 C 218.65 86.74 218.18 88.55 217.04 89.38 C 215.97 90.17 214.63 90.3 213.35 90.28 C 210.87 90.24 209.44 88.41 208.61 86.3 C 206.47 80.79 208.52 75.23 210.48 70.05 C 211.07 68.5 212.23 65.67 211.55 63.98 C 211.03 62.7 209.28 66.68 209.2 66.89 C 205.82 75.83 201.21 87.73 205.98 97 C 207.86 100.67 212.68 100.23 215.51 98.15 C 219.33 95.35 220.87 89.24 221.6 84.86 C 221.68 84.31 221.98 81.04 220.66 82.71"/>
<path transform="translate(0,0)" style="fill: rgb(0,0,0)" stroke-linecap="round" d="M 438.46 235.51 C 437.01 237.34 436.26 240.05 435.89 242.31 C 436.3 239.82 435.81 241.74 434.59 242.63 C 433.45 243.47 432.01 243.62 430.64 243.6 C 428 243.56 426.47 241.6 425.59 239.35 C 423.3 233.47 425.49 227.52 427.58 222 C 428.21 220.35 429.45 217.33 428.72 215.52 C 428.17 214.15 426.3 218.4 426.21 218.62 C 422.6 228.17 417.69 240.87 422.77 250.78 C 424.77 254.69 429.92 254.22 432.94 252.01 C 437.02 249.02 438.66 242.49 439.43 237.82 C 439.56 237.23 439.87 233.72 438.46 235.51"/>
<g transform="matrix(0.7069 -0.7073 0.7073 0.7069 598.8643 80.8177)" id="XMLID_381_">
<rect transform="translate(0,0)" style="fill: rgb(0,0,0)" x="-5.76" y="-5.76" width="11.52" height="11.52"/>
</g>
<g transform="matrix(0.7071 -0.7071 0.7071 0.7071 614.9591 80.8125)" id="XMLID_380_">
<rect transform="translate(0,0)" style="fill: rgb(0,0,0)" x="-5.76" y="-5.76" width="11.52" height="11.52"/>
</g>
<g transform="matrix(0.7069 -0.7073 0.7073 0.7069 554.3442 80.8168)" id="XMLID_379_">
<rect transform="translate(0,0)" style="fill: rgb(0,0,0)" x="-5.76" y="-5.76" width="11.52" height="11.52"/>
</g>
<g transform="matrix(0.7071 -0.7071 0.7071 0.7071 570.4389 80.8113)" id="XMLID_378_">
<rect transform="translate(0,0)" style="fill: rgb(0,0,0)" x="-5.76" y="-5.76" width="11.52" height="11.52"/>
</g>
<g transform="matrix(0.7073 -0.707 0.707 0.7073 319.1466 252.5808)" id="XMLID_377_">
<rect transform="translate(0,0)" style="fill: rgb(0,0,0)" x="-5.76" y="-5.76" width="11.52" height="11.52"/>
</g>
<g transform="matrix(0.7071 -0.7071 0.7071 0.7071 332.378 252.5816)" id="XMLID_376_">
<rect transform="translate(0,0)" style="fill: rgb(0,0,0)" x="-5.76" y="-5.76" width="11.52" height="11.52"/>
</g>
<g transform="matrix(0.7071 -0.7071 0.7071 0.7071 473.5147 227.3172)" id="XMLID_375_">
<rect transform="translate(0,0)" style="fill: rgb(0,0,0)" x="-9.56" y="-9.56" width="19.12" height="19.12"/>
</g>
<path transform="translate(0,0)" style="fill: rgb(0,0,0)" stroke-linecap="round" d="M 227.46 231.14 C 227.5 230.71 227.35 230.42 226.87 230.42 L 197.43 230.42 C 195.25 230.42 192.37 234.67 191.3 236.14 C 190.99 236.56 187.83 240.97 189.72 240.97 L 213.73 240.97 C 211.4 242.31 209.06 243.62 206.8 244.97 C 204.2 246.52 202.06 249.21 200.47 251.73 C 200.09 252.33 198.02 256.43 200.52 254.93 C 208.41 250.21 216.75 245.85 223.37 239.36 C 225.48 237.28 227.89 234.77 228.85 231.9 C 229.4 230.32 228.46 230.55 227.46 231.14"/>
<path transform="translate(0,0)" style="fill: rgb(0,0,0)" stroke-linecap="round" d="M 230.08 117.94 C 228.39 118.88 227.11 120.67 226.05 122.24 C 222.89 126.92 221.22 132.59 219.26 137.84 C 218.44 140.05 217.62 142.26 216.8 144.47 C 216.33 139.62 215.68 134.79 214.83 129.99 C 213.82 124.15 211.9 119.2 206.61 115.99 C 206.52 115.93 206.42 115.91 206.31 115.91 C 206.25 115.88 206.19 115.86 206.11 115.86 C 203.68 115.74 201.26 115.7 198.83 115.71 C 198.27 115.71 197.47 116.54 197.12 116.86 C 196.31 117.61 195.58 118.46 194.93 119.35 C 194.74 119.62 192.72 122.43 193.92 122.43 C 196.31 122.4 198.69 122.46 201.06 122.57 C 201.07 122.58 201.09 122.6 201.1 122.61 C 206.63 125.98 208.26 131.09 209.32 137.17 C 210.48 143.85 211.22 150.6 211.64 157.36 C 211.73 158.72 216.22 153.64 216.52 153.19 C 219.58 148.65 221 142.86 222.89 137.76 C 224 134.76 225.11 131.75 226.24 128.75 C 227.35 125.81 228.32 122.6 230.09 119.98 C 230.4 119.56 231.68 117.05 230.08 117.94"/>
</svg>