<?xml version="1.0" encoding="UTF-8" standalone="no"?><!DOCTYPE svg PUBLIC "-//W3C//DTD SVG 1.1//EN" "http://www.w3.org/Graphics/SVG/1.1/DTD/svg11.dtd"><svg xmlns="http://www.w3.org/2000/svg" xmlns:xlink="http://www.w3.org/1999/xlink" version="1.1" width="800" height="500" viewBox="0 0 800 500">
<desc>Created with SVGMaker Editor 2.2.3</desc>
<defs>
</defs>
<path transform="translate(0,0)" style="fill: rgb(0,0,0)" stroke-linecap="round" d="M 564.1 143.3 C 564.1 143.3 700.7 131.1 700 130.5 C 698.6 117 698.3 114.1 696.8 100.3 C 696.5 100.2 686.9 102.2 673 105.2 C 674.7 107.9 675.8 111.3 675.7 115.4 C 675.7 115.4 673.2 109.7 668.8 106 C 667.7 106.3 666.5 106.5 665.4 106.8 C 669.7 111.1 675.5 118.6 674.8 127.9 C 674.8 127.9 668 112.6 658.1 108.4 C 618.7 116.8 563.4 128.8 563.4 128.9 C 564.9 142.7 562.7 130 564.1 143.3"/>
<path transform="translate(0,0)" style="fill: rgb(0,0,0)" stroke-linecap="round" d="M 385.2 138 C 379.7 143.9 379.8 153.2 385.5 159 L 401.5 175 C 407.4 180.9 417 180.9 422.9 175 L 438.9 159 C 444.8 153.1 444.8 143.5 438.9 137.6 L 422.9 121.6 C 417 115.7 407.4 115.7 401.5 121.6 L 396.6 126.5 C 401 129.4 405.1 134 406.7 141.3 C 406.3 140.7 400.1 132.8 392.5 130.6 L 390.3 132.8 C 396.5 136.3 407.1 144 408.8 156.3 C 408.9 156.3 397.6 141 385.2 138"/>
<path transform="translate(0,0)" style="fill: rgb(0,0,0)" stroke-linecap="round" d="M 162.6 177.4 C 168.5 183.3 178.1 183.3 184 177.4 L 200 161.4 C 205.9 155.5 205.9 145.9 200 140 L 184 124 C 178.1 118.1 168.5 118.1 162.6 124 L 157.7 128.9 C 162.1 131.8 166.2 136.4 167.8 143.7 C 167.4 143.1 161.2 135.2 153.6 133 L 151.4 135.2 C 157.6 138.7 168.2 146.4 169.9 158.7 C 169.9 158.7 158.6 143.5 146.2 140.4 C 140.7 146.3 140.8 155.6 146.5 161.4 L 162.6 177.4 Z"/>
<path transform="translate(0,0)" style="fill: rgb(0,0,0)" stroke-linecap="round" d="M 219 193.9 L 191.1 193.9 C 193.8 197.4 195.9 201.7 197.1 207 C 197.1 207 190.6 198.3 181.7 193.9 L 175.1 193.9 L 175.1 195.5 C 183.7 200.5 197.6 210.9 200 227.5 C 200 227.5 188.8 212.4 175.1 205.3 L 175.1 301 C 162.6 290.7 158.1 280.5 158 261.5 C 157.8 226.6 157.1 263.4 158 228.5 C 158.8 198.7 146.1 178.8 119.1 167 C 113.7 164.6 110.5 164.7 106.2 169.1 C 105.9 169.4 105.6 169.8 105.3 170.1 C 110.1 174.2 114.2 179.9 116 188.1 C 116 188.1 109.4 179.3 100.6 175 C 99.4 176.2 98.3 177.4 97.1 178.5 C 105.6 184 116.9 193.9 119 208.6 C 119 208.6 105.9 191 90.7 184.8 C 86.3 189.1 82 193.2 78 197.2 C 80.9 198.4 83.7 199.8 86.4 201.4 C 86.6 201.4 86.9 201.4 87.1 201.5 C 99.4 205 109.9 211.4 113.3 224.7 C 115.3 232.5 116.5 240.8 116.6 248.8 C 117 280.2 116.8 240 117 271.4 C 117.1 293 124.8 311.3 141.2 325.6 C 149.5 332.8 158.2 339.4 168.1 347.5 C 180.9 334.2 192.9 320.9 206 308.7 C 215 300.4 221.8 292 219.5 278.9 C 219.3 278.9 219 193.9 219 193.9"/>
<path transform="translate(0,0)" style="fill: rgb(0,0,0)" stroke-linecap="round" d="M 637.6 241.4 L 647.7 251.5 L 647.7 224.7 L 625.8 200.3 L 625.7 201.8 C 621.6 196 616.7 190.7 610.9 185.8 C 606.4 182 601.7 178.2 597.8 175 C 597.4 175.2 596.8 175.2 596.5 174.7 C 595.9 173.8 595.2 173 594.4 172.3 C 594 172 593.6 171.6 593.2 171.3 L 593.2 171.3 C 590.5 169.3 587.3 167.9 584.6 165.9 C 584.5 165.8 584.4 165.7 584.4 165.7 C 583.2 166.9 582.1 168.1 581 169.3 C 587.2 173.3 593 179.7 595.2 189.9 C 594.7 189.2 586.1 178.1 575.5 175.2 C 574.6 176.2 573.6 177.2 572.7 178.2 C 581.2 183 595.8 193.6 598.2 210.5 C 598.2 210.5 582.8 189.8 566 185.4 C 559 192.9 551.8 200.3 544.2 207.2 C 535.8 214.9 531.9 222.7 532.8 234 C 533.8 246.5 533 259.2 533 272.1 C 527.9 273.8 521.1 276.2 512.5 279.1 L 512.5 247.7 C 512.6 247.5 512.3 246.8 511.6 245.8 C 511.6 226.2 503.8 213.9 493.7 206.1 C 483.6 198.3 471.1 195.1 461.8 193.9 C 459.7 193.3 457.4 193 454.8 193 C 453.6 193 452.4 193 451.2 193 C 449.4 193 448.3 193 448.3 193 C 412.7 193.2 411.6 193.1 373.6 193.1 C 376.5 196.7 378.9 201.2 380.1 206.9 C 380.1 206.9 372.8 197.1 363.2 193.1 L 361 193.1 L 361 193.1 L 355.8 193.1 L 355.8 193.8 L 355.1 193.8 C 363 197.8 380.3 208.7 383.1 227.4 C 383.1 227.4 369.8 209.5 354.4 203.4 L 354.4 255 C 349.5 255 344 255.1 337.6 255.1 C 335.5 255.1 333.4 254.7 330.4 254.4 L 330.4 193.8 L 308 193.8 C 310.7 197.3 312.8 201.6 314 206.9 C 314 206.9 307.5 198.2 298.6 193.8 L 289 193.8 C 296.9 197.8 314.2 208.7 317 227.4 C 317 227.4 302.6 208 286.4 202.8 L 286.4 300.8 C 273.9 290.5 269.4 280.3 269.3 261.3 C 269.1 226.4 268.4 170.7 269.3 135.8 C 269.6 124 267.8 113.8 263.8 105 L 492.8 105 L 492.8 105 C 493.2 105 493.6 105 494 105 C 509.6 105 522.6 117.4 523.2 133.1 C 523.7 145.3 514.1 155.7 501.9 156.2 C 492.8 156.5 485.1 149.4 484.7 140.3 C 484.6 137.1 485.7 134 487.9 131.7 C 490.1 129.3 493 128 496.3 127.9 C 501 127.7 504.8 131.3 505 136 C 505.1 139 502.8 141.6 499.7 141.7 L 500.2 153.9 C 509.9 153.5 517.6 145.3 517.2 135.5 C 516.8 124.2 507.2 115.3 495.8 115.7 C 489.3 116 483.4 118.7 479 123.5 C 474.6 128.2 472.3 134.4 472.6 140.9 C 473.2 156.4 486 168.5 501.3 168.5 C 501.7 168.5 502.1 168.5 502.4 168.5 C 521.3 167.8 536.2 151.7 535.4 132.8 C 534.5 110.5 516.1 93 493.9 93 L 493.9 92.2 L 255.6 92.2 C 249.4 85 241 79.1 230.4 74.4 C 225 72 221.8 72.1 217.5 76.5 C 216.2 77.8 215 79.2 213.7 80.5 C 218.9 84.6 223.5 90.5 225.4 99.3 C 225.4 99.3 218.2 89.7 208.7 85.6 C 207.5 86.7 206.4 87.9 205.3 89 C 213.9 94.3 226.1 104.5 228.4 119.8 C 228.4 119.8 214.5 101.1 198.7 95.5 C 195.7 98.4 192.8 101.3 189.9 104 C 192.3 105.4 194.5 107 196.5 108.9 C 197.2 108.8 197.8 108.8 198.3 108.9 C 210.6 112.4 221.1 118.8 224.5 132.1 C 226.5 139.9 227.7 168.9 227.8 177 C 228.2 208.4 228 239.9 228.2 271.3 C 228.3 292.9 236 311.2 252.4 325.5 C 260.7 332.7 269.4 339.3 279.3 347.4 C 292.1 334.1 304.1 320.8 317.2 308.6 C 326.2 300.3 333 291.9 330.7 278.8 C 330.7 278.6 331.5 278.1 332.4 277.5 C 335.6 280.3 339.3 282.8 342.2 286.1 C 349.2 294.1 357.8 294.1 368.1 295.9 C 371.2 296.4 427.2 295.7 429.3 295.7 C 447.1 295.7 461.9 293.1 474.7 286.1 C 474.8 296.1 474.8 306.1 474.9 316.1 C 474.9 318.4 475.8 321.2 477.3 322.8 C 485.2 331.2 493.5 339.3 501.5 347.3 C 508 338.8 514 330.8 520.3 323 C 525.3 316.8 531.6 313.9 540 314.2 C 556 314.8 572.1 314.4 588.1 314.4 L 637.8 314.4 C 637.7 289.3 638.3 265.3 637.6 241.4 M 429.9 254.5 C 417.4 254.7 408.2 254.8 400.6 254.8 C 399.8 254.7 399.1 254.6 398.2 254.5 L 398.2 237 L 469.9 237 C 459.1 251.5 444.8 254.3 429.9 254.5 M 578.5 272.5 L 578.5 212.3 C 597.9 228 595.7 249.1 596.9 270.1 C 590.3 271 584.9 271.7 578.5 272.5"/>
<path transform="translate(0,0)" style="fill: rgb(0,0,0)" stroke-linecap="round" d="M 303.5 171.3 C 308.4 166.6 313.4 161 320.2 159.1 C 327 157.2 335.4 159.1 342.2 159.8 C 345.1 160.1 348.9 138.7 349 138.7 C 341.6 138 333.3 136.3 326 138.3 C 321.5 139.6 317.4 143.1 313.9 146.6 C 314.1 141.8 314 136.8 312 132.7 C 308.7 125.8 301.9 120.8 296.4 115.7 C 296.5 115.8 283 132.8 285.1 134.8 C 290.1 139.5 297.1 144.5 300.2 150.9 C 303.3 157.2 302.4 164.7 302.1 171.5 C 302.1 171.8 302.6 171.3 303.3 170.5 C 303.3 171.2 303.3 171.5 303.5 171.3"/>
<path transform="translate(0,0)" style="fill: rgb(0,0,0)" stroke-linecap="round" d="M 445.6 306.4 C 435.5 303.3 421.2 319.9 414.6 325.5 C 413.6 326.4 412.6 327.2 411.5 328 C 410.7 328.6 409.6 328.8 408.7 328.5 C 403.1 326.4 399.4 323.1 394 320.3 C 388.2 317.3 386.6 320.7 382 324.7 C 372.9 332.5 362.6 338.2 351.4 341.3 C 350.9 341.4 350.4 341.7 350.1 342.1 L 350 342.2 C 348 344.4 350 347.8 352.9 347.1 C 359.2 345.5 365.2 342.9 371.2 339.3 C 374.7 337.1 380.2 329.8 384.4 329.4 C 387.6 329.1 391.5 333.2 393.9 334.8 C 394.2 335 394.4 335.1 394.7 335.3 C 396.5 336.4 396.6 338.9 394.9 340.2 C 391.3 342.9 387.7 345.6 384.4 348.5 C 383.5 349.3 383.7 351.6 382.7 352.2 C 388.9 348.3 395.1 344.4 401.1 340.1 C 401.9 339.5 402.9 339.4 403.8 339.8 C 412.7 343 422.6 343.7 431.5 340.7 C 437.7 338.5 443.3 334.5 446.7 328.7 C 447.8 326.8 448.7 324.8 449.4 322.6 C 449.7 321.6 450.1 320.6 450.4 319.5 C 451.4 316.4 452 312.7 450.3 309.8 C 449.3 308.1 447.5 307 445.6 306.4 M 444.3 325.6 C 435.7 331.4 424.4 332.3 414.1 330 C 414.3 329.8 414.5 329.7 414.7 329.5 C 419.7 325 426.2 321.5 432.3 318.7 C 437.5 316.3 442.8 317.8 445.2 321.6 C 446.1 322.9 445.6 324.7 444.3 325.6"/>
<path transform="translate(0,0)" style="fill: rgb(0,0,0)" stroke-linecap="round" d="M 722.1 238.1 L 722.1 211.3 C 722.1 211.3 674.1 161.2 661 148.5 L 661.1 164.3 C 669.4 167.7 678.9 174.6 681.9 188.3 C 681.3 187.6 672.1 175.7 661.1 173.3 L 661.1 177.6 C 669.8 182.8 682.6 193.1 684.9 208.9 C 684.9 208.9 674.4 194.7 661.1 187.3 L 661.1 192.8 C 661.4 192.5 661.6 192.3 661.9 192 C 662.4 191.6 662.3 191.6 664.2 190.6 L 664 302.2 C 660.8 323.5 643.1 331.1 629.9 343.3 C 628.6 344.9 627.1 346.4 625.4 347.7 C 635.5 356.4 645.9 364.8 656 373.3 C 696.2 349.2 709.6 326.2 709.7 280.5 C 709.7 275.4 709.5 247.5 709.5 225.8 L 722.1 238.1 Z"/>
</svg>