<?xml version="1.0" encoding="UTF-8" standalone="no"?><!DOCTYPE svg PUBLIC "-//W3C//DTD SVG 1.1//EN" "http://www.w3.org/Graphics/SVG/1.1/DTD/svg11.dtd"><svg xmlns="http://www.w3.org/2000/svg" xmlns:xlink="http://www.w3.org/1999/xlink" version="1.1" width="800" height="500" viewBox="0 0 800 500">
<desc>Created with SVGMaker Editor 2.2.3</desc>
<defs>
</defs>
<path transform="translate(0,0)" style="fill: rgb(35,31,32)" stroke-linecap="round" d="M 590.9 167.1 L 582.1 188.5 C 582.1 188.5 654.9 145 691.1 215.5 C 715.8 263.6 687.2 315.9 674.9 340 C 674.6 340.5 674.9 341.8 676.9 338.9 C 689.4 321.2 732.5 252.4 706.8 203.2 C 662.8 119 590.9 167.1 590.9 167.1"/>
<path transform="translate(0,0)" style="fill: rgb(35,31,32)" stroke-linecap="round" d="M 527.5 303.8 C 514.7 338.8 500.8 359.5 477.7 357.4 C 457.3 355.6 452.7 327.4 452.7 327.4 C 449.4 299.1 457.6 271.1 477.3 256.4 C 479.3 254.9 479.6 258.8 479.6 258.8 C 479.6 258.8 511.5 345.1 397.5 375 C 397.5 375 395.7 376.8 397.5 376.9 C 399.3 377 464.6 375.5 475.7 336.3 C 477.5 329.9 506.5 277.8 490.2 236.2 C 489.5 234.4 488.3 235.1 486.4 236.9 C 455.3 264.7 437.2 307.2 446.6 352 C 450.8 372.1 487.2 411.2 518.3 340.1 C 524.5 325.9 556.7 269.6 547.6 200.5 C 547.4 198.7 545.3 197 543 200.5 C 531.9 217.6 505.7 240.3 504.8 283.7 C 504.7 288.8 499.7 358.1 556 368.8 C 573.8 372.2 600.5 363.1 617 313.9 C 622.7 296.9 617.5 274 600.1 269.5 C 587.1 266.1 574.7 277.2 565.6 302.4 C 558.8 321.1 563.7 342.7 588.5 348.3 C 601.9 351.3 614.1 349.1 628.3 340.7 C 641.5 333 660.5 295.7 662.1 281.1 C 664.7 257.4 660.4 226.3 624.6 215.8 C 618.6 214 558.6 200.7 543.4 296.4 C 543.3 296.7 544.5 296.2 544.6 295.9 C 551.6 282.1 570.1 229.8 614.1 237.8 C 654.6 245.2 650 292.5 649 297.4 C 645.3 315.9 619.8 331.7 597.4 327.4 C 575.3 323.1 570.1 302 573.5 298.2 C 581.9 288.7 589.6 291 593.3 292.2 C 604.8 296 607.9 316.9 606.9 319.8 C 595.7 349.9 521.6 365.7 515.3 288.2 C 512.2 250.6 532.8 219.8 533.2 219.3 C 533.8 218.5 534.6 217.1 535 219.5 C 535.1 219.5 541.6 265.2 527.5 303.8"/>
<path transform="translate(0,0)" style="fill: rgb(35,31,32)" stroke-linecap="round" d="M 525.5 181 C 525.5 181 519.6 192.2 513.9 194.2 C 508.2 196.2 504.1 198.1 501.9 198.1 C 499.7 198.1 495.6 199.5 493.5 202 C 491.4 204.5 484 207.9 488.7 201 C 493.4 194.1 501.1 189.5 503.5 189.1 C 505.8 188.7 517 185.2 521.5 180.8 C 525.9 176.2 526.9 179.8 525.5 181"/>
<path transform="translate(0,0)" style="fill: rgb(35,31,32)" stroke-linecap="round" d="M 523.7 159.3 C 519.8 165.4 518.5 173.3 500 175.2 C 499 175.3 497.4 175.9 496.1 176.6 C 494.9 177.3 489.7 180.9 488.1 180.7 C 486.5 180.5 487.6 178.5 488.4 177.9 C 489.2 177.4 501.1 168.1 504.4 167.7 C 507.7 167.3 517.6 163.9 520.7 159.4 C 523.7 154.8 524.8 157.5 523.7 159.3"/>
<path transform="translate(0,0)" style="fill: rgb(35,31,32)" stroke-linecap="round" d="M 576 135.9 C 575.3 137.9 573.7 142.4 573.1 144 C 572.6 145.6 571.5 151.2 575.1 150 C 578.8 148.8 584.3 149.5 586 152.5 C 587.6 155.5 590.8 167.1 576.1 174.5 C 575.5 174.8 572.2 175.6 574.2 172.3 C 576.2 169 579.1 166.5 578.4 164.6 C 577.7 162.7 569.6 164.5 568.4 165.3 C 567.2 166.1 558 170 560.8 158.7 C 562.4 152.3 571.5 136.7 573 135.3 C 574.5 133.9 577.1 132.8 576 135.9"/>
<path transform="translate(0,0)" style="fill: rgb(35,31,32)" stroke-linecap="round" d="M 453.2 238.4 C 452.7 284.2 411.2 378.5 333.5 377.2 C 267.6 376.1 239.6 323.1 243.9 288.7 C 244 287.9 243.8 285.7 245 285.9 C 246.2 286 247.6 287.5 247.7 288.8 C 256.7 357.1 337.3 353.1 344 351.8 C 430.7 335.8 447.9 244.9 448.9 239.4 C 449.9 233.9 453.3 231.8 453.2 238.4"/>
<path transform="translate(0,0)" style="fill: rgb(35,31,32)" stroke-linecap="round" d="M 438.6 162.4 C 444.1 170.7 446.4 177.2 463.3 183.6 C 464.3 184 465.9 184.3 466.7 186 C 467.6 188 467.7 208.8 457.6 215.5 C 456.8 216 455.4 216.9 453.7 215.5 C 453.7 215.5 441.9 201.9 426.1 217.1 C 418.9 224 409.4 247.1 404.9 257.5 C 392.4 286.3 355.2 330.4 320.6 324.7 C 274.9 317.3 278.5 272.6 280.3 251.8 C 283.9 209 318.9 174.1 327.8 168.3 C 335.3 163.4 355.8 148.1 378.3 154.5 C 402.5 161.4 402.2 190.2 395.3 207.6 C 364.7 284.4 298.2 278.9 287.2 276.6 C 276.3 274.3 259.5 262.6 252.8 248.2 C 252.5 247.6 250.8 246.8 250.4 248.5 C 250 250.1 239.1 265.7 223.8 262.1 C 206 257.9 175.7 229.6 209 160.1 C 209.3 159.4 209.7 157.9 211.3 158.3 C 212.9 158.7 212.5 160.1 212.3 161 C 212 162 188.4 219.7 223.2 236.9 C 232.7 241.6 250.4 237.7 257 211.5 C 257.2 210.6 257.8 208.5 259.5 208.6 C 261.1 208.7 261.7 210.8 261.5 212.1 C 261.4 213.5 259.7 222.4 259.7 222.4 C 259.7 222.4 261 246.3 289.7 252.9 C 317.6 259.3 356.5 246.6 383.1 214.9 C 385.4 212.1 386.4 211.6 386 200.6 C 385.6 189.6 378.1 175.1 362.5 174 C 346.9 172.9 319.9 180.4 298.6 211.7 C 292 221.4 287.7 233.7 289.4 264.1 C 290.1 277 301.2 299.6 325.6 301 C 348.1 302.4 389.8 274.4 407.5 233.2 C 407.5 233.2 417.6 206.1 434 192.5 C 434 192.5 425.4 184.4 425 178.5 C 425 178.5 435 166 436.1 162.1 C 436.2 161.8 436.7 159.5 438.6 162.4"/>
<path transform="translate(0,0)" style="fill: rgb(35,31,32)" stroke-linecap="round" d="M 272.7 154 C 272.7 154 271.3 152.9 270.2 154.3 C 269.2 155.7 258.9 170.3 258.9 170.3 C 258.9 170.3 257.3 172.9 259.7 174 C 262.1 175 276.6 183 276.5 184.3 C 276.4 185.6 275.3 190.1 278.9 188.7 C 282.5 187.3 290.4 172.5 291.1 168.4 C 291.9 164.3 286.7 161.3 285.6 160.6 C 284.4 160 272.7 154 272.7 154"/>
<path transform="translate(0,0)" style="fill: rgb(35,31,32)" stroke-linecap="round" d="M 162.3 262 C 162.3 262 160.9 260.9 159.8 262.3 C 158.8 263.7 148.5 278.3 148.5 278.3 C 148.5 278.3 146.9 280.9 149.3 282 C 151.7 283 166.2 291 166.1 292.3 C 166 293.6 164.9 298.1 168.5 296.7 C 172.1 295.3 180 280.5 180.7 276.4 C 181.5 272.3 176.3 269.3 175.2 268.6 C 174.1 267.9 162.3 262 162.3 262"/>
<path transform="translate(0,0)" style="fill: rgb(35,31,32)" stroke-linecap="round" d="M 238.3 274.7 C 238.5 273.6 239 271.3 238 270.4 C 237 269.4 236 273.1 235.4 274.6 C 234.9 276.1 202.1 351.2 135.2 330.1 C 90.4 316 93.7 264.6 94.3 261.4 C 102.6 220 157.2 193.1 159.9 190.5 C 160.3 190.1 161.5 187.8 157.7 189.4 C 145.6 194.6 119.1 210 111.1 219.5 C 103.1 229 70.7 268.6 92.2 321.3 C 99.9 340.2 126.1 362 165.8 357 C 193.2 353.6 226.9 327.3 238.3 274.7"/>
</svg>