<?xml version="1.0" encoding="UTF-8" standalone="no"?><!DOCTYPE svg PUBLIC "-//W3C//DTD SVG 1.1//EN" "http://www.w3.org/Graphics/SVG/1.1/DTD/svg11.dtd"><svg xmlns="http://www.w3.org/2000/svg" xmlns:xlink="http://www.w3.org/1999/xlink" version="1.1" width="800" height="500" viewBox="0 0 800 500">
<desc>Created with SVGMaker Editor 2.2.3</desc>
<defs>
</defs>
<path transform="translate(0,0)" style="fill: rgb(0,0,0)" stroke-linecap="round" d="M 408.2 150.3 L 375.3 158.8 L 362.6 228.5 L 357.8 228.7 L 341.6 229.4 L 332.7 229.8 L 349.4 138.3 L 296.6 140.6 C 275.1 141.5 255.8 145.9 249.1 174.7 L 231.7 263.9 L 222.4 310.5 C 222.4 310.5 254.5 301.5 254.5 301.5 C 254.5 301.5 254.5 301.5 254.5 301.5 L 268.8 233.3 C 272.6 234 276.8 234.2 281.5 234 L 341.6 231.4 L 357.8 230.7 L 393.9 229.1 L 408.2 150.3 Z M 301 231.1 L 281.3 232 C 271 232.4 271.9 219.4 274.5 204.6 L 277.6 187.7 L 278.2 184.7 L 278.5 183.1 L 280.2 173.3 C 282.5 160.7 285.4 143 296.3 142.5 L 317.3 141.6 L 301 231.1 Z"/>
<polygon transform="translate(0,0)" style="fill: rgb(0,0,0)" points="323.7,268.4 338.9,286.4 355.3,267 340.2,248.9"/>
<polygon transform="translate(0,0)" style="fill: rgb(0,0,0)" points="370.4,285 386.9,265.6 371.7,247.6 355.3,267"/>
<path transform="translate(0,0)" style="fill: rgb(0,0,0)" stroke-linecap="round" d="M 598.5 196.8 L 600.2 188.3 C 606.1 157.1 592.9 142.5 565.9 143.4 L 520.2 145.4 L 578.1 77.6 L 545 64.1 L 483.3 138.1 L 490 148.6 L 518.6 147.4 L 565 145.4 C 575.3 145.2 574.4 158 571.8 172.5 L 567.9 193 L 563.1 219.8 L 483.5 223.3 L 461.3 224.3 C 462.1 221.6 462.6 218.8 463.2 215.8 L 466.6 198 L 475.9 147.2 L 443 155.7 L 434.8 200.2 L 428.6 234.4 C 425.5 251.1 421.3 261.6 412.3 262.5 L 412.2 264.7 C 435.8 263.1 453.1 250.7 460.8 226.3 L 483.4 225.3 L 562.7 221.9 L 594.3 220.5 L 598.5 196.8 Z"/>
<polygon transform="translate(0,0)" style="fill: rgb(0,0,0)" points="179.7,344.5 194.8,362.5 211.2,343.1 196.1,325"/>
<path transform="translate(0,0)" style="fill: rgb(0,0,0)" stroke-linecap="round" d="M 219.9 324 L 208.4 385.8 L 208.2 385.8 L 200 430.6 L 180.1 431.5 L 180.1 431.2 C 162.3 432 164 409.9 169.6 380.2 L 170.8 373.4 L 175.1 348.5 L 142.4 356.7 L 139.3 374.7 L 139.1 374.7 L 138.5 378.2 C 135.1 397.6 137.1 411.6 144.5 420.8 C 151.9 429.7 163.2 433.8 177.8 433.4 L 199.7 432.4 L 231.3 431 L 236.9 400.4 L 252.7 315.7 L 219.9 324 Z"/>
<polygon transform="translate(0,0)" style="fill: rgb(0,0,0)" points="460.6,264.4 475.7,282.4 492.1,262.7 476.8,245"/>
<path transform="translate(0,0)" style="fill: rgb(0,0,0)" stroke-linecap="round" d="M 593 379 L 610 285.6 L 578.4 287 L 557.1 287.9 C 535.6 288.8 516.3 293.2 509.6 322 L 506.8 336.5 C 502 361.6 509.8 375.9 527 380.1 L 498.4 381.3 L 484.7 381.9 L 478.1 382.2 L 486.3 337.4 C 492.2 306 478.8 291.4 451.4 292.6 L 416 294.1 L 399.8 294.8 L 381.7 295.6 L 365 387.1 L 350.1 387.7 L 364 310.9 L 331.3 319.1 L 318.6 389.1 L 310.1 389.5 L 296.8 390.1 L 291.8 390.3 L 318.4 244.7 L 285.7 252.9 L 260 393.6 L 271.2 393.1 L 296.8 392 L 310.1 391.4 L 318.3 391 L 359.5 389.2 L 376.2 388.5 L 446.4 385.4 L 484.8 383.7 L 498.5 383.1 L 542.2 381.2 L 561.6 380.4 L 593 379 Z M 458 321.5 L 454.7 338.7 L 454.9 338.7 L 446.5 383.5 L 396.4 385.7 L 412.8 296.1 L 451.2 294.4 C 461.3 294.2 460.6 307 458 321.5 M 535.3 352 L 538.4 335.1 L 541 320.6 C 543.3 308 546.2 290.3 557.1 289.8 L 578.1 288.9 L 561.7 378.5 L 542 379.4 C 531.8 379.8 532.7 366.7 535.3 352"/>
<path transform="translate(0,0)" style="fill: rgb(0,0,0)" stroke-linecap="round" d="M 622.9 350.6 L 616.7 384.8 C 613.6 401.5 609.4 412 600.4 412.9 L 600.3 415.1 C 627.1 413.4 645.7 397.7 651.3 366.3 L 654.7 348.5 L 664 297.7 L 631.1 306.2 L 622.9 350.6 Z"/>
<path transform="translate(0,0)" style="fill: rgb(0,0,0)" stroke-linecap="round" d="M 532.8 180.6 C 532.7 180.2 532.3 180 532 180 L 518.8 180 L 514.7 167.4 C 514.5 166.7 513.3 166.7 513 167.4 L 509 180 L 495.8 180 C 495.4 180 495.1 180.2 495 180.6 C 494.9 181 495 181.4 495.3 181.6 L 506 189.3 L 501.9 201.9 C 501.8 202.3 501.9 202.7 502.2 202.9 C 502.5 203.1 502.9 203.1 503.2 202.9 L 513.9 195.1 L 524.6 202.8 C 524.8 202.9 524.9 203 525.1 203 C 525.3 203 525.5 202.9 525.6 202.8 C 525.9 202.6 526 202.2 525.9 201.8 L 521.8 189.2 L 532.5 181.4 C 532.8 181.4 532.9 181 532.8 180.6 M 520.3 188.4 C 520 188.6 519.9 189 520 189.4 L 523.5 200 L 514.4 193.5 C 514.2 193.4 514.1 193.3 513.9 193.3 C 513.7 193.3 513.5 193.4 513.4 193.5 L 504.4 200.1 L 507.8 189.5 C 507.9 189.1 507.8 188.7 507.5 188.5 L 498.4 182 L 509.6 182 C 510 182 510.3 181.8 510.4 181.4 L 513.8 170.8 L 517.3 181.4 C 517.4 181.8 517.8 182 518.1 182 L 529.3 182 L 520.3 188.4 Z"/>
<path transform="translate(0,0)" style="fill: rgb(0,0,0)" stroke-linecap="round" d="M 667.1 232.2 C 667.1 225.6 664 219.6 659 216.1 C 660.8 213.7 661.5 210.7 660.7 207.5 C 659.8 203.9 657.2 200.9 653.9 199.8 C 649.2 198.2 646.7 196.3 645.5 195.3 C 648.2 194.7 650.2 192.2 650.2 189.3 C 650.2 186.3 648 183.8 645.1 183.3 L 644.9 118.5 C 644.9 118.1 644.6 117.9 644.3 117.9 C 643.9 117.9 643.7 118.2 643.7 118.5 L 643.9 183.2 C 640.7 183.4 638.1 186 638.1 189.3 C 638.1 192.2 640.1 194.6 642.8 195.2 C 641.6 196.3 639.1 198.1 634.4 199.8 C 631.1 201 628.5 203.9 627.6 207.6 C 626.8 210.7 627.5 213.8 629.3 216.2 C 624.3 219.8 621.3 225.7 621.3 232.3 C 621.3 238.9 624.4 244.9 629.4 248.4 C 627.6 250.8 626.9 253.8 627.7 257 C 628.6 260.6 631.2 263.6 634.5 264.7 C 641.4 267.1 643.8 270.1 643.8 270.1 C 643.9 270.3 644.1 270.4 644.3 270.4 C 644.5 270.4 644.7 270.3 644.8 270.1 C 644.8 270.1 647.1 267.1 654 264.7 C 657.3 263.5 659.9 260.6 660.8 256.9 C 661.6 253.8 660.9 250.7 659.1 248.3 C 664.1 244.7 667.1 238.8 667.1 232.2 M 639.2 189.3 C 639.2 186.6 641.4 184.5 644 184.5 C 646.7 184.5 648.8 186.7 648.8 189.3 C 648.8 192 646.6 194.1 644 194.1 C 641.4 194.1 639.2 192 639.2 189.3 M 628.7 207.9 C 629.5 204.7 631.8 202 634.6 201 C 640.2 199 642.9 196.7 643.9 195.7 C 644.9 196.7 647.7 199 653.3 201 C 656.2 202 658.5 204.6 659.3 207.8 C 660 210.7 659.4 213.5 657.7 215.6 L 630.3 215.7 C 628.6 213.6 628 210.8 628.7 207.9 M 659.5 256.5 C 658.7 259.7 656.4 262.4 653.6 263.4 C 648 265.4 645.3 267.7 644.3 268.7 C 643.3 267.7 640.5 265.4 634.9 263.4 C 632 262.4 629.7 259.8 628.9 256.6 C 628.2 253.7 628.8 250.9 630.5 248.8 L 635.8 248.8 C 635.8 248.8 635.8 248.8 635.9 248.8 L 652.6 248.8 C 652.6 248.8 652.6 248.8 652.7 248.8 L 658 248.8 C 659.6 250.9 660.2 253.7 659.5 256.5 M 636.5 247.6 L 636.5 237.8 C 636.5 233.6 639 229.8 642.9 228.2 L 644.2 227.7 L 645.5 228.2 C 649.4 229.8 651.9 233.5 651.9 237.7 L 651.9 247.5 L 636.5 247.6 Z M 657.9 247.5 L 653.1 247.5 L 653.1 237.7 C 653.1 233 650.2 228.7 645.9 227 L 644.4 226.4 C 644.2 226.3 644.1 226.3 643.9 226.4 L 642.4 227 C 638 228.8 635.2 233 635.2 237.8 L 635.2 247.6 L 630.4 247.6 C 625.5 244.3 622.5 238.6 622.5 232.3 C 622.5 226 625.4 220.2 630.3 217 L 657.9 216.9 C 662.8 220.2 665.8 225.9 665.8 232.2 C 665.8 238.5 662.9 244.2 657.9 247.5"/>
<path transform="translate(0,0)" style="fill: rgb(0,0,0)" stroke-linecap="round" d="M 143.9 296 C 143.9 296.4 144.3 296.8 144.7 296.8 L 159.8 296.8 L 170.5 307.5 C 170.7 307.7 170.9 307.7 171.1 307.7 C 171.3 307.7 171.5 307.6 171.7 307.5 L 182.4 296.8 L 197.5 296.8 C 197.9 296.8 198.3 296.4 198.3 296 L 198.3 280.9 L 209 270.2 C 209.3 269.9 209.3 269.4 209 269.1 L 198.3 258.4 L 198.3 243.3 C 198.3 242.9 197.9 242.5 197.5 242.5 L 182.4 242.5 L 171.7 232 L 171.5 164.4 C 176.6 162.4 180.8 158.6 183.3 153.8 C 187.9 144.7 197.1 139 207.3 139 C 210.7 139 214.1 139.6 217.3 140.9 C 217.6 141 217.9 141 218.1 140.9 C 218.4 140.8 218.5 140.5 218.6 140.3 C 221.3 129.9 228.9 121.9 238.6 118.4 C 238.8 118.6 239.1 118.7 239.4 118.7 L 285.4 118.6 C 285.4 118.8 285.4 119 285.4 119.2 C 286.4 119.5 287.3 119.8 288.3 120.2 C 288.6 120.3 289 120.3 289.3 120.2 C 289.6 120 289.9 119.7 289.9 119.4 C 295.2 99 313.6 84.7 334.7 84.6 C 355.5 84.5 374 98.5 379.5 118.6 C 379.5 118.7 379.6 118.8 379.7 118.9 C 379.9 118.8 380 118.7 380.2 118.6 C 380.3 118.5 380.4 118.4 380.5 118.3 C 380.5 118.3 380.5 118.3 380.5 118.4 L 420.6 118.3 C 433.2 118.3 444.8 111.3 450.2 100.4 C 456.9 87.1 470.3 78.8 485.2 78.8 C 490.2 78.8 495.1 79.7 499.8 81.6 C 500.1 81.7 500.5 81.7 500.8 81.6 C 501.1 81.4 501.4 81.1 501.4 80.8 C 506.7 60.4 525.1 46.1 546.2 46 C 567 45.9 585.5 59.9 591 80 C 591.1 80.4 591.4 80.7 591.9 80.9 C 602.3 83.9 611.1 91.1 616.1 100.8 C 621.4 111.2 632.6 117.8 644.7 117.8 L 662.9 117.8 C 663.6 117.8 664.1 117.2 664.1 116.6 C 664.1 115.9 663.5 115.4 662.9 115.4 L 644.7 115.4 C 633.5 115.4 623.2 109.3 618.3 99.7 C 613.2 89.6 604.1 82 593.3 78.7 C 587.2 57.9 568 43.5 546.2 43.5 C 524.4 43.6 505.3 58 499.4 78.8 C 494.8 77.2 490.1 76.3 485.2 76.4 C 469.4 76.4 455.1 85.3 448 99.4 C 443 109.4 432.2 115.9 420.6 115.9 L 381.2 116 C 374.7 96 355.9 82.2 334.6 82.2 C 312.8 82.3 293.7 96.7 287.8 117.5 C 287.4 117.4 287.1 117.3 286.7 117.2 C 287 116.9 287.2 116.5 287.5 116.2 L 239.3 116.3 C 239.2 116.2 239.1 116.2 239.1 116.1 C 228.6 119.5 220.1 127.8 216.9 138.8 C 213.8 137.7 210.5 137.2 207.2 137.2 C 196.2 137.2 186.4 143.3 181.4 153.1 C 178 159.9 170.6 164.4 162.6 164.4 L 140.5 164.5 C 139.9 164.5 139.5 165 139.5 165.5 C 139.5 166.1 140 166.5 140.5 166.5 L 162.6 166.4 C 165.1 166.4 167.5 166 169.8 165.2 L 170 232.2 L 159.6 242.7 L 144.5 242.7 C 144.1 242.7 143.7 243.1 143.7 243.5 L 143.7 258.6 L 133 269.3 C 132.7 269.6 132.7 270.1 133 270.4 L 143.7 281.1 L 143.9 296 Z M 134.9 269.7 L 145.2 259.3 C 145.4 259.1 145.4 258.9 145.4 258.7 L 145.4 244.1 L 160 244.1 C 160.2 244.1 160.4 244 160.6 243.9 L 170.9 233.5 L 181.3 243.8 C 181.5 243.9 181.7 244 181.9 244 L 196.5 244 L 196.5 258.6 C 196.5 258.8 196.6 259 196.7 259.2 L 207.1 269.5 L 196.8 279.9 C 196.6 280.1 196.6 280.3 196.6 280.5 L 196.6 295.1 L 182 295.1 C 181.8 295.1 181.6 295.2 181.4 295.3 L 171.1 305.7 L 160.7 295.4 C 160.5 295.2 160.3 295.2 160.1 295.2 L 145.5 295.2 L 145.5 280.6 C 145.5 280.4 145.4 280.2 145.3 280 L 134.9 269.7 Z"/>
<path transform="translate(0,0)" style="fill: rgb(0,0,0)" stroke-linecap="round" d="M 152.4 287.5 C 152.4 287.9 152.8 288.3 153.2 288.3 L 163.3 288.3 L 170.5 295.5 C 170.7 295.7 170.9 295.7 171.1 295.7 C 171.3 295.7 171.5 295.6 171.7 295.5 L 178.9 288.3 L 189 288.3 C 189.4 288.3 189.8 287.9 189.8 287.5 L 189.8 277.4 L 197 270.2 C 197.3 269.9 197.3 269.4 197 269.1 L 189.8 261.9 L 189.8 251.8 C 189.8 251.4 189.4 251 189 251 L 178.9 251 L 171.7 243.8 C 171.4 243.5 170.9 243.5 170.6 243.8 L 163.4 251 L 153.3 251 C 152.9 251 152.5 251.4 152.5 251.8 L 152.5 261.9 L 145.3 269.1 C 145 269.4 145 269.9 145.3 270.2 L 152.5 277.4 L 152.4 287.5 Z M 154 286.7 L 154 286.4 C 154 286.5 154 286.6 154.1 286.7 L 154 286.7 Z M 188.2 286.6 L 178.5 286.6 C 178.3 286.6 178.1 286.7 177.9 286.8 L 171.1 293.7 L 164.2 286.9 C 164 286.7 163.8 286.7 163.6 286.7 L 155.3 286.7 L 171.4 270.5 L 186.8 285.8 C 187 286 187.2 286 187.4 286 C 187.6 286 187.8 285.9 188 285.8 C 188.1 285.7 188.1 285.6 188.1 285.5 L 188.2 286.6 Z M 188.3 262.7 L 195.2 269.5 L 188.4 276.4 C 188.2 276.6 188.2 276.8 188.2 277 L 188.2 285 C 188.2 284.9 188.2 284.7 188.1 284.7 L 172.7 269.4 L 188.1 253.9 L 188.1 262.2 C 188.1 262.4 188.2 262.6 188.3 262.7 M 163.6 252.5 C 163.8 252.5 164 252.4 164.2 252.3 L 171 245.4 L 177.9 252.2 C 178.1 252.4 178.3 252.4 178.5 252.4 L 187.3 252.4 L 171.6 268.2 L 155.8 252.5 L 163.6 252.5 Z M 146.9 269.7 L 153.7 262.8 C 153.9 262.6 153.9 262.4 153.9 262.2 L 153.9 252.8 C 153.9 252.9 153.9 253.1 154 253.1 L 170.3 269.3 L 154.1 285.6 C 154 285.7 154 285.8 154 285.9 L 154 276.9 C 154 276.7 153.9 276.5 153.8 276.3 L 146.9 269.7 Z"/>
<path transform="translate(0,0)" style="fill: rgb(0,0,0)" stroke-linecap="round" d="M 202.9 174.5 C 195.9 175.2 190.8 181.3 191.6 188.1 C 192.4 194.8 198.7 199.7 205.7 199 C 212.7 198.3 217.8 192.2 217 185.4 C 216.3 178.7 209.9 173.8 202.9 174.5 M 205.4 196.7 C 199.7 197.3 194.6 193.3 193.9 187.9 C 193.3 182.4 197.4 177.5 203.1 176.9 C 208.8 176.3 213.9 180.3 214.6 185.7 C 215.3 191.1 211.1 196.1 205.4 196.7"/>
<path transform="translate(0,0)" style="fill: rgb(0,0,0)" stroke-linecap="round" d="M 574.4 239.5 C 567.4 240.2 562.3 246.3 563.1 253.1 C 563.9 259.8 570.2 264.7 577.2 264 C 584.2 263.3 589.3 257.2 588.5 250.4 C 587.7 243.6 581.4 238.7 574.4 239.5 M 576.9 261.6 C 571.2 262.2 566.1 258.2 565.4 252.8 C 564.8 247.3 568.9 242.4 574.6 241.8 C 580.3 241.2 585.4 245.2 586.1 250.6 C 586.7 256 582.6 261 576.9 261.6"/>
<path transform="translate(0,0)" style="fill: rgb(0,0,0)" stroke-linecap="round" d="M 258.6 404 L 241.4 404.6 L 238.4 427.7 L 243 427.5 L 244.1 418.8 L 248.5 418.6 L 255.5 427 L 262.2 426.8 L 254 418.4 L 256.6 418.3 C 258.2 418.2 259.4 417.8 260.2 417.1 C 261 416.4 261.5 415.2 261.7 413.7 L 262.4 408.3 C 262.6 406.7 262.4 405.6 261.8 404.9 C 261.3 404.2 260.2 403.9 258.6 404 M 257.6 412.5 C 257.5 413.2 257.3 413.7 257 413.9 C 256.7 414.2 256.1 414.3 255.3 414.4 L 244.8 414.8 L 245.6 408.4 L 256 408 C 256.8 408 257.4 408.1 257.6 408.3 C 257.9 408.6 257.9 409 257.9 409.7 L 257.6 412.5 Z"/>
<path transform="translate(0,0)" style="fill: rgb(0,0,0)" stroke-linecap="round" d="M 276.5 407.5 L 264.3 426.8 L 268.3 426.7 L 270.9 422.5 L 281.8 422.1 L 283.3 426.2 L 287.8 426 L 280.3 407.5 L 276.5 407.5 Z M 273.1 418.8 L 277.8 410.8 L 280.6 418.5 L 273.1 418.8 Z"/>
<polygon transform="translate(0,0)" style="fill: rgb(0,0,0)" points="304.3,417.6 297.6,406.7 294.4,406.8 292,425.7 295.2,425.6 296.8,412.9 303,423 303.7,423 312.5,412 310.8,425 314.5,424.9 317,406 313.7,406.1"/>
<path transform="translate(0,0)" style="fill: rgb(0,0,0)" stroke-linecap="round" d="M 331.6 405.4 L 319.4 424.7 L 323.4 424.6 L 326 420.4 L 336.9 420 L 338.4 424.1 L 342.9 423.9 L 335.4 405.4 L 331.6 405.4 Z M 328.1 416.8 L 332.8 408.8 L 335.6 416.5 L 328.1 416.8 Z"/>
<path transform="translate(0,0)" style="fill: rgb(0,0,0)" stroke-linecap="round" d="M 360.5 404.4 L 349.4 404.8 L 347 423.7 L 357.1 423.3 C 360.7 423.2 363.6 422.3 365.6 420.6 C 367.6 418.9 368.8 416.5 369.2 413.4 C 369.6 410.4 369 408.1 367.5 406.5 C 366.1 405 363.7 404.3 360.5 404.4 M 365.1 413.3 C 364.8 415.5 364 417.2 362.8 418.1 C 361.6 419.1 359.5 419.6 356.7 419.7 L 351.5 419.9 L 353 407.9 L 360.1 407.6 C 362.1 407.5 363.4 407.9 364.2 408.9 C 365.1 409.9 365.4 411.4 365.1 413.3"/>
<path transform="translate(0,0)" style="fill: rgb(0,0,0)" stroke-linecap="round" d="M 383.1 403.6 L 370.9 422.9 L 374.9 422.8 L 377.5 418.6 L 388.4 418.2 L 389.9 422.3 L 394.4 422.1 L 386.9 403.6 L 383.1 403.6 Z M 379.6 414.9 L 384.3 406.9 L 387.1 414.6 L 379.6 414.9 Z"/>
<polygon transform="translate(0,0)" style="fill: rgb(0,0,0)" points="416.1,414.8 403.7,402.8 400.9,402.9 398.5,421.8 402.2,421.7 403.8,408.9 416.1,421.1 418.9,421 421.3,402.1 417.7,402.3"/>
<polygon transform="translate(0,0)" style="fill: rgb(0,0,0)" points="468.4,396.3 461.6,396.5 449.2,406.5 450.5,396.9 445.8,397.1 442.8,420.2 447.5,420 448.8,409.8 459.5,419.5 467.1,419.3 453.7,407.6"/>
<path transform="translate(0,0)" style="fill: rgb(0,0,0)" stroke-linecap="round" d="M 480.5 400 L 468.3 419.3 L 472.3 419.2 L 474.9 415 L 485.8 414.6 L 487.3 418.7 L 491.8 418.5 L 484.3 400 L 480.5 400 Z M 477.1 411.3 L 481.8 403.3 L 484.6 411 L 477.1 411.3 Z"/>
<path transform="translate(0,0)" style="fill: rgb(0,0,0)" stroke-linecap="round" d="M 513.3 398.8 L 498.5 399.3 L 496.1 418.2 L 500.1 418.1 L 501 410.9 L 504.8 410.8 L 510.8 417.7 L 516.6 417.5 L 509.7 410.6 L 512 410.5 C 513.4 410.4 514.4 410.1 515.1 409.5 C 515.8 408.9 516.2 408 516.4 406.7 L 517 402.3 C 517.2 401 517 400.1 516.4 399.5 C 515.6 399 514.6 398.7 513.3 398.8 M 512.5 405.7 C 512.4 406.3 512.2 406.7 512 406.9 C 511.7 407.1 511.2 407.3 510.5 407.3 L 501.3 407.6 L 502 402.4 L 511.2 402.1 C 511.9 402.1 512.4 402.2 512.6 402.4 C 512.8 402.6 512.9 403 512.8 403.6 L 512.5 405.7 Z"/>
<polygon transform="translate(0,0)" style="fill: rgb(0,0,0)" points="521.3,417.3 539.2,416.6 539.7,413.1 525.8,413.6 526.4,408.9 534.3,408.7 534.8,405.4 526.8,405.7 527.4,401.6 541,401.1 541.4,397.7 523.8,398.4"/>
<polygon transform="translate(0,0)" style="fill: rgb(0,0,0)" points="545,416.4 562.9,415.7 563.3,412.2 549.5,412.7 550.1,408.1 558,407.8 558.4,404.5 550.5,404.8 551,400.7 564.7,400.2 565.1,396.9 547.4,397.5"/>
<polygon transform="translate(0,0)" style="fill: rgb(0,0,0)" points="583.4,407.4 576.8,396.5 573.6,396.6 571.2,415.5 574.4,415.4 576,402.7 582.1,412.9 582.9,412.8 591.6,401.8 590,414.8 593.7,414.7 596.1,395.8 592.9,395.9"/>
</svg>