<?xml version="1.0" encoding="UTF-8" standalone="no"?><!DOCTYPE svg PUBLIC "-//W3C//DTD SVG 1.1//EN" "http://www.w3.org/Graphics/SVG/1.1/DTD/svg11.dtd"><svg xmlns="http://www.w3.org/2000/svg" xmlns:xlink="http://www.w3.org/1999/xlink" version="1.1" width="800" height="500" viewBox="0 0 800 500">
<desc>Created with SVGMaker Editor 2.2.3</desc>
<defs>
</defs>
<path transform="translate(0,0)" style="fill: rgb(0,0,0)" stroke-linecap="round" d="M 246 165.5 C 251.2 197.4 256.9 218 276.4 230.2 C 300.2 245.1 326.5 244.6 351.1 254.2 C 380.1 265.5 422.3 286.7 429.2 344.4 C 431 359.2 427.3 378 422.2 393.5 L 445.7 393.5 C 448.9 381.4 450.2 367.6 449.6 356.4 C 447.2 312.5 423.4 283.7 399.6 268.8 C 368.9 249.6 337.4 245 305.4 235.7 C 292.6 232 278.9 226.6 269.2 211.8 C 258 194.7 253 171.3 249.8 147.5 C 249.8 147.2 249.7 147 249.5 146.7 C 249.9 143 250.1 139.7 250.1 137.9 C 250.1 132 247.3 129.2 247.3 129.2 C 247.3 129.2 244.4 132.1 244.4 137.9 C 244.4 139.7 244.7 143 245.1 146.8 C 245 147 244.9 147.2 244.9 147.5 C 241.7 171.2 237.9 192.6 228.3 212.2 C 224.9 219.1 203.3 246.2 198 249.7 C 198.3 249.9 199.3 253.9 199.6 254.2 C 208.7 247.4 222.7 232.3 231.9 214.2 C 240 198.1 243.8 179.3 246 165.5 Z"/>
<path transform="translate(0,0)" style="fill: rgb(0,0,0)" stroke-linecap="round" d="M 250.2 79.7 C 250.2 73.8 247.4 52.1 247.4 52.1 C 247.4 52.1 244.5 73.9 244.5 79.7 C 244.5 85.6 247.4 88.4 247.4 88.4 C 247.4 88.4 250.2 85.6 250.2 79.7 Z"/>
<path transform="translate(0,0)" style="fill: rgb(0,0,0)" stroke-linecap="round" d="M 247.4 96.2 C 249.8 96.2 251.8 93.3 251.8 93.3 C 251.8 93.3 249.8 90.4 247.4 90.4 C 245 90.4 243 93.3 243 93.3 C 243 93.3 244.9 96.2 247.4 96.2 Z"/>
<path transform="translate(0,0)" style="fill: rgb(0,0,0)" stroke-linecap="round" d="M 247.4 127.3 C 249.8 127.3 251.8 124.4 251.8 124.4 C 251.8 124.4 249.8 121.5 247.4 121.5 C 245 121.5 243 124.4 243 124.4 C 243 124.4 244.9 127.3 247.4 127.3 Z"/>
<path transform="translate(0,0)" style="fill: rgb(0,0,0)" stroke-linecap="round" d="M 247.4 119.9 C 249.8 119.9 251.8 108.9 251.8 108.9 C 251.8 108.9 249.8 97.8 247.4 97.8 C 245 97.8 243 108.9 243 108.9 C 243 108.9 244.9 119.9 247.4 119.9 Z"/>
<path transform="translate(0,0)" style="fill: rgb(0,0,0); fill-rule: evenodd" stroke-linecap="round" d="M 657.2 376.6 C 647.9 374.5 621.3 369.1 614.3 383.8 C 610.7 391.6 627.2 404.6 639.3 407.1 C 648.1 408.9 667.4 398.5 675.1 393.7 L 672.8 404.5 C 663.8 409.2 608.3 439.2 600.2 427.8 C 595.5 421.3 596.8 419 596.8 419 C 596.8 419 590.6 426.5 585.8 429.1 C 581.2 431.7 570.6 435.8 563.3 429.9 C 555.8 423.9 557.6 408.9 557.6 408 C 557.6 407.4 543.3 431.4 519.1 441.3 C 506.2 446.7 496.6 444.4 493.1 435.7 C 487.1 420.7 494.7 395.7 503.9 382.5 L 504.7 384.2 C 499 394.3 490.2 423.9 500 431.4 C 506.7 436.6 521.6 430.6 528.9 426.2 C 535.4 422.4 545.6 414.3 552.1 405.8 C 552.8 404.8 553.2 403.7 553.6 402 C 555.9 390.3 546.6 362.9 541.7 358.9 C 539.2 357 543 347 543 347 C 552.5 352.5 554 367.7 557.9 382 C 561 393.4 558.2 419.4 573.4 422.2 C 580.3 423.5 590 417.8 597.2 407.8 C 604.4 397.8 596.5 420.1 609.3 419.2 C 618.6 418.7 624.8 416.9 624.8 414.3 C 624.5 411.2 604.4 403.5 610.3 380.8 C 615 362.5 631.7 360.6 646.2 369.3 C 651.6 372.9 657.2 376.6 657.2 376.6 L 657.2 376.6 Z M 589.6 437.5 L 582.9 432.6 L 577 441.1 L 585.5 447.9 L 590.1 442.4 L 591.5 442.4 L 597.7 447.1 L 603.6 439 L 595.1 432 L 591 437.6 L 589.6 437.6 Z"/>
<path transform="translate(0,0)" style="fill: rgb(0,0,0); fill-rule: evenodd" stroke-linecap="round" d="M 329.2 400.2 L 327.9 409.7 C 304.6 387.5 276.6 430.7 264.7 440.4 C 255.6 447.9 245.1 444 246.2 429.8 C 247.2 415.7 251.1 405.3 251.1 405.3 L 252.3 407 C 247.1 422.8 250.6 447.8 270.7 426.1 C 283.3 412.4 311.2 380.6 326.7 395.4 L 326.8 387.7 C 361.1 396.2 451 402.7 489.5 387.1 C 494.9 385 496.7 382.8 495.9 380.9 C 457.1 361.5 416.4 385.6 359.1 377.1 C 324.2 364.2 388.1 319.3 406.9 320.3 C 421.3 320.9 411 355 406.9 364.2 L 405.8 362.5 C 405.8 362.5 408.7 351.6 409.5 345.4 C 410.2 339.4 404.8 333 401.3 332.5 C 395 331.7 358.9 350.6 356.3 361.9 C 354.7 369.4 376.5 368.4 380.3 368.4 C 394.7 368.6 406.3 367.8 406.3 367.8 C 427.9 365.7 503.6 352.1 504.6 383.5 C 504.8 386.1 503.9 387.9 502.8 389.3 C 501 391.5 497.9 392.6 494.2 394.2 C 468.6 405.3 406.8 413.8 329.2 400.2 L 329.2 400.2 Z"/>
<path transform="translate(0,0)" style="fill: rgb(0,0,0); fill-rule: evenodd" stroke-linecap="round" d="M 255.3 394.8 L 253.8 405.9 C 230.5 384 203.4 428.1 191.2 437.2 C 181.9 444 172.4 440.8 172.4 426.8 C 172.5 412.7 177.3 402.1 177.3 402.1 L 178.4 403.7 C 178.4 403.7 176.4 409.3 175.8 415.5 C 173.9 434.4 185.1 436.3 196.8 422.7 C 209.6 407.8 240.4 373 255.3 394.8 L 255.3 394.8 Z"/>
<polygon transform="translate(0,0)" style="fill: rgb(0,0,0); fill-rule: evenodd" points="261.7,372.4 256.4,379.4 264.1,385.8 269.2,378.2"/>
<path transform="translate(0,0)" style="fill: rgb(0,0,0); fill-rule: evenodd" stroke-linecap="round" d="M 221 251.1 C 221 251.1 226.2 247.6 231.6 282.3 C 234.2 298.6 232.6 327.9 232.9 340.8 C 233.2 352.9 234 365.2 251.5 363 C 258.4 362.2 265 356.2 269.1 351.4 C 277.4 341.9 264.7 360.8 277.7 361.7 C 290.8 362.5 298.3 342.2 305.3 336.2 C 312.5 330.2 319.3 333.5 321.1 342.9 C 322.9 352.6 321.8 363 312.5 361.1 C 305.8 359.8 303 356.4 300.6 355.5 C 297 354.6 294.1 368.1 281.7 371.5 C 270 374.6 266.2 363.3 267.7 361.1 C 269 358.7 257.6 375.9 242.1 374.5 C 235.4 374 231.6 368.6 229.9 361.1 C 227.8 353.2 227.6 342.9 227.9 333.8 C 228.4 316.3 228.2 303.8 225.6 286.1 C 223.8 274.2 221.5 267.3 218.8 261.5 C 217.1 257.8 218.4 256.5 219.3 254.9 C 220.2 252.8 221 251.1 221 251.1 L 221 251.1 Z M 312.9 343.8 C 315.5 345.3 316 347.7 315.5 349.5 C 315 351.1 310.4 351 307.8 349.3 C 305.4 347.7 305 345.6 306 344 C 307 342.5 310.3 342.1 312.9 343.8 L 312.9 343.8 Z"/>
<path transform="translate(0,0)" style="fill: rgb(0,0,0); fill-rule: evenodd" stroke-linecap="round" d="M 207.4 272.1 L 198 249.7 L 195.3 258.9 C 193 263.7 201.4 347.1 202.2 358.2 C 202.7 365.1 202.7 369.5 202.3 370.1 C 198.2 376.3 193.5 385.2 170 392 C 126.6 404.7 123 373.9 132.3 364.3 C 141.6 354.7 115.5 369.3 128.9 393.2 C 144.9 421.4 198.3 395.1 205.1 374.9 C 206.6 370.9 207.6 366.2 207.6 359 C 207.6 339.2 202.5 270.5 202.5 270.5 L 207.4 272.1 Z"/>
<path transform="translate(0,0)" style="fill: rgb(0,0,0); fill-rule: evenodd" stroke-linecap="round" d="M 177.3 361.4 C 177.3 361.4 180.7 356.6 177.5 354.2 C 174.9 352.4 168.8 358.6 167 363.7 C 162.3 377.6 196.4 368.4 156.9 378.4 C 155.4 381.3 171.6 380.3 173.1 379.7 C 178.6 377.1 181.2 372 180.6 369.1 C 179.8 364.2 173.2 369.2 171.1 365.6 C 170.1 363.7 171.7 359.4 177.3 361.4 L 177.3 361.4 Z"/>
<path transform="translate(0,0)" style="fill: rgb(0,0,0); fill-rule: evenodd" stroke-linecap="round" d="M 662 423.9 C 662 423.9 657.6 423.7 656.8 423.9 C 656.1 423.9 655.8 424.2 655.5 424.5 C 655.2 425 654.8 425.5 655.7 426.1 C 656.4 426.8 658 427.4 659.1 427.6 C 660.4 427.9 661 427.6 662.4 426.9 C 663.7 426.3 665.5 425.3 666.5 425 C 667.3 424.7 667.3 425 667 425.7 C 666.7 426.4 666.2 427.2 665.7 427.7 C 665.4 428.2 664.9 428.2 663.9 428.6 C 662.9 429.1 661.3 430.1 659.5 431.2 C 657.9 432.2 655.9 433.3 654.8 434 C 653.7 434.8 653.2 435 652.7 435.1 C 652.1 435.3 651.4 435.3 650.8 435.1 C 650.1 435 649.7 434.7 649 434.2 C 648.5 433.7 648.2 433.2 647.9 433.1 C 647.4 432.9 647.1 432.9 646.1 433.5 C 644.9 434 643.2 435 641.5 435.7 C 636.3 437.8 632.5 438.3 627.2 438 C 626 437.8 625.1 437.6 624.3 437.5 C 623.3 437.3 622.7 437 623 436.8 C 623.2 436.7 624.5 436.5 626.3 436.4 C 628.1 436.2 630.5 436 632.5 435.7 C 634.5 435.6 635.9 435.2 637.4 434.8 C 638.9 434.4 640 434.1 641.5 433.5 C 642.9 432.8 644.8 431.9 646.1 431.2 C 647.6 430.6 648.7 430.3 649.4 429.9 C 650.1 429.7 650.4 429.9 650.5 430 C 650.7 430.3 650.8 430.8 651.2 431.1 C 651.4 431.6 651.7 431.9 652.4 431.9 C 653 432.1 654 432.1 654.9 431.8 C 655.7 431.6 656 431.3 655.9 430.8 C 655.7 430.3 654.9 429.9 654.1 429.5 C 653.4 429.1 652.9 428.6 652.8 428.2 C 652.7 427.7 652.7 427.4 653 426.7 C 653.3 425.9 654 425 654.6 423.9 C 655.3 423.1 655.9 422.1 656.4 421.8 C 657.2 420.6 662.2 422.6 662 423.9 L 662 423.9 Z"/>
<path transform="translate(0,0)" style="fill: rgb(0,0,0); fill-rule: evenodd" stroke-linecap="round" d="M 526.1 357.7 C 525.1 357.4 524.2 357.5 523.2 357 C 522.4 356.5 522 355.5 521.9 354.6 C 521.9 353.6 522.1 352.6 522.6 352 C 523.1 351.4 523.7 350.9 524.2 350.2 C 524.8 349.6 525.4 348.7 525.8 348.2 C 526.3 347.7 526.8 347.6 527.2 347.4 C 527.6 347.4 527.9 347.4 528.4 347.4 C 528.9 347.6 529.7 347.9 530.2 348.4 C 530.7 348.9 531.2 349.7 531.3 350.4 C 531.5 351 531.5 351.7 531.3 352.3 C 530.5 357.7 523.1 364.7 518.7 367.2 C 517.4 367.8 516.2 368.3 515.1 368.6 C 513.3 369.2 511 369.7 509.1 369.7 C 508.4 369.7 508.1 369.6 508.3 369.4 C 508.3 369.2 508.5 368.9 509.4 368.6 C 510.4 368.1 512 367.6 513.5 366.8 C 515 366 516.1 365 515.6 364.4 C 515.3 363.9 513.5 363.9 512.4 364 C 511.2 364.2 510.8 364.5 510.6 364.5 C 510.3 364.5 510.3 364.2 510.6 363.4 C 511 362.8 511.4 361.6 512.1 361.1 C 513.2 359.8 515.2 360.1 516.5 360.5 C 517.3 360.7 517.6 360.8 517.9 361.5 C 518.1 362.1 518.3 363.1 517.9 363.9 C 517.6 364.7 516.3 366 516.1 366.2 C 515.6 366.8 523.3 362.1 525.7 358.6 C 526.1 358 526.2 357.7 526.1 357.7 L 526.1 357.7 Z M 525.1 351.3 C 525.4 351.1 525.9 350.9 526.4 350.9 C 526.9 351.1 527.5 351.3 527.9 351.6 C 528.4 352 528.6 352.5 528.7 353 C 528.7 353.5 528.5 354.1 527.9 354.3 C 527.2 354.6 526.3 354.5 525.6 354.1 C 524.9 353.6 524.6 353 524.6 352.5 C 524.4 351.9 524.8 351.6 525.1 351.3 L 525.1 351.3 Z M 518.4 353.1 C 518.7 353 519.1 353.1 519.1 353.7 C 519.3 354.4 518.9 355.7 518.4 356.5 C 516.8 358.8 514.2 357.1 514.3 354.2 C 514.6 351.4 520.7 345.2 518.6 344 C 518.3 343.8 517.3 344 517 344 C 516.5 344.1 516.2 344.3 516.2 344.1 C 516 343.5 518.1 341.8 519.5 342.5 C 522.8 344 515.6 350.7 516.1 353.3 C 516.3 355.2 518.3 353.1 518.4 353.1 L 518.4 353.1 Z"/>
<path transform="translate(0,0)" style="fill: rgb(0,0,0); fill-rule: evenodd" stroke-linecap="round" d="M 583 376.4 C 584.3 375.6 586.3 375.1 588.2 374.9 C 590.1 374.8 592.2 374.9 593.6 375.4 C 595.1 375.7 595.7 376.2 596 376.9 C 596.3 377.7 596.3 378.5 596.2 379.7 C 595.9 380.6 595.4 382 594.4 383.3 C 592.9 385.5 589.5 388.9 587.4 390.5 C 586.6 391.2 586.1 391.5 584.8 391.6 C 583.5 391.8 581.6 392.1 579.7 392.1 C 577.9 392.3 576 392.4 575.3 392.3 C 574.6 392.1 574.9 391.8 576.1 391.3 C 581 389 586.1 387.7 590.3 384.3 C 591.3 383.6 591.8 383 591.4 382.5 C 590.6 381.4 584.2 381.7 582.6 382.2 C 581.8 382.3 581 382.8 580.3 383.5 C 579.5 384.1 578.7 384.9 578.2 385.1 C 577.7 385.2 577.5 384.9 578 383.9 C 578.3 382.8 579.3 381.1 580.1 379.8 C 581.1 378.4 581.8 377.2 583 376.4 L 583 376.4 Z"/>
<path transform="translate(0,0)" style="fill: rgb(0,0,0); fill-rule: evenodd" stroke-linecap="round" d="M 241.1 303.1 C 245.2 298.8 248.8 309.1 248.8 314.8 C 248.8 314.8 247.2 315.5 246.7 318.1 C 246.4 320.7 247.3 322.5 246.9 321.7 C 250.2 316.2 255.2 319.7 250.5 322.2 C 249.2 322.8 246.8 321.9 245.6 325.3 C 244.3 329 248.7 357 248.7 357 C 248.7 357 247.2 327.6 248.4 326.5 C 249.7 325.3 254.9 326.6 257.2 324.7 C 260.8 321.7 255.3 309.7 251 313.8 C 249.8 314.9 254.9 297.8 256.1 298.1 C 258 298.8 258.5 300.1 258.9 300.5 C 259.4 301.2 261.7 296.4 260.4 294.3 C 259.6 293.1 257.6 293.1 256.3 293.9 C 252.4 296 250.1 311.8 249.8 310 C 249.5 308 247.2 297.2 244.4 295.9 C 241.4 294.6 239.3 295.8 238.7 297.7 C 237.7 299.9 238.5 302.3 241.1 303.1 L 241.1 303.1 Z"/>
<path transform="translate(0,0)" style="fill: rgb(0,0,0); fill-rule: evenodd" stroke-linecap="round" d="M 305.6 322.2 C 305.6 322.2 308.7 328.1 311.9 324.3 C 315.2 320.3 315.4 315.5 311.9 314.2 C 308.5 312.7 307.7 315.3 300.8 323.8 C 294.1 332.1 281.9 335 275.5 337.7 C 275 337.9 296.4 339.4 305.6 322.2 L 305.6 322.2 Z M 311.9 320.8 C 311.6 321.5 309.3 320.9 308.8 319.8 C 308.1 318.4 309.6 317.5 311.1 318.5 C 311.8 319 312.4 319.6 311.9 320.8 L 311.9 320.8 Z"/>
<path transform="translate(0,0)" style="fill: rgb(0,0,0); fill-rule: evenodd" stroke-linecap="round" d="M 301 305.7 C 301.7 306.5 304 308.2 304.9 308.6 C 305.9 309.1 303.1 312.1 303.1 312.1 C 303.1 312.1 299.7 310 298.9 309 C 291.7 318.7 280.1 324.4 272.3 324.7 C 277.4 321.9 293.2 313.8 295.6 307.5 C 295.6 307.5 289.7 305.6 292 300.3 C 294.1 294.9 298.4 293.8 300.7 295.2 C 302.3 296.3 303.9 300.3 301 305.7 L 301 305.7 Z M 297.1 298.5 C 298.2 298.5 299.2 299.3 299.2 300.4 C 299.2 301.5 298.2 302.3 297.1 302.3 C 296.1 302.3 295.1 301.5 295.1 300.4 C 295.1 299.4 296.1 298.5 297.1 298.5 L 297.1 298.5 Z"/>
<path transform="translate(0,0)" style="fill: rgb(0,0,0); fill-rule: evenodd" stroke-linecap="round" d="M 363.5 312.2 C 361.4 311.3 360.9 309.1 361.6 307.2 C 361.7 307 361.7 306.9 361.9 306.7 C 362.1 306.1 362.4 305.6 362.5 305.1 C 364.5 302 368.1 299.4 371.6 301.2 C 372.9 301.9 374 303.2 374 305.7 C 373.5 311.6 366 319.7 366.5 322.5 C 366.8 324.9 369.2 322.4 369.4 322.4 C 369.7 322.2 370 322.2 370.2 323.2 C 370.2 324 370 325.5 369.4 326.5 C 367.4 329.2 364.2 327.4 364.5 323.9 C 364.5 322.1 366.5 319.3 368.1 316.9 C 362.1 322.8 352.7 327 347.2 327.7 C 346.4 327.8 345.7 327.5 345.9 327 C 346.1 326.9 359.8 321.8 366.1 315.6 C 368.5 313.4 364.5 312.6 363.5 312.2 L 363.5 312.2 Z M 366.1 305.7 C 366.6 305.2 367.1 305.2 367.8 305.2 C 368.4 305.2 369.2 305.5 369.7 306 C 370.3 306.5 370.7 307.1 370.7 307.8 C 370.7 308.5 370.5 309.3 369.7 309.6 C 368.9 309.9 367.6 309.7 366.8 309.3 C 365.8 308.8 365.5 308 365.4 307.2 C 365.3 306.5 365.6 306.1 366.1 305.7 L 366.1 305.7 Z"/>
<path transform="translate(0,0)" style="fill: rgb(0,0,0); fill-rule: evenodd" stroke-linecap="round" d="M 333.3 309.4 C 334.3 308.7 335.9 308.4 337.4 308.3 C 339 308.1 340.5 308.3 341.7 308.6 C 342.8 308.9 343.3 309.2 343.6 309.9 C 343.8 310.4 343.8 311 343.6 311.9 C 343.4 312.8 342.9 313.7 342.3 314.8 C 341 316.4 338.4 319.1 336.8 320.4 C 336.1 320.9 335.8 321 334.8 321.2 C 333.8 321.3 332.4 321.5 330.9 321.6 C 329.4 321.8 328 321.8 327.5 321.6 C 326.9 321.6 327.2 321.3 328.1 321 C 331.9 319.2 335.8 318.2 339.1 315.6 C 339.9 314.9 340.2 314.5 340.1 314.1 C 339.5 313.1 334.4 313.4 333.1 313.8 C 332.6 313.9 332 314.3 331.5 314.7 C 330.8 315.2 330.2 315.9 329.9 316 C 329.6 316.2 329.4 315.9 329.7 315.1 C 330 314.4 330.7 313.1 331.3 312 C 331.8 310.8 332.3 310 333.3 309.4 L 333.3 309.4 Z"/>
<path transform="translate(0,0)" style="fill: rgb(0,0,0); fill-rule: evenodd" stroke-linecap="round" d="M 339.7 348.2 C 339.1 348.7 338.1 350 336.6 351.8 C 335.3 353.7 333.5 356.1 332.4 358.5 C 331.1 360.9 330.3 363.2 329.9 365.1 C 329.7 367.3 330.1 368.9 330.7 370 C 331.4 371.2 332.5 371.8 333.6 371.8 C 334.6 372 335.8 371.6 336.7 370.8 C 337.5 370.2 338.2 369 338.3 367.7 C 338.5 366.6 338.5 365.3 338.2 364.3 C 337.8 363.3 337.4 362.7 336.9 362.2 C 336.4 361.9 336.1 361.7 335.9 361.9 C 335.6 362 335.6 362.5 335.6 363.2 C 335.4 363.9 335.3 364.7 335.1 365.1 C 334.9 365.6 334.7 365.8 334.3 365.9 C 334 366.1 333.5 365.9 333 365.8 C 332.7 365.5 332.3 365.1 332.2 364.5 C 332.2 363.8 332.2 363.2 332.3 362.3 C 332.3 361.7 332.6 360.9 333 360.2 C 334.3 356.8 337.1 353.2 339.4 349.8 C 340.5 348.2 340.3 347.9 339.7 348.2 L 339.7 348.2 Z"/>
<path transform="translate(0,0)" style="fill: rgb(0,0,0); fill-rule: evenodd" stroke-linecap="round" d="M 286 382.5 C 287.2 382 288.6 381.5 290.1 381.5 C 291.7 381.4 293.4 381.5 294.3 381.7 C 295.5 382 295.9 382.5 296.3 383 C 296.6 383.5 296.6 384.1 296.3 385.1 C 296.1 385.8 295.6 386.8 295 387.9 C 293.9 389.5 291.1 392.3 289.6 393.4 C 288.9 394 288.4 394.2 287.4 394.4 C 286.4 394.5 285 394.7 283.5 394.7 C 282.1 394.8 280.6 394.8 280.1 394.8 C 279.6 394.7 280 394.5 280.8 394 C 284.5 392.4 288.5 391.2 291.9 388.7 C 292.6 388 292.9 387.7 292.7 387.4 C 292 386.4 287 386.6 285.9 386.9 C 285.2 387.1 284.6 387.6 284.1 388 C 283.4 388.5 282.8 389.1 282.5 389.3 C 282.2 389.3 282 389.1 282.4 388.3 C 282.7 387.6 283.4 386.2 284 385.2 C 284.5 384.1 285 383.1 286 382.5 L 286 382.5 Z"/>
<path transform="translate(0,0)" style="fill: rgb(0,0,0); fill-rule: evenodd" stroke-linecap="round" d="M 221.2 430.3 C 221.1 430.5 221.1 431 220.7 431.3 C 220.5 431.6 220.2 431.8 219.9 431.9 C 219.4 431.9 218.9 431.8 218.8 431.3 C 218.4 431 218.4 430.3 218.6 429.5 C 218.8 428.7 219.1 427.6 219.4 426.7 C 219.7 425.9 220.2 425.3 220.7 425 C 221.2 424.6 221.7 424.3 222.2 424.8 C 225.3 428.9 225.6 434.9 225.6 439 C 225.6 439.3 226.1 439.3 226.4 438.8 C 228.7 435.6 230 431.8 232.1 428.6 C 235.7 422.8 242.1 426.5 238 431.2 C 236.1 433.3 234.7 432.3 234.9 431.2 C 235.1 430.9 236.1 429.4 234.9 429.9 C 231.5 431 229.4 440.2 224.6 442 C 223.9 442.1 223.5 442.3 223.3 442.1 C 223.3 442 223.5 441.6 223.6 441 C 224.9 438 224.6 436.7 223.4 433.7 C 222.9 432.7 222.4 431.8 222.1 431.1 C 221.6 430.5 221.5 430.3 221.2 430.3 L 221.2 430.3 Z M 232.8 410.2 C 232.3 410.7 231.3 411.7 230.2 413.3 C 229 414.8 227.6 416.8 226.6 418.8 C 225.6 420.8 224.8 422.8 224.6 424.4 C 224.5 426.2 224.6 427.5 225.3 428.5 C 225.9 429.4 226.8 430 227.7 430.1 C 228.5 430.1 229.5 429.9 230.3 429.3 C 230.9 428.6 231.4 427.7 231.6 426.7 C 231.8 425.6 231.8 424.6 231.4 423.8 C 231.1 423 230.8 422.4 230.4 422 C 229.9 421.7 229.6 421.5 229.4 421.7 C 229.2 421.8 229.2 422.3 229.2 422.8 C 229 423.4 229 423.9 228.8 424.4 C 228.6 424.7 228.3 425 228 425 C 227.7 425.2 227.4 425.2 227 424.9 C 226.7 424.7 226.4 424.4 226.4 423.9 C 226.2 423.4 226.2 422.8 226.4 422.1 C 226.6 421.5 226.7 420.8 226.9 420.4 C 228 417.4 230.5 414.5 232.3 411.6 C 233.4 410.2 233.3 409.9 232.8 410.2 L 232.8 410.2 Z"/>
<path transform="translate(0,0)" style="fill: rgb(0,0,0); fill-rule: evenodd" stroke-linecap="round" d="M 222.1 384.1 C 212.1 389 203.5 393.9 194.5 399.7 L 193.8 402.9 C 204.7 396.4 212.2 392.1 221.4 387.4 L 222.1 384.1 Z"/>
<path transform="translate(0,0)" style="fill: rgb(0,0,0); fill-rule: evenodd" stroke-linecap="round" d="M 173 335.4 C 174 334.8 175.4 334.3 177 334.3 C 178.5 334.2 180.1 334.3 181.3 334.6 C 182.3 334.8 182.9 335.3 183.1 335.8 C 183.4 336.2 183.4 337.1 183.3 337.9 C 183.1 338.7 182.6 339.7 181.8 340.7 C 180.7 342.3 178 345.1 176.4 346.4 C 175.7 346.8 175.3 347 174.4 347.2 C 173.4 347.3 171.8 347.5 170.3 347.6 C 168.9 347.6 167.5 347.8 166.9 347.6 C 166.4 347.5 166.7 347.3 167.7 346.8 C 171.5 345.2 175.4 344.1 178.6 341.5 C 179.4 340.8 179.8 340.5 179.4 340.2 C 178.8 339.2 173.9 339.4 172.6 339.7 C 171.9 339.9 171.5 340.4 170.8 340.8 C 170.3 341.3 169.7 342 169.3 342.1 C 168.8 342.3 168.8 342 169 341.1 C 169.3 340.3 170.1 339 170.8 338 C 171.4 336.9 172 335.9 173 335.4 L 173 335.4 Z"/>
<path transform="translate(0,0)" style="fill: rgb(0,0,0); fill-rule: evenodd" stroke-linecap="round" d="M 169.4 275.7 C 173.5 271.5 177.1 281.7 177.1 287.6 C 177.1 287.6 175.5 288.1 175.2 290.7 C 174.7 293.4 175.7 295.2 175.2 294.3 C 178.6 288.8 183.5 292.5 178.8 295 C 177.5 295.6 175.2 294.7 173.9 298.1 C 172.6 301.6 177 329.8 177 329.8 C 177 329.8 175.5 300.4 176.8 299.3 C 177.9 298 183.2 299.5 185.6 297.5 C 189.2 294.4 183.7 282.5 179.4 286.6 C 178.1 287.7 183.2 270.4 184.5 270.9 C 186.2 271.6 186.8 272.9 187.3 273.4 C 187.6 273.9 189.9 269.3 188.6 267.1 C 187.8 265.9 186 265.9 184.6 266.8 C 180.7 268.9 178.4 284.8 178 283 C 177.7 281 175.4 270.2 172.6 268.9 C 169.8 267.6 167.6 268.6 166.9 270.7 C 166.2 272.6 167 275 169.4 275.7 L 169.4 275.7 Z"/>
<path transform="translate(0,0)" style="fill: rgb(0,0,0); fill-rule: evenodd" stroke-linecap="round" d="M 149.7 339.2 C 149.1 339.5 147.9 340.9 146.6 342.7 C 145.1 344.6 143.5 347.1 142.2 349.4 C 141.1 351.8 140.2 354.2 139.9 356.1 C 139.8 358.2 140.1 359.9 140.7 361 C 141.3 362.1 142.5 362.8 143.5 362.8 C 144.6 362.9 145.8 362.6 146.6 362 C 147.6 361.1 148.1 360 148.4 358.7 C 148.6 357.6 148.4 356.3 148.1 355.3 C 147.8 354.3 147.3 353.7 147 353.2 C 146.5 352.9 146.2 352.7 145.9 352.9 C 145.7 353.1 145.7 353.7 145.6 354.3 C 145.6 354.8 145.4 355.6 145.3 356.1 C 145.2 356.6 144.8 356.7 144.5 356.9 C 144.2 357.1 143.5 356.9 143.2 356.7 C 142.9 356.4 142.5 356.1 142.4 355.4 C 142.2 354.8 142.2 354.1 142.4 353.3 C 142.5 352.6 142.9 351.8 143.2 351.2 C 144.5 347.7 147.3 344.2 149.6 340.8 C 150.3 339.1 150.2 338.7 149.7 339.2 L 149.7 339.2 Z"/>
<path transform="translate(0,0)" style="fill: rgb(0,0,0); fill-rule: evenodd" stroke-linecap="round" d="M 579.3 357.1 C 579.1 357.1 579 357.6 578.8 357.9 C 578.6 358.4 578.3 358.5 577.8 358.5 C 577.5 358.5 577 358.4 576.6 358.1 C 576.4 357.6 576.4 357 576.6 356.2 C 576.8 355.3 577.1 354.4 577.4 353.6 C 577.7 352.8 578.2 352 578.7 351.7 C 579 351.4 579.7 351.2 580 351.5 C 583.2 355.6 583.6 361.6 583.6 365.9 C 583.6 366.2 584.1 366.2 584.4 365.6 C 586.7 362.4 588 358.7 590 355.4 C 593.7 349.6 600.1 353.5 595.9 358.2 C 594.1 360.3 592.7 359.3 593 358 C 593 357.7 594.2 356.3 593 356.7 C 589.6 357.8 587.5 367.2 582.7 368.8 C 582.1 369.1 581.6 369.2 581.4 369.1 C 581.2 368.9 581.4 368.4 581.7 368 C 583 365 582.7 363.7 581.4 360.7 C 581.1 359.5 580.6 358.6 580.1 358.1 C 579.8 357.3 579.5 357 579.3 357.1 L 579.3 357.1 Z M 590.9 337.1 C 590.2 337.5 589.4 338.6 588.3 340 C 587.1 341.6 585.7 343.6 584.7 345.6 C 583.6 347.7 582.9 349.6 582.7 351.3 C 582.4 352.9 582.7 354.4 583.3 355.2 C 583.8 356.2 584.8 356.9 585.6 356.9 C 586.6 357.1 587.6 356.7 588.2 356.1 C 589 355.4 589.5 354.6 589.6 353.5 C 589.8 352.5 589.6 351.4 589.4 350.6 C 589.1 349.8 588.6 349.3 588.3 349 C 588 348.6 587.6 348.5 587.5 348.6 C 587.3 348.8 587.3 349.3 587.2 349.7 C 587.2 350.2 587 350.9 586.9 351.2 C 586.7 351.7 586.6 351.8 586.2 352 C 585.9 352 585.4 352 585.1 351.8 C 584.7 351.7 584.6 351.2 584.4 350.7 C 584.4 350.2 584.4 349.6 584.6 349.1 C 584.6 348.5 584.9 347.8 585.1 347.2 C 586.2 344.4 588.5 341.5 590.5 338.5 C 591.5 336.9 591.4 336.6 590.9 337.1 L 590.9 337.1 Z"/>
<path transform="translate(0,0)" style="fill: rgb(0,0,0); fill-rule: evenodd" stroke-linecap="round" d="M 521.5 398.5 C 521.4 398.5 521.2 398.9 521 399.3 C 520.8 399.6 520.5 399.9 520 399.9 C 519.7 399.9 519.2 399.7 519 399.4 C 518.7 398.9 518.7 398.3 518.8 397.4 C 519 396.6 519.3 395.6 519.6 394.6 C 519.9 393.8 520.4 393.2 520.9 392.8 C 521.4 392.5 521.9 392.2 522.2 392.7 C 525.5 396.8 525.8 402.8 525.8 406.9 C 525.8 407.4 526.3 407.4 526.6 406.7 C 528.9 403.4 530.2 399.8 532.3 396.6 C 535.9 390.7 542.2 394.5 538 399.4 C 536.2 401.4 534.9 400.5 535 399.3 C 535 398.9 536.2 397.5 535 398 C 531.6 399.1 529.5 408.3 524.7 410 C 524 410.3 523.6 410.3 523.4 410.2 C 523.2 410.2 523.4 409.7 523.7 409.2 C 525 406.1 524.7 404.8 523.6 401.9 C 523.1 400.8 522.6 399.8 522.3 399.2 C 522 398.6 521.7 398.3 521.5 398.5 L 521.5 398.5 Z M 533.1 378.4 C 532.6 378.7 531.6 379.7 530.5 381.3 C 529.4 382.8 527.9 384.9 526.9 386.8 C 525.8 388.8 525.1 390.7 524.9 392.5 C 524.6 394.1 524.9 395.5 525.6 396.4 C 526.1 397.4 527.1 397.9 527.9 398 C 528.9 398.2 529.8 397.9 530.5 397.2 C 531.3 396.6 531.8 395.6 532 394.6 C 532.2 393.6 532 392.5 531.8 391.7 C 531.5 390.9 531.1 390.4 530.7 389.9 C 530.4 389.6 530.1 389.5 529.9 389.6 C 529.7 389.8 529.7 390.3 529.6 390.9 C 529.6 391.4 529.4 392 529.3 392.4 C 529.3 392.9 528.9 393.1 528.6 393.3 C 528.3 393.3 527.9 393.3 527.6 393.1 C 527.2 392.8 527 392.4 527 391.9 C 526.8 391.4 526.8 390.7 527 390.1 C 527 389.6 527.3 389 527.5 388.3 C 528.6 385.6 530.9 382.5 532.9 379.7 C 533.8 378.2 533.6 377.9 533.1 378.4 L 533.1 378.4 Z"/>
<path transform="translate(0,0)" style="fill: rgb(0,0,0); fill-rule: evenodd" stroke-linecap="round" d="M 223 358.8 C 222.5 359.1 221.5 360.1 220.6 361.6 C 219.5 363.1 218.1 365 217.2 367 C 216.1 368.8 215.4 370.8 215.3 372.4 C 215.1 373.8 215.3 375.2 215.9 376.2 C 216.4 377.1 217.2 377.6 218.2 377.6 C 219 377.8 220 377.4 220.7 377 C 221.4 376.3 221.8 375.3 222 374.4 C 222.2 373.4 222.2 372.5 221.8 371.6 C 221.6 370.8 221.2 370.3 220.8 370 C 220.5 369.7 220.1 369.5 220 369.7 C 219.8 369.8 219.8 370.3 219.7 370.8 C 219.7 371.3 219.5 371.9 219.4 372.3 C 219.4 372.7 219.1 373 218.7 373 C 218.5 373.1 218 373.1 217.7 372.8 C 217.4 372.7 217.2 372.3 217.1 371.8 C 217.1 371.4 217.1 370.9 217.1 370.2 C 217.2 369.8 217.4 369.1 217.7 368.5 C 218.7 365.8 221 363 222.8 360.3 C 223.5 358.6 223.5 358.3 223 358.8 L 223 358.8 Z"/>
</svg>