<?xml version="1.0" encoding="UTF-8" standalone="no"?><!DOCTYPE svg PUBLIC "-//W3C//DTD SVG 1.1//EN" "http://www.w3.org/Graphics/SVG/1.1/DTD/svg11.dtd"><svg xmlns="http://www.w3.org/2000/svg" xmlns:xlink="http://www.w3.org/1999/xlink" version="1.1" width="800" height="500" viewBox="0 0 800 500">
<desc>Created with SVGMaker Editor 2.2.3</desc>
<defs>
</defs>
<path transform="translate(0,0)" style="fill: rgb(0,0,0); fill-rule: evenodd" stroke-linecap="round" d="M 89.9 263.6 C 100 263.6 111.9 261.2 125.6 256.5 C 133.1 253.5 140.7 250.4 148.2 247.3 C 153.4 245.2 157.2 244.2 159.9 244.2 C 164.6 244.2 166.9 246.3 166.9 250.6 C 166.9 253.5 165.5 257.1 162.7 261.4 C 162 262.5 159.9 265.2 156.4 269.5 C 154.4 271.7 152.5 273.9 150.5 276.2 C 148 279 146.1 281.6 144.8 284.1 C 142.6 288.2 141.4 290.2 141.1 290.2 C 141 290.2 140.9 290.1 140.9 290 C 140.9 289.4 141.4 287.4 142.4 284.1 C 143.9 279.2 147.4 273.7 152.9 267.4 C 157.9 261.7 160.5 258.3 160.5 257.1 C 160.5 256.3 159.7 255.8 158.2 255.8 C 155.8 255.8 151.3 257.1 144.8 259.6 C 132.1 264.5 124.6 267.3 122.5 268.1 C 107.4 273.1 94.8 275.6 84.9 275.6 C 62.5 275.6 51.3 267.3 51.3 250.6 C 51.3 243 53.1 235.8 56.7 229.3 C 57.9 227.2 58.7 226.1 59.1 226.1 C 59.3 226.2 59.3 226.3 59.3 226.6 C 59.3 227.3 59 228.5 58.4 230.2 C 57.5 232.6 56.6 234.9 55.7 237.3 C 54.8 240.3 54.3 243.5 54.3 247 C 54.3 250.9 56.4 254.3 60.7 257.2 C 66.7 261.6 76.5 263.6 89.9 263.6 L 89.9 263.6 Z M 376.2 217.6 C 376.3 217.4 376.4 217.2 376.5 217 C 376.7 216.9 376.7 217 376.7 217.1 C 376.8 217.2 376.8 217.4 376.7 217.7 C 375.6 223.7 373.8 226.7 371.3 226.7 C 368.6 226.7 367.3 224.5 367.3 220.1 C 367.3 214.7 368.8 209 372 203 C 372.8 201.5 373.2 200.8 373.4 200.7 C 373.4 200.7 373.4 200.7 373.4 200.7 C 373.4 201 373.2 201.8 372.7 203.2 C 370.7 209.4 369.7 213.8 369.7 216.2 C 369.7 219.6 370.6 221.3 372.4 221.3 C 373.7 221.5 374.9 220.1 376.2 217.6 L 376.2 217.6 Z M 449 230.4 L 452.1 224 C 452.3 223.5 452.6 223.3 452.9 223.3 C 453.3 223.3 455.1 224.4 458.2 226.5 C 461.3 228.6 462.9 229.8 462.9 230.3 C 462.9 231.7 461.5 234.6 458.7 239 C 458.4 239.5 458.1 239.7 457.7 239.4 C 455 237.4 451.9 235.3 448.6 233.1 C 447.4 235.7 446.3 237.8 445.2 239.7 C 444.9 240.2 444.5 240.4 444.1 240.1 C 441.1 237.8 437.9 235.6 434.6 233.5 C 434.4 233.4 434.4 233.1 434.6 232.8 L 438.5 224.8 C 438.7 224.3 439 224.1 439.3 224.1 C 439.7 224.1 441.2 225 443.8 226.7 C 446.5 228.3 448.2 229.5 449 230.4 L 449 230.4 Z M 467.9 222.4 C 467.7 222.3 467.7 222 467.9 221.7 L 471.8 213.7 C 472.1 213.2 472.3 212.9 472.6 212.9 C 473 212.9 474.8 214 477.9 216.1 C 481 218.2 482.5 219.5 482.5 219.8 C 482.5 221.2 481.1 224.1 478.4 228.5 C 478.1 229.1 477.7 229.2 477.4 228.9 C 474.3 226.7 471.2 224.5 467.9 222.4 L 467.9 222.4 Z M 83.2 176.1 C 85.5 176.1 87.6 177.4 89.4 180.2 C 91.2 182.9 92.5 186.5 93.2 190.8 C 93.3 191.2 93.3 191.5 93.3 191.6 C 93.4 191.7 93.5 191.7 93.5 191.6 C 93.6 191.5 93.6 191.2 93.8 190.8 C 94.2 188.2 95.1 184.3 96.5 179.1 C 98 175.4 99.7 173.5 101.6 173.5 C 102.6 173.5 103.5 174.2 104.5 175.4 C 105.3 176.5 105.7 177.4 105.7 178.1 C 105.7 178.6 105.6 179.3 105.3 180.2 C 105 181.3 104.5 181.9 104 181.9 C 103.8 181.9 103.3 181.5 102.7 180.6 C 102 179.7 101.3 179.3 100.6 179.3 C 98.9 179.3 97.4 183.1 96 190.9 C 95.4 194.3 94.7 196.7 94 198 C 93.5 198.9 93 199.4 92.6 199.4 C 92.3 199.4 92.1 199 92.1 198.1 C 92.1 196.7 91.3 194.1 89.8 190.2 C 88.2 186.3 87.1 184.3 86.5 184.3 C 86 184.3 85.7 184.4 85.6 184.7 C 85.5 185 85.1 185.1 84.5 185.1 C 83.8 185.1 82.9 184.6 81.8 183.6 C 80.7 182.5 80.1 181.7 80.1 181.1 C 80.1 180.8 80.5 179.9 81.5 178.3 C 82.4 176.9 83 176.1 83.2 176.1 L 83.2 176.1 Z M 132.1 231 C 130.7 233.5 129.5 234.9 128.5 234.9 C 126.7 234.9 125.7 233.2 125.7 229.8 C 125.7 227.3 126.7 223 128.8 216.8 C 129.2 215.4 129.4 214.6 129.4 214.3 C 129.4 214.3 129.4 214.3 129.4 214.3 C 129.2 214.3 128.7 215.1 128 216.5 C 124.9 222.4 123.3 228.2 123.3 233.6 C 123.3 238 124.6 240.2 127.3 240.2 C 129.8 240.2 131.6 237.2 132.7 231.2 C 132.7 230.9 132.7 230.7 132.7 230.6 C 132.7 230.5 132.6 230.5 132.5 230.5 C 132.3 230.6 132.2 230.7 132.1 231 L 132.1 231 Z M 73.9 315.8 C 73.9 317.9 73 320.3 71.3 322.9 C 69.5 325.7 67.2 328.1 64.5 330.1 C 63.4 330.9 62.7 331.2 62.5 331.2 C 62.5 331.2 62.5 331.2 62.5 331.2 C 62.5 331 63 330.4 63.9 329.4 C 68.4 324.4 70.8 321.1 70.8 319.4 C 70.8 317.8 70.1 317 68.6 317 C 67.8 317 67.1 317.2 66.4 317.7 C 65.9 318 65.6 318.2 65.5 318.3 C 65.4 318.2 65.3 318.1 65.2 318.1 C 65.3 317.9 65.3 317.5 65.5 316.8 C 66.2 313.4 67.9 311.6 70.6 311.6 C 72.7 311.6 73.9 313 73.9 315.8 L 73.9 315.8 Z M 625.4 185.6 C 625.5 185.4 625.6 185.2 625.8 185.1 C 625.9 185 626 185.1 626 185.2 C 626 185.3 626 185.5 626 185.8 C 624.9 191.8 623.1 194.8 620.6 194.8 C 617.9 194.8 616.6 192.6 616.6 188.2 C 616.6 182.8 618.2 177.1 621.3 171.1 C 622.1 169.6 622.6 168.9 622.8 168.8 C 622.8 168.8 622.8 168.8 622.8 168.9 C 622.8 169.2 622.6 170 622.2 171.4 C 620.2 177.6 619.1 182 619.1 184.4 C 619.1 187.8 620 189.5 621.9 189.5 C 622.8 189.5 624.1 188.2 625.4 185.6 L 625.4 185.6 Z M 437.6 176.1 C 439.9 176.1 441.9 177.4 443.8 180.2 C 445.6 182.9 446.9 186.5 447.6 190.8 C 447.7 191.2 447.7 191.5 447.7 191.6 C 447.8 191.7 447.9 191.7 447.9 191.6 C 447.9 191.5 448 191.2 448.2 190.8 C 448.5 188.2 449.5 184.3 450.9 179.1 C 452.4 175.4 454.1 173.5 456 173.5 C 457 173.5 457.9 174.2 458.8 175.4 C 459.7 176.5 460.1 177.4 460.1 178.1 C 460.1 178.6 459.9 179.3 459.7 180.2 C 459.3 181.3 458.9 181.9 458.4 181.9 C 458.2 181.9 457.7 181.5 457 180.6 C 456.3 179.7 455.6 179.3 454.9 179.3 C 453.3 179.3 451.8 183.1 450.4 190.9 C 449.8 194.3 449.1 196.7 448.4 198 C 447.9 198.9 447.4 199.4 447.1 199.4 C 446.8 199.4 446.6 199 446.6 198.1 C 446.6 196.7 445.8 194.1 444.3 190.2 C 442.8 186.3 441.7 184.3 441 184.3 C 440.5 184.3 440.3 184.4 440.1 184.7 C 440 185 439.6 185.1 439 185.1 C 438.3 185.1 437.4 184.6 436.3 183.6 C 435.2 182.5 434.6 181.7 434.6 181.1 C 434.6 180.8 435.1 179.9 436 178.3 C 436.7 176.9 437.3 176.1 437.6 176.1 L 437.6 176.1 Z M 526.7 176.1 C 529 176.1 531.1 177.4 532.9 180.2 C 534.7 182.9 536 186.5 536.7 190.8 C 536.8 191.2 536.8 191.5 536.8 191.6 C 536.9 191.7 536.9 191.7 537 191.6 C 537 191.5 537.1 191.2 537.3 190.8 C 537.7 188.2 538.6 184.3 540 179.1 C 541.6 175.4 543.3 173.5 545.1 173.5 C 546 173.5 547 174.2 547.9 175.4 C 548.7 176.5 549.1 177.4 549.1 178.1 C 549.1 178.6 548.9 179.3 548.7 180.2 C 548.3 181.3 547.9 181.9 547.4 181.9 C 547.2 181.9 546.7 181.5 546 180.6 C 545.3 179.7 544.6 179.3 543.9 179.3 C 542.3 179.3 540.8 183.1 539.4 190.9 C 538.8 194.3 538.1 196.7 537.4 198 C 536.9 198.9 536.4 199.4 536 199.4 C 535.7 199.4 535.5 199 535.5 198.1 C 535.5 196.7 534.7 194.1 533.2 190.2 C 531.7 186.3 530.5 184.3 529.9 184.3 C 529.5 184.3 529.2 184.4 529 184.7 C 528.9 185 528.5 185.1 527.9 185.1 C 527.2 185.1 526.3 184.6 525.2 183.6 C 524.1 182.5 523.5 181.7 523.5 181.1 C 523.5 180.8 523.9 179.9 524.9 178.3 C 525.8 176.9 526.4 176.1 526.7 176.1 L 526.7 176.1 Z M 556.9 322 C 557.1 321.8 557.2 321.6 557.3 321.5 C 557.5 321.4 557.5 321.5 557.5 321.6 C 557.5 321.7 557.5 321.9 557.5 322.2 C 556.4 328.2 554.6 331.2 552.1 331.2 C 549.4 331.2 548.1 329 548.1 324.6 C 548.1 319.2 549.7 313.4 552.8 307.5 C 553.6 306 554.1 305.3 554.3 305.2 C 554.3 305.2 554.3 305.2 554.3 305.2 C 554.3 305.5 554.1 306.3 553.7 307.7 C 551.7 313.9 550.6 318.3 550.6 320.7 C 550.6 324.1 551.6 325.8 553.4 325.8 C 554.3 325.9 555.5 324.6 556.9 322 L 556.9 322 Z M 466.9 315.8 C 466.9 317.9 466 320.3 464.3 322.9 C 462.6 325.7 460.3 328.1 457.5 330.1 C 456.4 330.9 455.8 331.2 455.5 331.2 C 455.4 331.2 455.4 331.2 455.4 331.2 C 455.4 331 455.8 330.4 456.8 329.4 C 461.4 324.4 463.7 321.1 463.7 319.4 C 463.7 317.8 463 317 461.5 317 C 460.6 317 459.9 317.2 459.3 317.7 C 458.8 318 458.5 318.2 458.4 318.3 C 458.4 318.2 458.2 318.1 458.1 318.1 C 458.1 317.9 458.2 317.5 458.3 316.8 C 459.1 313.4 460.8 311.6 463.4 311.6 C 465.8 311.6 466.9 313 466.9 315.8 L 466.9 315.8 Z M 447.2 310.8 C 447.1 310.3 446.8 309.7 446.2 309.1 C 445.6 308.4 445.1 308.1 444.6 308.1 C 443.8 308.1 443.2 308.5 442.6 309.2 C 443.4 310 444.7 310.7 446.4 311.5 C 446.8 311.7 447 311.7 447.1 311.6 C 447.2 311.5 447.2 311.2 447.2 310.8 L 447.2 310.8 Z M 440.1 307.9 C 440.4 307.5 440.8 307.5 441.2 307.8 C 442.4 305.2 443.7 304 445.1 304 C 446 304 446.9 304.6 447.8 305.7 C 448.7 306.9 449.1 308.3 449.1 309.9 C 449.1 310.5 449 311 448.9 311.6 C 448.4 314.1 447.5 315.4 446.5 315.4 C 445.6 315.4 444.3 314.9 442.8 313.9 C 441.4 313 440.4 312.2 439.8 311.3 C 438.9 314 437.8 316.2 436.3 317.8 C 433.9 320.6 430.6 323.1 426.4 325.3 C 423.1 327.1 421 328 420.2 328 C 420.1 328 418.2 328.4 414.6 329.3 C 410.7 330.2 408.4 330.8 407.4 330.9 C 406 331.1 405.3 331.2 405.3 331.1 C 405.3 331 406 330.6 407.4 330 C 411.4 328.4 417.4 325.7 425.6 321.8 C 431.6 318.6 435.4 315.7 437 313.3 C 437.7 311.9 438.7 310.1 440.1 307.9 L 440.1 307.9 Z M 650 315.8 C 650 317.9 649.1 320.3 647.4 322.9 C 645.7 325.7 643.4 328.1 640.6 330.1 C 639.5 330.9 638.8 331.2 638.6 331.2 C 638.6 331.2 638.5 331.2 638.5 331.2 C 638.5 331 638.9 330.4 639.9 329.4 C 644.5 324.4 646.8 321.1 646.8 319.4 C 646.8 317.8 646 317 644.6 317 C 643.8 317 643 317.2 642.4 317.7 C 641.9 318 641.6 318.2 641.5 318.3 C 641.4 318.2 641.3 318.1 641.2 318.1 C 641.3 317.9 641.4 317.5 641.5 316.8 C 642.3 313.4 644 311.6 646.7 311.6 C 648.9 311.6 650 313 650 315.8 L 650 315.8 Z M 686.2 183.2 C 686.5 182 686.6 180.8 686.4 179.7 C 686.2 178.4 685.6 177.8 684.6 177.8 C 684.2 177.8 683.6 178 682.8 178.4 C 682 178.8 681.6 179.3 681.6 179.6 C 681.7 180.5 683.2 181.7 686.2 183.2 L 686.2 183.2 Z M 687.9 198.5 C 690.7 197.2 693.6 195.8 696.6 194.5 C 718.3 184.6 732.2 179.6 738.1 179.6 C 741.8 179.6 743.6 180.3 743.6 181.7 C 743.6 182 743.6 182.2 743.4 182.4 C 742.1 184.7 738.2 189.6 731.6 197 C 730.8 197.9 729.7 199.8 728.2 202.6 C 726.5 205.7 725.6 207.9 725.3 209.1 C 724.9 211.4 724.8 212.5 725 212.5 C 725.2 212.5 725.7 211.6 726.5 209.9 C 727.7 207.4 730.1 204.1 733.5 200.1 C 735.7 197.6 737.9 195.1 740.1 192.6 C 745.9 185.4 748.8 179.4 748.8 174.5 C 748.8 172.4 748.4 170.9 747.5 170 C 746.7 169.1 745.2 168.7 743 168.7 C 735.6 168.7 720.3 173.9 697.2 184.2 C 695.1 185.1 693.1 186.1 691.2 187 C 690.9 186 689.9 185.1 688.4 184.2 C 689.3 181.5 689.8 179.1 689.8 176.9 C 689.8 174.5 689.1 173 687.8 172.6 C 686.2 172 684.2 172.8 681.8 175 C 679.4 177.2 678.2 179.5 678.2 182.2 C 678.2 184.4 680.1 186.4 683.9 188.4 C 682.4 190 680.5 191.6 678.2 193.4 C 665.9 199.6 657.3 204.8 652.6 209.1 C 651.8 209.8 651.1 211 650.5 212.5 C 650.3 210.9 650.2 209.5 650 208.1 C 648.3 194.7 646.1 183.7 643.4 174.9 C 643.1 174 642.9 173.6 642.5 173.6 C 642.3 173.6 642 174 641.6 174.9 C 641.2 176.1 640.4 179.6 639.5 185.5 C 641.2 195.7 642.4 203.6 643 209.2 C 645 225.4 646 243.8 646 264.3 C 646 271.8 646 275.8 645.9 276.3 C 645.6 281.7 644.7 285.3 643.3 287.1 C 638.4 293.1 630.8 299.4 620.5 306.2 C 607.4 314.9 596 319.2 586.4 319.2 C 577.3 319.2 570.9 315.9 567 309.5 C 564.5 305.4 563.3 300.4 563.3 294.6 C 563.3 289.2 564.5 283.3 566.9 276.9 C 567.5 275.2 567.8 274 567.8 273.2 C 567.8 272.9 567.7 272.7 567.6 272.7 C 567.1 272.7 566.3 273.9 565.1 276.2 C 562 282.3 560.5 289.9 560.5 299.2 C 560.5 307.3 561.9 314 564.7 319.4 C 568.9 327.5 575.9 331.5 585.8 331.5 C 592.9 331.5 601.3 328.8 610.9 323.5 C 618.2 319.4 625.7 314.2 633.2 307.8 C 639.2 302.7 643 299 644.5 296.7 C 645.8 294.8 647 290.2 648.1 282.9 C 648.8 290.3 650 295.5 651.7 298.5 C 657 307.8 670.6 306.5 679.2 303.8 C 684.1 302.4 689.2 299.7 694.6 295.8 C 699.9 292.1 703.5 288.4 705.5 285 C 707.4 281.6 708.4 277.4 708.4 272.4 C 708.4 266.9 705 261.4 698.2 255.9 C 695.1 253.4 688.2 249 677.4 242.7 C 668.6 237.5 663 233.3 660.4 230 C 661.9 230.2 663.1 230.3 664.2 230.3 C 666.2 230.3 667.2 230 667.2 229.2 C 667.2 228.4 665.9 227.4 663.4 226.2 L 651.8 220.7 C 651.1 220.4 651 220 651.5 219.6 C 658.1 214.1 669.6 207.5 686 199.6 C 685.2 202.3 684.8 204.5 684.8 206.2 C 684.8 210.6 686.1 212.8 688.8 212.8 C 691.3 212.8 693.1 209.8 694.2 203.8 C 694.3 203.5 694.3 203.3 694.2 203.2 C 694.2 203.1 694.1 203 694.1 203.1 C 694 203.2 693.8 203.4 693.7 203.6 C 692.4 206.2 691.2 207.5 690.1 207.5 C 688.2 207.5 687.3 205.8 687.3 202.4 C 687.5 201.2 687.6 199.9 687.9 198.5 L 687.9 198.5 Z M 68.1 205.9 C 68.3 205.5 68.6 205.1 68.8 204.9 C 69 204.8 69.1 204.8 69.1 205 C 69.2 205.3 69.2 205.6 69.1 206.2 C 67 217.8 63.5 223.5 58.8 223.5 C 53.7 223.5 51.1 219.2 51.1 210.8 C 51.1 200.4 54.1 189.4 60.2 177.9 C 61.7 175.1 62.6 173.7 62.9 173.6 C 62.9 173.6 63 173.6 63 173.7 C 63 174.2 62.6 175.8 61.7 178.5 C 57.8 190.4 55.8 198.8 55.8 203.6 C 55.8 210.1 57.6 213.4 61.1 213.4 C 63.2 213.3 65.5 210.8 68.1 205.9 L 68.1 205.9 Z M 179.7 322 C 179.8 321.8 179.9 321.6 180 321.5 C 180.1 321.4 180.2 321.5 180.2 321.6 C 180.2 321.7 180.2 321.9 180.2 322.2 C 179.1 328.2 177.3 331.2 174.8 331.2 C 172.1 331.2 170.8 329 170.8 324.6 C 170.8 319.2 172.3 313.4 175.5 307.5 C 176.3 306 176.7 305.3 176.9 305.2 C 176.9 305.2 176.9 305.2 176.9 305.2 C 176.9 305.5 176.7 306.3 176.2 307.7 C 174.2 313.9 173.2 318.3 173.2 320.7 C 173.2 324.1 174.1 325.8 175.9 325.8 C 177.1 325.9 178.3 324.6 179.7 322 L 179.7 322 Z M 245.6 198 C 245.7 197.8 245.9 197.6 246 197.5 C 246.1 197.4 246.2 197.4 246.2 197.5 C 246.2 197.6 246.2 197.8 246.2 198.1 C 245.1 204.1 243.3 207.1 240.8 207.1 C 238.1 207.1 236.8 204.9 236.8 200.5 C 236.8 195.1 238.4 189.4 241.5 183.4 C 242.3 181.9 242.7 181.2 242.9 181.1 C 242.9 181.1 242.9 181.1 242.9 181.2 C 242.9 181.5 242.7 182.3 242.2 183.7 C 240.2 189.9 239.1 194.2 239.1 196.7 C 239.1 200.1 240 201.8 241.9 201.8 C 243 201.9 244.2 200.6 245.6 198 L 245.6 198 Z M 437.3 260.3 C 437.4 260.1 437.5 259.9 437.7 259.8 C 437.8 259.7 437.9 259.7 437.9 259.9 C 437.9 260 437.9 260.2 437.9 260.5 C 436.8 266.5 435 269.5 432.5 269.5 C 429.9 269.5 428.5 267.3 428.5 262.9 C 428.5 257.5 430.1 251.8 433.2 245.8 C 433.9 244.3 434.4 243.6 434.6 243.6 C 434.6 243.6 434.7 243.6 434.7 243.6 C 434.7 243.9 434.5 244.7 434 246.1 C 432 252.3 431 256.7 431 259.2 C 431 262.6 431.9 264.3 433.8 264.3 C 434.7 264.2 435.9 262.9 437.3 260.3 L 437.3 260.3 Z M 71.1 299.3 C 74.4 301.4 77.5 303.5 80.6 305.9 C 81 306.2 81.3 306 81.6 305.5 C 84.3 301.1 85.7 298.2 85.7 296.8 C 85.7 296.5 84.1 295.2 81 293.1 C 77.9 291 76.1 289.9 75.8 289.9 C 75.5 289.9 75.2 290.2 75 290.7 L 71 298.7 C 71 299 71 299.2 71.1 299.3 L 71.1 299.3 Z M 184.1 201.1 L 187.2 194.7 C 187.5 194.2 187.7 194 188 194 C 188.4 194 190.2 195 193.3 197.2 C 196.4 199.3 198 200.6 198 201 C 198 202.4 196.6 205.3 193.9 209.7 C 193.6 210.2 193.2 210.3 192.9 210.1 C 190.2 208.1 187.2 206 183.8 203.8 C 182.7 206.4 181.5 208.5 180.5 210.4 C 180.2 211 179.8 211.1 179.4 210.8 C 176.4 208.5 173.2 206.3 169.9 204.3 C 169.7 204.2 169.7 203.9 169.9 203.6 L 173.8 195.5 C 174.1 195 174.3 194.8 174.6 194.8 C 174.9 194.8 176.5 195.7 179.1 197.4 C 181.6 199 183.3 200.2 184.1 201.1 L 184.1 201.1 Z M 278.7 200.2 C 278.3 201.2 278 201.6 277.6 201.6 C 277.2 201.6 277.1 201 277.4 199.7 C 277.6 198.6 277.8 197.2 277.8 195.4 C 277.8 189.7 274.6 184 268.1 178.3 C 267.7 177.9 267.6 177.5 267.9 177 L 269.7 173.8 C 269.9 173.5 270.1 173.5 270.5 173.8 C 276.8 178.5 280 184.9 280 193 C 280.1 195.5 279.7 197.9 278.7 200.2 L 278.7 200.2 Z M 306.4 221.8 C 306.4 223.4 306 225 305.3 226.8 C 304.4 229 303.2 230.1 301.7 230.1 C 299.4 230.1 297.7 228.5 296.7 225.3 C 295.6 229.4 293.6 231.4 290.7 231.4 C 289.6 231.4 288.6 230.9 287.8 229.7 C 286.9 228.4 286.4 226.7 286.4 224.6 L 286.4 219.6 C 286.4 219.2 286.1 218.9 285.6 218.7 C 285 218.5 284.8 218.1 284.8 217.4 C 284.8 216.3 285.2 215.2 286.2 214.2 C 287.1 213.2 287.7 212.8 288.2 212.8 C 288.7 212.8 289.1 213.9 289.1 216.1 C 289.1 217.2 289 218.2 288.8 219 C 288.6 219.8 288.5 220.5 288.5 221 C 288.5 222.2 288.7 223.3 289.2 224.4 C 289.8 225.7 290.5 226.3 291.3 226.3 C 292.4 226.3 293.4 225.8 294.4 224.8 C 295.4 223.8 295.9 222.6 295.9 221.3 C 295.9 220.5 295.7 219.2 295.2 217.3 C 294.7 215.4 294.5 214.2 294.5 213.8 C 294.5 213.4 294.7 212.7 295.1 211.9 C 295.5 211 295.8 210.6 296 210.6 C 296.4 210.6 296.9 211.8 297.4 214.3 C 298 216.8 298.3 218.6 298.3 219.8 C 298.3 223.2 299.7 225 302.3 225 C 303.4 225 304.2 224.4 304.4 223.3 C 302.1 219.3 301 216.2 301 214.1 C 301 212.9 301.3 211.8 302 210.9 C 302.4 210.3 302.7 209.9 302.9 209.9 C 303 209.9 303.2 210.3 303.2 211.1 C 303.3 212.2 303.5 213.2 303.8 213.9 C 303.9 214 304.4 215.4 305.5 218.1 C 306.1 219.7 306.4 221 306.4 221.8 L 306.4 221.8 Z M 507.1 180.1 C 507.2 180.6 507 181.6 506.5 183.1 C 506 184.6 505.5 185.4 505.2 185.5 C 505.2 185.5 504.6 185.8 503.6 186.4 C 502.6 186.9 501.7 187.3 501.1 187.5 C 500.7 187.6 500.5 187.6 500.4 187.5 C 500.3 187.4 501.3 186.5 503.2 184.9 C 504.7 183.7 505.4 183 505.3 182.7 C 505.3 182.6 504.9 182.7 504.3 182.8 C 503.5 183 502.8 183.1 502.3 183 C 501.6 182.9 501.1 182.5 500.9 181.7 C 500.6 180.4 500.9 178.7 501.8 176.7 C 502.6 174.8 503.4 173.8 504.1 173.6 C 504.7 173.5 505.1 173.7 505.2 174.3 C 505.3 174.8 505.4 175.3 505.3 175.9 C 505.2 176.6 505 177 504.6 177.1 C 504.4 177.2 504.3 177.1 504.2 176.9 C 504.1 176.7 504 176.7 503.8 176.7 C 503.6 176.8 503.2 177.1 502.8 177.8 C 502.4 178.4 502.1 178.9 502.2 179.1 C 502.3 179.5 503.1 179.6 504.6 179.4 C 506 179.2 506.9 179.4 507.1 180.1 L 507.1 180.1 Z M 236 224.6 C 235.1 226.6 234.5 228.5 234.1 230.2 C 268.7 215.3 301 201.8 330.8 189.8 C 331.2 189.4 331.8 188.3 332.5 186.5 C 332.7 185.9 332.7 185.6 332.6 185.5 C 332.5 185.4 332.1 185.5 331.5 185.7 C 299 198.9 267.2 211.9 236 224.6 L 236 224.6 Z M 81.7 214.7 C 80.7 216.7 80 218.6 79.6 220.3 C 117.2 205.4 152.1 191.9 184.5 179.8 C 185 179.4 185.5 178.3 186.3 176.6 C 186.5 176 186.6 175.7 186.4 175.5 C 186.3 175.4 185.9 175.5 185.2 175.7 C 150.1 189 115.5 202 81.7 214.7 L 81.7 214.7 Z M 432.6 214.6 C 431.6 216.6 430.9 218.4 430.5 220.1 C 449.5 212.4 466.1 206 480.2 200.8 C 480.6 200.4 481.2 199.4 482 197.6 C 482.2 197 482.3 196.7 482.1 196.5 C 482 196.4 481.6 196.5 481 196.8 C 464.1 202.9 448 208.9 432.6 214.6 L 432.6 214.6 Z M 589.9 214.4 C 601.3 210.3 613.3 205.9 626.1 201.3 C 626.7 201 627.1 201 627.3 201 C 627.4 201.1 627.4 201.5 627.2 202 C 626.5 203.8 625.9 204.9 625.4 205.3 C 614.7 209.1 602.2 214 587.9 219.9 C 588.3 218.3 589 216.4 589.9 214.4 L 589.9 214.4 Z M 215 193.8 C 215 190 214.4 186.8 213.2 184.4 C 213.2 183 214.3 179.8 216.6 174.5 C 216.9 173.9 217.1 173.6 217.3 173.6 C 217.5 173.6 217.8 173.9 218.2 174.6 C 218.8 176 220.4 179.7 222.7 185.8 C 225.2 192.2 226.7 196 227.1 197.5 C 227.5 198.6 227.6 199.4 227.6 200 C 227.6 201.8 225.9 200.7 222.4 196.9 C 222 196.3 221.8 196.6 221.8 197.6 C 221.8 197.9 222.7 210.1 224.5 234.1 C 226.3 258.1 227.2 271.6 227.2 274.6 C 227.2 283.8 225.8 292 222.8 299 C 222.2 300.4 221.7 301.5 221.3 302.1 C 220.7 303 220.4 303.2 220.2 302.5 C 220 301.8 220.1 300.3 220.4 298 C 220.7 294.8 220.9 291.2 220.9 287 C 220.9 283.2 219.9 267.5 217.9 240.1 C 216 212.4 215 197 215 193.8 L 215 193.8 Z M 369.3 254.8 C 364.6 256.1 364.6 260.5 363.7 264.7 C 363.3 266.2 363.9 267.2 365.5 267.8 C 366.1 268 371.8 269.6 382.7 272.6 C 391.4 275 396.5 276.8 398 277.9 C 395.2 282.2 388.9 287.1 379.1 292.8 C 377.9 293.5 376.6 294.2 375.3 294.9 C 375.4 294.5 375.6 294 375.7 293.6 C 378.4 286.3 379.8 282.1 379.8 280.9 C 379.8 280.6 379.7 280.5 379.5 280.4 C 379.1 280.4 378.6 281 377.9 282.3 C 375.2 287.6 373.1 292.4 371.6 296.8 C 362.2 301.5 352 305.5 340.9 308.7 C 323.6 313.7 306.2 316.1 288.6 316.1 C 259.5 316.1 235.3 312.8 216.1 306 C 206.9 302.8 196.3 297.3 184.2 289.4 C 181.2 287.5 179.5 286.5 179 286.5 C 178.9 286.5 178.9 286.6 178.8 286.7 C 178.8 287.1 179.8 288.6 181.7 291.3 C 185.5 296.8 190 301.9 195.2 306.5 C 199 310 202 312.2 204 313.3 C 224 323.4 251.1 328.5 285.5 328.5 C 302.8 328.5 320.4 325.9 338.4 320.7 C 349.8 317.4 359.9 313.5 368.8 309.1 C 368.7 310.1 368.7 311 368.7 311.9 C 368.7 317.4 370.3 322 373.5 325.9 C 376.5 329.5 380 331.3 384.1 331.3 C 387.9 331.3 392.2 329.6 396.8 326.1 C 403.1 320.9 409.4 315.8 415.7 310.6 C 428 300.9 438.4 296 447.1 296 C 453.5 296 459 297.2 463.4 299.7 C 465 300.6 465.9 300.6 466.1 299.7 L 467.5 291.7 C 467.8 290 467.1 288.8 465.3 288.2 C 461.4 286.9 457.7 285 454.3 282.6 C 451.1 280.3 446.2 276 446.2 271.7 C 446.2 269.3 447.8 266.4 451.1 263 C 454.1 259.8 456.4 258.3 458 258.3 C 459.1 258.3 460.3 259.7 461.5 262.7 C 463.2 266.6 464.9 269.4 466.7 271.1 C 473.6 277.8 483.7 277.1 488.5 268.7 C 490.3 265.5 491.2 260.9 491.2 255 C 491.2 250.9 490.7 247.5 489.7 244.7 C 489 242.8 487.6 240.3 485.7 237.3 C 485.1 236.3 484.5 236.3 484.1 237.3 C 482.7 240.4 481.9 243.4 481.9 246.5 C 481.9 247 482 247.5 482.3 248 C 485.7 253.4 487.5 256.9 487.5 258.6 C 484.2 266.1 473 263.8 468.8 258.9 C 467.5 257.4 465.9 254.6 464.2 250.5 C 462.9 247.5 461.7 246 460.6 246 C 457.3 246 453.7 248.5 449.9 253.5 C 445.6 259.2 443.1 265.8 442.4 273.3 C 442.1 276.7 443.6 281.2 444.9 284.5 C 442.2 284.5 438 285.9 432.3 288.7 C 424.8 292.3 417 297.6 409 304.4 C 404 308.7 398.9 313.1 393.9 317.4 C 389.8 320.4 385.5 321.9 380.9 321.9 C 378.1 321.9 375.8 320.9 374.2 318.8 C 372.7 316.8 371.9 314.3 371.9 311.1 C 371.9 310.1 372 308.9 372.1 307.7 C 374.8 306.3 377.3 304.8 379.7 303.2 C 395.8 292.9 403.9 283 403.9 273.4 C 403.9 270.1 402.2 267.5 398.7 265.6 C 396.5 264.4 392.1 262.9 385.6 260.9 C 390.3 256.7 393.5 251.2 395.1 244.5 C 396.2 239.9 396.8 232.2 396.8 221.5 C 396.8 219.3 396.6 215 396.2 208.5 C 395.8 202.1 395.7 198.7 395.7 198.5 C 395.7 197.4 395.9 197.2 396.3 197.8 C 399.8 201.8 401.5 202.8 401.5 201 C 401.5 200.5 401.3 199.6 401 198.4 C 400.6 196.9 399.2 192.9 396.7 186.4 C 394.3 180.1 392.8 176.2 392.2 174.8 C 391.9 174.1 391.6 173.8 391.3 173.8 C 391.1 173.8 390.8 174.1 390.6 174.8 C 388.3 180.2 387.2 183.5 387.2 185 C 388.4 187.5 389 190.7 389 194.7 C 389 196.4 389.3 201.8 389.9 210.9 C 390.5 220 390.8 226.8 390.8 231.5 C 390.8 240.3 390.7 245.1 390.6 246 C 390.3 247.5 389.1 248.7 386.9 249.6 C 382.1 251 376.3 252.9 369.3 254.8 L 369.3 254.8 Z M 343.2 193.8 C 343.2 190 342.6 186.8 341.4 184.4 C 341.4 183 342.6 179.8 344.8 174.5 C 345.1 173.9 345.3 173.6 345.6 173.6 C 345.8 173.6 346.1 173.9 346.5 174.6 C 347.1 176 348.7 179.7 351 185.8 C 353.5 192.2 354.9 196 355.4 197.5 C 355.7 198.6 355.9 199.4 355.9 200 C 355.9 201.8 354.2 200.7 350.7 196.9 C 350.3 196.3 350.1 196.6 350.1 197.6 C 350.1 197.9 351 210.1 352.8 234.1 C 354.6 258.1 355.5 271.6 355.5 274.6 C 355.5 283.8 354.1 292 351.2 299 C 350.6 300.4 350.1 301.5 349.7 302.1 C 349.1 303 348.8 303.2 348.7 302.5 C 348.5 301.8 348.6 300.3 348.9 298 C 349.3 294.8 349.4 291.2 349.4 287 C 349.4 283.2 348.4 267.5 346.4 240.1 C 344.2 212.4 343.2 197 343.2 193.8 L 343.2 193.8 Z M 410.4 194.4 C 410.4 190.5 409.8 187.2 408.6 184.7 C 408.6 183.2 409.7 179.9 412 174.5 C 412.3 173.8 412.6 173.5 412.8 173.5 C 413 173.5 413.3 173.8 413.6 174.5 C 414.2 175.9 415.8 179.8 418.1 186 C 420.6 192.6 422 196.5 422.5 198.1 C 422.8 199.3 423 200.1 423 200.7 C 423 202.5 421.2 201.5 417.8 197.4 C 417.4 196.9 417.2 197.2 417.2 198.2 C 417.2 198.6 417.9 208.5 419.4 228 C 420.9 247.5 421.5 258.8 421.5 261.9 C 421.5 271.4 420.1 279.8 417.2 287 C 416.6 288.5 416.1 289.5 415.7 290.2 C 415.1 291.1 414.8 291.3 414.6 290.5 C 414.4 289.8 414.5 288.3 414.8 285.9 C 415.2 282.6 415.3 278.8 415.3 274.4 C 415.3 270.5 414.5 257 412.9 233.9 C 411.2 211 410.4 197.8 410.4 194.4 L 410.4 194.4 Z M 505.8 203.8 C 505.8 207 506.7 221.5 508.5 247 C 507.3 247.3 506.1 247.5 505 247.5 C 502.1 247.5 499.9 246.4 498.3 244.4 C 496.8 242.5 496.1 239.9 496.1 236.7 C 496.1 232.5 497.5 226.7 500.1 219.5 C 502.8 212.2 504.2 208 504.2 206.8 C 504.2 206.5 504.1 206.4 503.9 206.3 C 503.5 206.3 503 206.9 502.4 208.2 C 496.2 220.3 493.1 230.2 493.1 237.8 C 493.1 243.3 494.7 247.9 497.9 251.7 C 500.9 255.3 504.4 257.1 508.5 257.1 C 508.7 257.1 509 257.1 509.3 257.1 C 511 282 511.9 296.2 511.9 299.9 C 511.9 304.2 511.7 308 511.4 311.3 C 511.1 313.7 511.1 315.2 511.2 316 C 511.3 316.7 511.7 316.6 512.2 315.6 C 512.6 314.9 513.1 313.9 513.7 312.4 C 516.6 305.2 518 296.8 518 287.3 C 518 284.6 517.3 273.8 516 255 C 517.3 254.2 518.7 253.2 520 252 C 521.1 251 525.3 246.6 532.5 238.7 C 538.8 231.8 545 225.9 551.1 221.2 C 554.5 218.5 559.2 215.8 565.1 212.8 C 565.8 221.3 566.4 232.3 566.8 245.7 C 567.2 259.9 567.8 268.9 568.4 272.7 C 571 287.6 580.1 291.1 594.6 291.1 C 602.4 291.1 610.1 288.9 617.9 284.5 C 622.4 282 628.1 277.9 635 272 C 636.8 268.5 638.2 265.4 639.1 262.7 C 639.6 261.5 639.6 261 638.9 261 C 638.5 261 637.8 261.4 636.9 262.2 C 632.5 266 627.7 269.4 622.5 272.4 C 616.1 276 610.9 277.9 606.9 277.9 C 599.2 277.9 592.9 274.5 588 267.6 C 584 262 581.9 256.2 581.9 250.4 C 584.5 248.1 588.7 246.1 594.3 244.5 C 600 242.9 605.5 242.1 610.9 242.1 C 614.6 242.1 618.8 243 623.5 244.7 C 624.8 245.1 625.7 245.4 626.2 245.4 C 626.7 245.4 626.9 245.3 626.9 245 C 626.9 244.6 626.3 244 625.1 243 C 618 237.1 610 234.1 601 234.1 C 594.2 234.1 588.5 236.1 583.9 240.1 C 578.6 244.8 575.9 251.5 575.9 260.3 C 575.9 265.8 578.2 271.5 582.8 277.4 C 576.3 276.6 574.1 270.7 573.2 264.9 C 572.9 262.8 572.4 253.9 571.9 238.2 C 571.6 226.7 571.2 217.4 570.7 210 C 575.2 207.9 578.8 206.4 581.4 205.6 C 582.2 208.4 583 209.8 583.7 209.8 C 584.7 209.8 585 207.9 584.8 204.1 C 591.4 202 597 200.3 601.6 198.9 C 602.9 195.8 603.9 192.6 604.7 189.2 C 604.7 186.6 601.8 183.3 596.1 179.3 C 590.6 175.5 586.3 173.7 583.4 173.7 C 579.6 173.7 576.8 175 574.9 177.7 C 573.3 179.9 572.6 182.5 572.6 185.7 C 572.6 187.7 572.9 189.4 573.5 190.8 C 574.9 193.7 576 195.7 576.7 197 C 574.4 197.8 572.1 198.7 569.8 199.7 C 568.5 188.1 566.6 179.8 564.1 174.9 C 563.7 174.1 563.4 173.7 563.1 173.7 C 562.9 173.7 562.5 174.2 562.1 175.2 C 560.5 179.2 559.6 182.1 559.6 184.2 C 561.5 190.1 562.9 196.3 563.8 202.7 C 557.5 206 551.1 210.3 544.5 215.4 C 540.9 218.2 536.2 222.8 530.5 229.1 C 524.5 235.6 520.3 239.9 517.8 242 C 516.8 242.8 516 243.5 515 244.1 C 513.3 220.3 512.4 208.3 512.4 207.9 C 512.4 206.8 512.6 206.6 513 207.2 C 516.5 211.2 518.2 212.2 518.2 210.4 C 518.2 209.8 518.1 209 517.7 207.8 C 517.3 206.3 515.9 202.3 513.3 195.7 C 510.9 189.4 509.4 185.6 508.8 184.2 C 508.5 183.5 508.2 183.2 507.9 183.2 C 507.7 183.2 507.5 183.5 507.2 184.1 C 504.9 189.5 503.8 192.9 503.8 194.3 C 505.2 196.7 505.8 199.9 505.8 203.8 L 505.8 203.8 Z M 545.4 271.3 C 544.4 271.1 542.1 270.9 538.5 270.9 C 533.7 270.9 531.3 269.8 531.3 267.5 C 531.3 265.6 533.1 264.6 536.7 264.6 C 538.2 264.6 539.9 265.4 541.7 266.9 C 543.5 268.3 544.6 269.7 545.4 271.3 L 545.4 271.3 Z M 503.6 318.9 C 496.6 318.9 491.7 316.7 488.6 312.5 C 486.4 309.6 485.3 306 485.3 301.8 C 485.3 297.2 486.5 290.6 489 281.8 C 489.4 280.5 489.6 279.6 489.6 279 C 489.6 278.6 489.5 278.4 489.3 278.4 C 488.9 278.4 488.4 279.4 487.6 281.3 C 484 290.1 482.2 298.9 482.2 307.4 C 482.2 314 483.8 319.5 487.1 323.8 C 490.8 328.8 496 331.2 502.7 331.2 C 510.6 331.2 520.3 326.6 531.9 317.5 C 538.7 312.1 544.8 306.3 550.3 300.2 C 554.4 295.6 556.5 289.3 556.5 281.3 C 556.5 279 556.3 276.8 555.9 274.6 C 554.9 269.6 553 265 550.1 260.8 C 546.8 256.1 543.3 253.7 539.5 253.7 C 536.3 253.7 533.1 255.5 530.1 259 C 526.9 262.9 525.2 267.4 525.2 272.4 C 525.2 279 530 282.3 539.6 282.3 C 547.4 282.3 551.6 283.9 552.2 287.2 C 551.5 289.2 548.3 292.7 542.8 297.8 C 536.6 303.4 530.2 308.1 523.9 312 C 515.9 316.6 509.1 318.9 503.6 318.9 L 503.6 318.9 Z M 651.7 231.5 C 651.8 231.6 651.8 231.6 651.9 231.7 C 655.7 237 660.9 242.2 667.6 247 C 670.5 249.2 676.6 253.2 685.9 259 C 693.6 263.8 699.3 267.9 703.3 271.4 C 704.6 272.6 705.3 273.6 705.3 274.2 C 705.3 274.6 705 275.2 704.4 275.9 C 697.3 284.1 670.7 300.7 658.9 291.4 C 656.9 289.7 655.3 286.5 654.4 281.8 C 653.5 277.7 652.9 267.1 652.5 250 C 652.2 243.2 652 237 651.7 231.5 L 651.7 231.5 Z M 327.9 267.4 C 325.8 261.1 324.4 255.2 323.7 249.7 C 323.4 247.6 323.2 246.3 323.1 245.8 C 322.8 244.7 322.3 243.5 321.5 242.4 C 322.1 240.5 322.9 237.9 324.2 234.5 C 324.6 233.5 325 233 325.3 233 C 325.6 233 326.1 233.5 326.8 234.5 C 330 239 332.8 243 335 246.6 C 335.9 248.1 336.3 249.1 336.3 249.7 C 336.3 250.1 336.1 250.4 335.7 250.4 C 334.9 250.4 333.4 249.7 331.3 248.4 C 331.1 248.4 330.9 248.6 330.8 248.8 C 331.5 251.5 332.7 255.1 334.4 259.8 C 338.1 270.3 339.9 277.9 339.9 282.6 C 339.9 287.4 339.2 291.6 337.7 295.1 C 335.3 301.1 331.3 304.1 325.4 304.1 C 319.2 304.1 314.3 301.4 310.7 296 C 308.5 292.8 306.6 287.9 305 281.5 C 304.3 288 302.2 293.6 298.8 298.3 C 294.6 304 289.3 306.8 282.8 306.8 C 275.6 306.8 270.7 303.4 267.8 296.6 C 266.2 292.7 265.4 288.2 265.4 283.1 C 265.4 276.2 266.2 269.8 267.9 263.9 C 268.3 262.3 268.6 261.3 268.6 260.7 C 268.6 260.4 268.5 260.3 268.3 260.3 C 268 260.3 267.3 261.1 266.3 262.7 C 264.7 265.2 263 270.2 261.3 277.9 C 259 287.8 257.5 293.7 256.8 295.8 C 255.9 298.6 254.5 300.9 252.8 302.6 C 251.4 304 250.2 304.7 249.2 304.7 C 244.6 304.7 241.1 301.8 238.6 296 C 236.5 291.2 235.5 285.4 235.5 278.5 C 235.5 273.8 236.3 268.5 237.7 263 C 238 261.8 238.3 260.8 238.7 260.2 C 239.1 259.4 239.4 259.3 239.6 259.9 C 239.8 260.6 239.7 261.8 239.4 263.4 C 238.6 267.6 238.2 271.5 238.2 275.1 C 238.2 288.9 241.1 295.8 246.9 295.8 C 249.4 295.8 251.4 293.9 253.1 290.2 C 254.1 287.9 255.4 283.4 256.8 276.9 C 258.5 269.7 259.9 264.4 261.1 261 C 262.5 257.2 264.1 253.8 266.1 250.8 C 268.3 247.4 270.1 245.8 271.7 245.8 C 273 245.8 273.7 247.2 273.7 250 C 273.7 252.3 273 256.9 271.7 264 C 270.4 271 269.8 275.7 269.8 278.1 C 269.8 283.3 270.9 287.4 273.1 290.4 C 275.3 293.4 278.3 294.8 282.2 294.8 C 289.3 294.8 294.5 292.6 298 288.2 C 300.7 284.7 302.1 280.4 302.1 275.3 C 302.1 270.4 301.7 265.6 300.9 261.1 C 300.3 257.8 299.5 254.8 298.6 251.9 C 297.8 249.3 297.4 248.2 297.4 248.3 C 297.4 245.5 298.3 241.6 300.2 236.7 C 300.6 235.7 300.9 235.1 301.2 235.1 C 301.5 235.1 302 235.8 302.6 237.2 C 305.2 242.6 307.2 251 308.8 262.2 C 310.2 272.7 312.3 280.2 315 284.8 C 317.7 289.3 321.8 291.5 327.2 291.5 C 331.7 291.5 334.8 289.9 336.2 286.5 C 336.2 285.4 335.2 282.9 333.3 279.1 C 330.7 274.4 328.9 270.5 327.9 267.4 L 327.9 267.4 Z M 592 191 C 590.4 191.7 586.8 193 581.3 194.9 C 579.2 190.7 577.8 187.8 577.1 186 C 576.8 185.5 577.4 185.1 578.8 185.1 C 580.9 185.1 583.6 185.9 587 187.4 C 590.3 188.9 592 190.1 592 191 L 592 191 Z M 157.3 298.5 C 173.8 281.6 211.4 279.4 211.4 250.5 C 211.4 241.9 209 234.6 204.3 228.4 C 199.9 222.8 195.2 219.9 190.1 219.9 C 187.1 219.9 184.1 222 181.2 226.3 C 178.3 230.6 176.9 234.8 176.9 239 C 176.9 242 177.8 244.6 179.5 246.5 C 181.3 248.5 183.7 249.4 186.7 249.4 L 194.8 249.4 C 197.7 249.4 200.6 250.1 203.3 251.6 C 206.3 253.2 207.8 254.9 207.8 256.7 C 207.8 265.1 170.5 270.3 150.9 292.5 C 145.5 298.8 140.1 305.1 134.7 311.4 C 128.3 318.1 122.9 321.5 118.6 321.5 C 115.7 321.5 113.5 320.5 111.9 318.3 C 110.4 316.4 109.6 313.8 109.6 310.6 C 109.6 306.4 111 300.7 113.7 293.4 C 116.4 286.2 117.7 281.9 117.7 280.7 C 117.7 280.4 117.6 280.3 117.5 280.2 C 117.1 280.2 116.6 280.8 115.9 282.1 C 109.7 294.2 106.6 304.1 106.6 311.6 C 106.6 317.1 108.2 321.7 111.4 325.6 C 114.4 329.2 118 331 122 331 C 125.6 331 129.2 329.4 132.9 326.1 C 135.3 324.1 138.9 320 143.7 314 C 149.4 307.2 153.9 302 157.3 298.5 L 157.3 298.5 Z M 198.5 238.3 C 194.5 237.9 191.5 237.7 189.5 237.7 C 186.2 237.3 184.6 236.1 184.6 234.2 C 184.6 232.5 185.9 231.6 188.6 231.6 C 192.3 231.6 195.6 233.8 198.5 238.3 Z"/>
</svg>